<?xml version="1.0" encoding="utf-8"?>
<svg xmlns="http://www.w3.org/2000/svg" xmlns:xlink="http://www.w3.org/1999/xlink" width="600" height="400" viewBox="0 0 2400 1600">
<defs>
  <clipPath id="clip090">
    <rect x="0" y="0" width="2400" height="1600"/>
  </clipPath>
</defs>
<path clip-path="url(#clip090)" d="M0 1600 L2400 1600 L2400 0 L0 0  Z" fill="#ffffff" fill-rule="evenodd" fill-opacity="1"/>
<defs>
  <clipPath id="clip091">
    <rect x="480" y="0" width="1681" height="1600"/>
  </clipPath>
</defs>
<path clip-path="url(#clip090)" d="M185.927 1486.45 L2352.76 1486.45 L2352.76 47.2441 L185.927 47.2441  Z" fill="#ffffff" fill-rule="evenodd" fill-opacity="1"/>
<defs>
  <clipPath id="clip092">
    <rect x="185" y="47" width="2168" height="1440"/>
  </clipPath>
</defs>
<polyline clip-path="url(#clip092)" style="stroke:#000000; stroke-linecap:round; stroke-linejoin:round; stroke-width:2; stroke-opacity:0.1; fill:none" points="245.206,1486.45 245.206,47.2441 "/>
<polyline clip-path="url(#clip092)" style="stroke:#000000; stroke-linecap:round; stroke-linejoin:round; stroke-width:2; stroke-opacity:0.1; fill:none" points="756.762,1486.45 756.762,47.2441 "/>
<polyline clip-path="url(#clip092)" style="stroke:#000000; stroke-linecap:round; stroke-linejoin:round; stroke-width:2; stroke-opacity:0.1; fill:none" points="1268.32,1486.45 1268.32,47.2441 "/>
<polyline clip-path="url(#clip092)" style="stroke:#000000; stroke-linecap:round; stroke-linejoin:round; stroke-width:2; stroke-opacity:0.1; fill:none" points="1779.87,1486.45 1779.87,47.2441 "/>
<polyline clip-path="url(#clip092)" style="stroke:#000000; stroke-linecap:round; stroke-linejoin:round; stroke-width:2; stroke-opacity:0.1; fill:none" points="2291.43,1486.45 2291.43,47.2441 "/>
<polyline clip-path="url(#clip092)" style="stroke:#000000; stroke-linecap:round; stroke-linejoin:round; stroke-width:2; stroke-opacity:0.1; fill:none" points="185.927,1467.18 2352.76,1467.18 "/>
<polyline clip-path="url(#clip092)" style="stroke:#000000; stroke-linecap:round; stroke-linejoin:round; stroke-width:2; stroke-opacity:0.1; fill:none" points="185.927,1168.66 2352.76,1168.66 "/>
<polyline clip-path="url(#clip092)" style="stroke:#000000; stroke-linecap:round; stroke-linejoin:round; stroke-width:2; stroke-opacity:0.1; fill:none" points="185.927,870.149 2352.76,870.149 "/>
<polyline clip-path="url(#clip092)" style="stroke:#000000; stroke-linecap:round; stroke-linejoin:round; stroke-width:2; stroke-opacity:0.1; fill:none" points="185.927,571.635 2352.76,571.635 "/>
<polyline clip-path="url(#clip092)" style="stroke:#000000; stroke-linecap:round; stroke-linejoin:round; stroke-width:2; stroke-opacity:0.1; fill:none" points="185.927,273.122 2352.76,273.122 "/>
<polyline clip-path="url(#clip090)" style="stroke:#000000; stroke-linecap:round; stroke-linejoin:round; stroke-width:4; stroke-opacity:1; fill:none" points="185.927,1486.45 2352.76,1486.45 "/>
<polyline clip-path="url(#clip090)" style="stroke:#000000; stroke-linecap:round; stroke-linejoin:round; stroke-width:4; stroke-opacity:1; fill:none" points="245.206,1486.45 245.206,1467.55 "/>
<polyline clip-path="url(#clip090)" style="stroke:#000000; stroke-linecap:round; stroke-linejoin:round; stroke-width:4; stroke-opacity:1; fill:none" points="756.762,1486.45 756.762,1467.55 "/>
<polyline clip-path="url(#clip090)" style="stroke:#000000; stroke-linecap:round; stroke-linejoin:round; stroke-width:4; stroke-opacity:1; fill:none" points="1268.32,1486.45 1268.32,1467.55 "/>
<polyline clip-path="url(#clip090)" style="stroke:#000000; stroke-linecap:round; stroke-linejoin:round; stroke-width:4; stroke-opacity:1; fill:none" points="1779.87,1486.45 1779.87,1467.55 "/>
<polyline clip-path="url(#clip090)" style="stroke:#000000; stroke-linecap:round; stroke-linejoin:round; stroke-width:4; stroke-opacity:1; fill:none" points="2291.43,1486.45 2291.43,1467.55 "/>
<path clip-path="url(#clip090)" d="M245.206 1517.37 Q241.595 1517.37 239.766 1520.93 Q237.961 1524.47 237.961 1531.6 Q237.961 1538.71 239.766 1542.27 Q241.595 1545.82 245.206 1545.82 Q248.84 1545.82 250.646 1542.27 Q252.474 1538.71 252.474 1531.6 Q252.474 1524.47 250.646 1520.93 Q248.84 1517.37 245.206 1517.37 M245.206 1513.66 Q251.016 1513.66 254.072 1518.27 Q257.15 1522.85 257.15 1531.6 Q257.15 1540.33 254.072 1544.94 Q251.016 1549.52 245.206 1549.52 Q239.396 1549.52 236.317 1544.94 Q233.262 1540.33 233.262 1531.6 Q233.262 1522.85 236.317 1518.27 Q239.396 1513.66 245.206 1513.66 Z" fill="#000000" fill-rule="nonzero" fill-opacity="1" /><path clip-path="url(#clip090)" d="M720.454 1544.91 L736.774 1544.91 L736.774 1548.85 L714.829 1548.85 L714.829 1544.91 Q717.491 1542.16 722.075 1537.53 Q726.681 1532.88 727.862 1531.53 Q730.107 1529.01 730.987 1527.27 Q731.89 1525.51 731.89 1523.82 Q731.89 1521.07 729.945 1519.33 Q728.024 1517.6 724.922 1517.6 Q722.723 1517.6 720.269 1518.36 Q717.839 1519.13 715.061 1520.68 L715.061 1515.95 Q717.885 1514.82 720.339 1514.24 Q722.792 1513.66 724.829 1513.66 Q730.2 1513.66 733.394 1516.35 Q736.589 1519.03 736.589 1523.52 Q736.589 1525.65 735.778 1527.57 Q734.991 1529.47 732.885 1532.07 Q732.306 1532.74 729.204 1535.95 Q726.103 1539.15 720.454 1544.91 Z" fill="#000000" fill-rule="nonzero" fill-opacity="1" /><path clip-path="url(#clip090)" d="M746.635 1514.29 L764.991 1514.29 L764.991 1518.22 L750.917 1518.22 L750.917 1526.7 Q751.936 1526.35 752.954 1526.19 Q753.973 1526 754.991 1526 Q760.778 1526 764.158 1529.17 Q767.537 1532.34 767.537 1537.76 Q767.537 1543.34 764.065 1546.44 Q760.593 1549.52 754.274 1549.52 Q752.098 1549.52 749.829 1549.15 Q747.584 1548.78 745.176 1548.04 L745.176 1543.34 Q747.26 1544.47 749.482 1545.03 Q751.704 1545.58 754.181 1545.58 Q758.186 1545.58 760.524 1543.48 Q762.862 1541.37 762.862 1537.76 Q762.862 1534.15 760.524 1532.04 Q758.186 1529.94 754.181 1529.94 Q752.306 1529.94 750.431 1530.35 Q748.579 1530.77 746.635 1531.65 L746.635 1514.29 Z" fill="#000000" fill-rule="nonzero" fill-opacity="1" /><path clip-path="url(#clip090)" d="M786.75 1517.37 Q783.139 1517.37 781.311 1520.93 Q779.505 1524.47 779.505 1531.6 Q779.505 1538.71 781.311 1542.27 Q783.139 1545.82 786.75 1545.82 Q790.385 1545.82 792.19 1542.27 Q794.019 1538.71 794.019 1531.6 Q794.019 1524.47 792.19 1520.93 Q790.385 1517.37 786.75 1517.37 M786.75 1513.66 Q792.56 1513.66 795.616 1518.27 Q798.695 1522.85 798.695 1531.6 Q798.695 1540.33 795.616 1544.94 Q792.56 1549.52 786.75 1549.52 Q780.94 1549.52 777.861 1544.94 Q774.806 1540.33 774.806 1531.6 Q774.806 1522.85 777.861 1518.27 Q780.94 1513.66 786.75 1513.66 Z" fill="#000000" fill-rule="nonzero" fill-opacity="1" /><path clip-path="url(#clip090)" d="M1227.94 1514.29 L1246.29 1514.29 L1246.29 1518.22 L1232.22 1518.22 L1232.22 1526.7 Q1233.24 1526.35 1234.26 1526.19 Q1235.27 1526 1236.29 1526 Q1242.08 1526 1245.46 1529.17 Q1248.84 1532.34 1248.84 1537.76 Q1248.84 1543.34 1245.37 1546.44 Q1241.89 1549.52 1235.58 1549.52 Q1233.4 1549.52 1231.13 1549.15 Q1228.89 1548.78 1226.48 1548.04 L1226.48 1543.34 Q1228.56 1544.47 1230.78 1545.03 Q1233.01 1545.58 1235.48 1545.58 Q1239.49 1545.58 1241.83 1543.48 Q1244.16 1541.37 1244.16 1537.76 Q1244.16 1534.15 1241.83 1532.04 Q1239.49 1529.94 1235.48 1529.94 Q1233.61 1529.94 1231.73 1530.35 Q1229.88 1530.77 1227.94 1531.65 L1227.94 1514.29 Z" fill="#000000" fill-rule="nonzero" fill-opacity="1" /><path clip-path="url(#clip090)" d="M1268.05 1517.37 Q1264.44 1517.37 1262.61 1520.93 Q1260.81 1524.47 1260.81 1531.6 Q1260.81 1538.71 1262.61 1542.27 Q1264.44 1545.82 1268.05 1545.82 Q1271.69 1545.82 1273.49 1542.27 Q1275.32 1538.71 1275.32 1531.6 Q1275.32 1524.47 1273.49 1520.93 Q1271.69 1517.37 1268.05 1517.37 M1268.05 1513.66 Q1273.86 1513.66 1276.92 1518.27 Q1280 1522.85 1280 1531.6 Q1280 1540.33 1276.92 1544.94 Q1273.86 1549.52 1268.05 1549.52 Q1262.24 1549.52 1259.16 1544.94 Q1256.11 1540.33 1256.11 1531.6 Q1256.11 1522.85 1259.16 1518.27 Q1262.24 1513.66 1268.05 1513.66 Z" fill="#000000" fill-rule="nonzero" fill-opacity="1" /><path clip-path="url(#clip090)" d="M1298.21 1517.37 Q1294.6 1517.37 1292.77 1520.93 Q1290.97 1524.47 1290.97 1531.6 Q1290.97 1538.71 1292.77 1542.27 Q1294.6 1545.82 1298.21 1545.82 Q1301.85 1545.82 1303.65 1542.27 Q1305.48 1538.71 1305.48 1531.6 Q1305.48 1524.47 1303.65 1520.93 Q1301.85 1517.37 1298.21 1517.37 M1298.21 1513.66 Q1304.02 1513.66 1307.08 1518.27 Q1310.16 1522.85 1310.16 1531.6 Q1310.16 1540.33 1307.08 1544.94 Q1304.02 1549.52 1298.21 1549.52 Q1292.4 1549.52 1289.33 1544.94 Q1286.27 1540.33 1286.27 1531.6 Q1286.27 1522.85 1289.33 1518.27 Q1292.4 1513.66 1298.21 1513.66 Z" fill="#000000" fill-rule="nonzero" fill-opacity="1" /><path clip-path="url(#clip090)" d="M1738.15 1514.29 L1760.37 1514.29 L1760.37 1516.28 L1747.83 1548.85 L1742.94 1548.85 L1754.75 1518.22 L1738.15 1518.22 L1738.15 1514.29 Z" fill="#000000" fill-rule="nonzero" fill-opacity="1" /><path clip-path="url(#clip090)" d="M1769.54 1514.29 L1787.9 1514.29 L1787.9 1518.22 L1773.82 1518.22 L1773.82 1526.7 Q1774.84 1526.35 1775.86 1526.19 Q1776.88 1526 1777.9 1526 Q1783.68 1526 1787.06 1529.17 Q1790.44 1532.34 1790.44 1537.76 Q1790.44 1543.34 1786.97 1546.44 Q1783.5 1549.52 1777.18 1549.52 Q1775 1549.52 1772.73 1549.15 Q1770.49 1548.78 1768.08 1548.04 L1768.08 1543.34 Q1770.16 1544.47 1772.39 1545.03 Q1774.61 1545.58 1777.09 1545.58 Q1781.09 1545.58 1783.43 1543.48 Q1785.77 1541.37 1785.77 1537.76 Q1785.77 1534.15 1783.43 1532.04 Q1781.09 1529.94 1777.09 1529.94 Q1775.21 1529.94 1773.34 1530.35 Q1771.48 1530.77 1769.54 1531.65 L1769.54 1514.29 Z" fill="#000000" fill-rule="nonzero" fill-opacity="1" /><path clip-path="url(#clip090)" d="M1809.65 1517.37 Q1806.04 1517.37 1804.21 1520.93 Q1802.41 1524.47 1802.41 1531.6 Q1802.41 1538.71 1804.21 1542.27 Q1806.04 1545.82 1809.65 1545.82 Q1813.29 1545.82 1815.09 1542.27 Q1816.92 1538.71 1816.92 1531.6 Q1816.92 1524.47 1815.09 1520.93 Q1813.29 1517.37 1809.65 1517.37 M1809.65 1513.66 Q1815.46 1513.66 1818.52 1518.27 Q1821.6 1522.85 1821.6 1531.6 Q1821.6 1540.33 1818.52 1544.94 Q1815.46 1549.52 1809.65 1549.52 Q1803.84 1549.52 1800.77 1544.94 Q1797.71 1540.33 1797.71 1531.6 Q1797.71 1522.85 1800.77 1518.27 Q1803.84 1513.66 1809.65 1513.66 Z" fill="#000000" fill-rule="nonzero" fill-opacity="1" /><path clip-path="url(#clip090)" d="M2235.96 1544.91 L2243.6 1544.91 L2243.6 1518.55 L2235.29 1520.21 L2235.29 1515.95 L2243.55 1514.29 L2248.22 1514.29 L2248.22 1544.91 L2255.86 1544.91 L2255.86 1548.85 L2235.96 1548.85 L2235.96 1544.91 Z" fill="#000000" fill-rule="nonzero" fill-opacity="1" /><path clip-path="url(#clip090)" d="M2275.31 1517.37 Q2271.7 1517.37 2269.87 1520.93 Q2268.06 1524.47 2268.06 1531.6 Q2268.06 1538.71 2269.87 1542.27 Q2271.7 1545.82 2275.31 1545.82 Q2278.94 1545.82 2280.75 1542.27 Q2282.58 1538.71 2282.58 1531.6 Q2282.58 1524.47 2280.75 1520.93 Q2278.94 1517.37 2275.31 1517.37 M2275.31 1513.66 Q2281.12 1513.66 2284.17 1518.27 Q2287.25 1522.85 2287.25 1531.6 Q2287.25 1540.33 2284.17 1544.94 Q2281.12 1549.52 2275.31 1549.52 Q2269.5 1549.52 2266.42 1544.94 Q2263.36 1540.33 2263.36 1531.6 Q2263.36 1522.85 2266.42 1518.27 Q2269.5 1513.66 2275.31 1513.66 Z" fill="#000000" fill-rule="nonzero" fill-opacity="1" /><path clip-path="url(#clip090)" d="M2305.47 1517.37 Q2301.86 1517.37 2300.03 1520.93 Q2298.22 1524.47 2298.22 1531.6 Q2298.22 1538.71 2300.03 1542.27 Q2301.86 1545.82 2305.47 1545.82 Q2309.1 1545.82 2310.91 1542.27 Q2312.74 1538.71 2312.74 1531.6 Q2312.74 1524.47 2310.91 1520.93 Q2309.1 1517.37 2305.47 1517.37 M2305.47 1513.66 Q2311.28 1513.66 2314.34 1518.27 Q2317.41 1522.85 2317.41 1531.6 Q2317.41 1540.33 2314.34 1544.94 Q2311.28 1549.52 2305.47 1549.52 Q2299.66 1549.52 2296.58 1544.94 Q2293.53 1540.33 2293.53 1531.6 Q2293.53 1522.85 2296.58 1518.27 Q2299.66 1513.66 2305.47 1513.66 Z" fill="#000000" fill-rule="nonzero" fill-opacity="1" /><path clip-path="url(#clip090)" d="M2335.63 1517.37 Q2332.02 1517.37 2330.19 1520.93 Q2328.39 1524.47 2328.39 1531.6 Q2328.39 1538.71 2330.19 1542.27 Q2332.02 1545.82 2335.63 1545.82 Q2339.27 1545.82 2341.07 1542.27 Q2342.9 1538.71 2342.9 1531.6 Q2342.9 1524.47 2341.07 1520.93 Q2339.27 1517.37 2335.63 1517.37 M2335.63 1513.66 Q2341.44 1513.66 2344.5 1518.27 Q2347.58 1522.85 2347.58 1531.6 Q2347.58 1540.33 2344.5 1544.94 Q2341.44 1549.52 2335.63 1549.52 Q2329.82 1549.52 2326.74 1544.94 Q2323.69 1540.33 2323.69 1531.6 Q2323.69 1522.85 2326.74 1518.27 Q2329.82 1513.66 2335.63 1513.66 Z" fill="#000000" fill-rule="nonzero" fill-opacity="1" /><polyline clip-path="url(#clip090)" style="stroke:#000000; stroke-linecap:round; stroke-linejoin:round; stroke-width:4; stroke-opacity:1; fill:none" points="185.927,1486.45 185.927,47.2441 "/>
<polyline clip-path="url(#clip090)" style="stroke:#000000; stroke-linecap:round; stroke-linejoin:round; stroke-width:4; stroke-opacity:1; fill:none" points="185.927,1467.18 204.824,1467.18 "/>
<polyline clip-path="url(#clip090)" style="stroke:#000000; stroke-linecap:round; stroke-linejoin:round; stroke-width:4; stroke-opacity:1; fill:none" points="185.927,1168.66 204.824,1168.66 "/>
<polyline clip-path="url(#clip090)" style="stroke:#000000; stroke-linecap:round; stroke-linejoin:round; stroke-width:4; stroke-opacity:1; fill:none" points="185.927,870.149 204.824,870.149 "/>
<polyline clip-path="url(#clip090)" style="stroke:#000000; stroke-linecap:round; stroke-linejoin:round; stroke-width:4; stroke-opacity:1; fill:none" points="185.927,571.635 204.824,571.635 "/>
<polyline clip-path="url(#clip090)" style="stroke:#000000; stroke-linecap:round; stroke-linejoin:round; stroke-width:4; stroke-opacity:1; fill:none" points="185.927,273.122 204.824,273.122 "/>
<path clip-path="url(#clip090)" d="M54.3949 1480.52 L62.0337 1480.52 L62.0337 1454.15 L53.7236 1455.82 L53.7236 1451.56 L61.9874 1449.9 L66.6633 1449.9 L66.6633 1480.52 L74.3022 1480.52 L74.3022 1484.46 L54.3949 1484.46 L54.3949 1480.52 Z" fill="#000000" fill-rule="nonzero" fill-opacity="1" /><path clip-path="url(#clip090)" d="M83.7466 1478.58 L88.6308 1478.58 L88.6308 1484.46 L83.7466 1484.46 L83.7466 1478.58 Z" fill="#000000" fill-rule="nonzero" fill-opacity="1" /><path clip-path="url(#clip090)" d="M102.844 1480.52 L119.163 1480.52 L119.163 1484.46 L97.2187 1484.46 L97.2187 1480.52 Q99.8808 1477.77 104.464 1473.14 Q109.071 1468.48 110.251 1467.14 Q112.496 1464.62 113.376 1462.88 Q114.279 1461.12 114.279 1459.43 Q114.279 1456.68 112.334 1454.94 Q110.413 1453.21 107.311 1453.21 Q105.112 1453.21 102.659 1453.97 Q100.228 1454.73 97.4502 1456.28 L97.4502 1451.56 Q100.274 1450.43 102.728 1449.85 Q105.182 1449.27 107.219 1449.27 Q112.589 1449.27 115.783 1451.96 Q118.978 1454.64 118.978 1459.13 Q118.978 1461.26 118.168 1463.18 Q117.381 1465.08 115.274 1467.67 Q114.695 1468.34 111.594 1471.56 Q108.492 1474.76 102.844 1480.52 Z" fill="#000000" fill-rule="nonzero" fill-opacity="1" /><path clip-path="url(#clip090)" d="M129.024 1449.9 L147.38 1449.9 L147.38 1453.83 L133.306 1453.83 L133.306 1462.3 Q134.325 1461.96 135.344 1461.79 Q136.362 1461.61 137.381 1461.61 Q143.168 1461.61 146.547 1464.78 Q149.927 1467.95 149.927 1473.37 Q149.927 1478.95 146.455 1482.05 Q142.982 1485.13 136.663 1485.13 Q134.487 1485.13 132.219 1484.76 Q129.973 1484.39 127.566 1483.65 L127.566 1478.95 Q129.649 1480.08 131.871 1480.64 Q134.094 1481.19 136.57 1481.19 Q140.575 1481.19 142.913 1479.09 Q145.251 1476.98 145.251 1473.37 Q145.251 1469.76 142.913 1467.65 Q140.575 1465.54 136.57 1465.54 Q134.695 1465.54 132.82 1465.96 Q130.969 1466.38 129.024 1467.26 L129.024 1449.9 Z" fill="#000000" fill-rule="nonzero" fill-opacity="1" /><path clip-path="url(#clip090)" d="M53.3995 1182.01 L61.0384 1182.01 L61.0384 1155.64 L52.7282 1157.31 L52.7282 1153.05 L60.9921 1151.38 L65.668 1151.38 L65.668 1182.01 L73.3068 1182.01 L73.3068 1185.94 L53.3995 1185.94 L53.3995 1182.01 Z" fill="#000000" fill-rule="nonzero" fill-opacity="1" /><path clip-path="url(#clip090)" d="M82.7512 1180.06 L87.6354 1180.06 L87.6354 1185.94 L82.7512 1185.94 L82.7512 1180.06 Z" fill="#000000" fill-rule="nonzero" fill-opacity="1" /><path clip-path="url(#clip090)" d="M97.8669 1151.38 L116.223 1151.38 L116.223 1155.32 L102.149 1155.32 L102.149 1163.79 Q103.168 1163.44 104.186 1163.28 Q105.205 1163.09 106.223 1163.09 Q112.01 1163.09 115.39 1166.27 Q118.77 1169.44 118.77 1174.85 Q118.77 1180.43 115.297 1183.53 Q111.825 1186.61 105.506 1186.61 Q103.33 1186.61 101.061 1186.24 Q98.8159 1185.87 96.4085 1185.13 L96.4085 1180.43 Q98.4919 1181.57 100.714 1182.12 Q102.936 1182.68 105.413 1182.68 Q109.418 1182.68 111.756 1180.57 Q114.094 1178.47 114.094 1174.85 Q114.094 1171.24 111.756 1169.14 Q109.418 1167.03 105.413 1167.03 Q103.538 1167.03 101.663 1167.45 Q99.8113 1167.86 97.8669 1168.74 L97.8669 1151.38 Z" fill="#000000" fill-rule="nonzero" fill-opacity="1" /><path clip-path="url(#clip090)" d="M137.982 1154.46 Q134.371 1154.46 132.543 1158.03 Q130.737 1161.57 130.737 1168.7 Q130.737 1175.8 132.543 1179.37 Q134.371 1182.91 137.982 1182.91 Q141.617 1182.91 143.422 1179.37 Q145.251 1175.8 145.251 1168.7 Q145.251 1161.57 143.422 1158.03 Q141.617 1154.46 137.982 1154.46 M137.982 1150.76 Q143.793 1150.76 146.848 1155.36 Q149.927 1159.95 149.927 1168.7 Q149.927 1177.42 146.848 1182.03 Q143.793 1186.61 137.982 1186.61 Q132.172 1186.61 129.094 1182.03 Q126.038 1177.42 126.038 1168.7 Q126.038 1159.95 129.094 1155.36 Q132.172 1150.76 137.982 1150.76 Z" fill="#000000" fill-rule="nonzero" fill-opacity="1" /><path clip-path="url(#clip090)" d="M54.3949 883.494 L62.0337 883.494 L62.0337 857.128 L53.7236 858.795 L53.7236 854.535 L61.9874 852.869 L66.6633 852.869 L66.6633 883.494 L74.3022 883.494 L74.3022 887.429 L54.3949 887.429 L54.3949 883.494 Z" fill="#000000" fill-rule="nonzero" fill-opacity="1" /><path clip-path="url(#clip090)" d="M83.7466 881.549 L88.6308 881.549 L88.6308 887.429 L83.7466 887.429 L83.7466 881.549 Z" fill="#000000" fill-rule="nonzero" fill-opacity="1" /><path clip-path="url(#clip090)" d="M97.6354 852.869 L119.857 852.869 L119.857 854.859 L107.311 887.429 L102.427 887.429 L114.233 856.804 L97.6354 856.804 L97.6354 852.869 Z" fill="#000000" fill-rule="nonzero" fill-opacity="1" /><path clip-path="url(#clip090)" d="M129.024 852.869 L147.38 852.869 L147.38 856.804 L133.306 856.804 L133.306 865.276 Q134.325 864.929 135.344 864.767 Q136.362 864.582 137.381 864.582 Q143.168 864.582 146.547 867.753 Q149.927 870.924 149.927 876.341 Q149.927 881.92 146.455 885.021 Q142.982 888.1 136.663 888.1 Q134.487 888.1 132.219 887.73 Q129.973 887.359 127.566 886.619 L127.566 881.92 Q129.649 883.054 131.871 883.609 Q134.094 884.165 136.57 884.165 Q140.575 884.165 142.913 882.058 Q145.251 879.952 145.251 876.341 Q145.251 872.73 142.913 870.623 Q140.575 868.517 136.57 868.517 Q134.695 868.517 132.82 868.933 Q130.969 869.35 129.024 870.23 L129.024 852.869 Z" fill="#000000" fill-rule="nonzero" fill-opacity="1" /><path clip-path="url(#clip090)" d="M56.6171 584.98 L72.9365 584.98 L72.9365 588.915 L50.9921 588.915 L50.9921 584.98 Q53.6541 582.226 58.2375 577.596 Q62.8439 572.943 64.0245 571.601 Q66.2698 569.078 67.1494 567.341 Q68.0522 565.582 68.0522 563.892 Q68.0522 561.138 66.1078 559.402 Q64.1865 557.666 61.0847 557.666 Q58.8856 557.666 56.4319 558.429 Q54.0014 559.193 51.2236 560.744 L51.2236 556.022 Q54.0477 554.888 56.5014 554.309 Q58.955 553.73 60.9921 553.73 Q66.3624 553.73 69.5568 556.416 Q72.7513 559.101 72.7513 563.591 Q72.7513 565.721 71.9411 567.642 Q71.1541 569.541 69.0476 572.133 Q68.4689 572.804 65.367 576.022 Q62.2652 579.216 56.6171 584.98 Z" fill="#000000" fill-rule="nonzero" fill-opacity="1" /><path clip-path="url(#clip090)" d="M82.7512 583.036 L87.6354 583.036 L87.6354 588.915 L82.7512 588.915 L82.7512 583.036 Z" fill="#000000" fill-rule="nonzero" fill-opacity="1" /><path clip-path="url(#clip090)" d="M107.821 557.434 Q104.209 557.434 102.381 560.999 Q100.575 564.541 100.575 571.67 Q100.575 578.777 102.381 582.341 Q104.209 585.883 107.821 585.883 Q111.455 585.883 113.26 582.341 Q115.089 578.777 115.089 571.67 Q115.089 564.541 113.26 560.999 Q111.455 557.434 107.821 557.434 M107.821 553.73 Q113.631 553.73 116.686 558.337 Q119.765 562.92 119.765 571.67 Q119.765 580.397 116.686 585.003 Q113.631 589.587 107.821 589.587 Q102.01 589.587 98.9317 585.003 Q95.8761 580.397 95.8761 571.67 Q95.8761 562.92 98.9317 558.337 Q102.01 553.73 107.821 553.73 Z" fill="#000000" fill-rule="nonzero" fill-opacity="1" /><path clip-path="url(#clip090)" d="M137.982 557.434 Q134.371 557.434 132.543 560.999 Q130.737 564.541 130.737 571.67 Q130.737 578.777 132.543 582.341 Q134.371 585.883 137.982 585.883 Q141.617 585.883 143.422 582.341 Q145.251 578.777 145.251 571.67 Q145.251 564.541 143.422 560.999 Q141.617 557.434 137.982 557.434 M137.982 553.73 Q143.793 553.73 146.848 558.337 Q149.927 562.92 149.927 571.67 Q149.927 580.397 146.848 585.003 Q143.793 589.587 137.982 589.587 Q132.172 589.587 129.094 585.003 Q126.038 580.397 126.038 571.67 Q126.038 562.92 129.094 558.337 Q132.172 553.73 137.982 553.73 Z" fill="#000000" fill-rule="nonzero" fill-opacity="1" /><path clip-path="url(#clip090)" d="M57.6125 286.467 L73.9318 286.467 L73.9318 290.402 L51.9875 290.402 L51.9875 286.467 Q54.6495 283.712 59.2328 279.083 Q63.8393 274.43 65.0198 273.087 Q67.2652 270.564 68.1448 268.828 Q69.0476 267.069 69.0476 265.379 Q69.0476 262.624 67.1032 260.888 Q65.1819 259.152 62.08 259.152 Q59.881 259.152 57.4273 259.916 Q54.9967 260.68 52.219 262.231 L52.219 257.509 Q55.043 256.375 57.4967 255.796 Q59.9504 255.217 61.9874 255.217 Q67.3578 255.217 70.5522 257.902 Q73.7466 260.587 73.7466 265.078 Q73.7466 267.208 72.9365 269.129 Q72.1494 271.027 70.0429 273.62 Q69.4642 274.291 66.3624 277.509 Q63.2606 280.703 57.6125 286.467 Z" fill="#000000" fill-rule="nonzero" fill-opacity="1" /><path clip-path="url(#clip090)" d="M83.7466 284.523 L88.6308 284.523 L88.6308 290.402 L83.7466 290.402 L83.7466 284.523 Z" fill="#000000" fill-rule="nonzero" fill-opacity="1" /><path clip-path="url(#clip090)" d="M102.844 286.467 L119.163 286.467 L119.163 290.402 L97.2187 290.402 L97.2187 286.467 Q99.8808 283.712 104.464 279.083 Q109.071 274.43 110.251 273.087 Q112.496 270.564 113.376 268.828 Q114.279 267.069 114.279 265.379 Q114.279 262.624 112.334 260.888 Q110.413 259.152 107.311 259.152 Q105.112 259.152 102.659 259.916 Q100.228 260.68 97.4502 262.231 L97.4502 257.509 Q100.274 256.375 102.728 255.796 Q105.182 255.217 107.219 255.217 Q112.589 255.217 115.783 257.902 Q118.978 260.587 118.978 265.078 Q118.978 267.208 118.168 269.129 Q117.381 271.027 115.274 273.62 Q114.695 274.291 111.594 277.509 Q108.492 280.703 102.844 286.467 Z" fill="#000000" fill-rule="nonzero" fill-opacity="1" /><path clip-path="url(#clip090)" d="M129.024 255.842 L147.38 255.842 L147.38 259.777 L133.306 259.777 L133.306 268.249 Q134.325 267.902 135.344 267.74 Q136.362 267.555 137.381 267.555 Q143.168 267.555 146.547 270.726 Q149.927 273.898 149.927 279.314 Q149.927 284.893 146.455 287.995 Q142.982 291.073 136.663 291.073 Q134.487 291.073 132.219 290.703 Q129.973 290.333 127.566 289.592 L127.566 284.893 Q129.649 286.027 131.871 286.583 Q134.094 287.138 136.57 287.138 Q140.575 287.138 142.913 285.032 Q145.251 282.925 145.251 279.314 Q145.251 275.703 142.913 273.597 Q140.575 271.49 136.57 271.49 Q134.695 271.49 132.82 271.907 Q130.969 272.324 129.024 273.203 L129.024 255.842 Z" fill="#000000" fill-rule="nonzero" fill-opacity="1" /><polyline clip-path="url(#clip092)" style="stroke:#009af9; stroke-linecap:round; stroke-linejoin:round; stroke-width:4; stroke-opacity:1; fill:none" points="247.252,755.602 249.298,859.158 251.345,859.158 253.391,783.114 255.437,1191.51 257.483,1137.52 259.529,1135.63 261.576,1159.55 263.622,1159.55 265.668,1159.55 267.714,771.054 269.761,771.054 271.807,933.293 273.853,589.995 275.899,968.514 277.946,1197.59 279.992,1197.59 282.038,1084.48 284.084,1018.3 286.13,1018.3 288.177,510.47 290.223,1247.55 292.269,1143.08 294.315,1001.33 296.362,994.169 298.408,994.169 300.454,995.667 302.5,366.135 304.546,971.188 306.593,971.188 308.639,971.188 310.685,971.188 312.731,971.188 314.778,1161.88 316.824,1256.64 318.87,646.574 320.916,1060.72 322.962,246.316 325.009,1159.44 327.055,1159.44 329.101,1159.44 331.147,1159.44 333.194,1150.12 335.24,1150.12 337.286,527.469 339.332,715.678 341.378,715.678 343.425,828.991 345.471,1105.61 347.517,627.935 349.563,1081.52 351.61,1145.29 353.656,884.057 355.702,616.242 357.748,1143.24 359.794,1098.48 361.841,1170.51 363.887,1170.51 365.933,1089.8 367.979,1023.04 370.026,589.953 372.072,762.539 374.118,1093.04 376.164,1033.42 378.211,1035.8 380.257,1035.8 382.303,1035.8 384.349,1035.8 386.395,1035.8 388.442,989.119 390.488,995.994 392.534,996.916 394.58,996.916 396.627,913.824 398.673,913.824 400.719,913.824 402.765,913.824 404.811,1140.3 406.858,1140.3 408.904,1140.3 410.95,1223.29 412.996,880.792 415.043,1152.39 417.089,1152.39 419.135,825.826 421.181,825.826 423.227,1241.06 425.274,1145.94 427.32,1145.94 429.366,1145.94 431.412,1253.68 433.459,1253.68 435.505,1146.49 437.551,917.65 439.597,917.65 441.643,867.554 443.69,867.554 445.736,867.554 447.782,643.718 449.828,643.718 451.875,1180.06 453.921,1180.06 455.967,872.522 458.013,872.522 460.059,872.522 462.106,512.935 464.152,1198.41 466.198,1230.53 468.244,742.418 470.291,742.418 472.337,827.122 474.383,827.122 476.429,1124.28 478.476,422.999 480.522,870.829 482.568,1104.8 484.614,958.078 486.66,958.078 488.707,958.078 490.753,1086.89 492.799,889.193 494.845,889.193 496.892,889.193 498.938,1097.86 500.984,853.015 503.03,853.015 505.076,859.199 507.123,859.199 509.169,859.199 511.215,859.199 513.261,1036.15 515.308,853.28 517.354,853.28 519.4,853.28 521.446,808.519 523.492,902.728 525.539,1043.69 527.585,1214.76 529.631,1192.74 531.677,1034.79 533.724,1034.79 535.77,1178.69 537.816,1178.69 539.862,495.602 541.908,1121.96 543.955,752.401 546.001,1029.65 548.047,842.794 550.093,842.794 552.14,836.824 554.186,887.805 556.232,1176.7 558.278,1089.28 560.325,1081.84 562.371,1165.47 564.417,921.441 566.463,921.441 568.509,980.806 570.556,1198.68 572.602,832.378 574.648,832.378 576.694,832.378 578.741,832.378 580.787,832.378 582.833,832.378 584.879,1078.17 586.925,1078.17 588.972,710.839 591.018,978.303 593.064,978.303 595.11,978.303 597.157,1174.97 599.203,914.226 601.249,914.226 603.295,914.226 605.341,756.52 607.388,633.345 609.434,1015.51 611.48,1015.51 613.526,1015.51 615.573,1002.84 617.619,1226.97 619.665,387.565 621.711,825.001 623.757,1109.11 625.804,1109.11 627.85,1116.06 629.896,1007.84 631.942,1007.84 633.989,989.877 636.035,989.877 638.081,989.877 640.127,759.282 642.173,1073.91 644.22,1073.91 646.266,1037.18 648.312,1037.18 650.358,772.234 652.405,1072.39 654.451,799.674 656.497,845.436 658.543,834.701 660.59,834.701 662.636,722.198 664.682,576.125 666.728,918.51 668.774,918.51 670.821,918.51 672.867,918.51 674.913,905.297 676.959,814.106 679.006,1154.63 681.052,1218.19 683.098,374.743 685.144,1379.41 687.19,904.423 689.237,942.213 691.283,1282.69 693.329,999.039 695.375,1056.01 697.422,1056.01 699.468,1049.02 701.514,1049.02 703.56,792.282 705.606,943.991 707.653,943.991 709.699,867.449 711.745,867.449 713.791,991.704 715.838,774.162 717.884,774.162 719.93,1056.65 721.976,830.329 724.022,830.329 726.069,830.329 728.115,830.329 730.161,830.329 732.207,830.329 734.254,1125.88 736.3,956.577 738.346,956.577 740.392,1027.51 742.438,1047.59 744.485,1226.51 746.531,1060.19 748.577,892.764 750.623,809.931 752.67,1054.87 754.716,1054.87 756.762,960.487 758.808,691.323 760.855,985.03 762.901,94.5437 764.947,1381.12 766.993,459.131 769.039,1309.53 771.086,546.977 773.132,1019.17 775.178,985.66 777.224,791.716 779.271,1122.42 781.317,896.338 783.363,1046.66 785.409,873.112 787.455,927.436 789.502,1140.57 791.548,641.015 793.594,1133.07 795.64,1133.07 797.687,694.542 799.733,892.296 801.779,997.891 803.825,763.431 805.871,1041.24 807.918,1019.2 809.964,854.153 812.01,854.153 814.056,623.507 816.103,699.017 818.149,1121.44 820.195,899.694 822.241,899.694 824.287,667.644 826.334,956.52 828.38,956.52 830.426,1124.14 832.472,788.055 834.519,744.121 836.565,744.121 838.611,865.154 840.657,581.992 842.704,581.992 844.75,1067.22 846.796,1067.22 848.842,675.827 850.888,714.394 852.935,1032.7 854.981,1048.46 857.027,897.36 859.073,1035.38 861.12,1131.23 863.166,1131.23 865.212,1131.23 867.258,1079.2 869.304,1033.83 871.351,1084.28 873.397,869.452 875.443,1007.64 877.489,1018.01 879.536,1168.45 881.582,1168.45 883.628,892.974 885.674,892.974 887.72,917.797 889.767,917.797 891.813,917.797 893.859,917.797 895.905,917.797 897.952,884.562 899.998,884.562 902.044,1063.23 904.09,1027.57 906.136,1002.33 908.183,1002.33 910.229,1382.51 912.275,1191.47 914.321,893.155 916.368,1165.91 918.414,1053.58 920.46,1104.56 922.506,1035.04 924.552,903.392 926.599,808.216 928.645,478.045 930.691,983.883 932.737,983.883 934.784,945.69 936.83,726.467 938.876,1335.12 940.922,1111.68 942.969,826.938 945.015,888.493 947.061,888.493 949.107,888.493 951.153,1137.26 953.2,1014.3 955.246,815.555 957.292,1209.76 959.338,1209.76 961.385,1209.76 963.431,970.562 965.477,991.258 967.523,991.258 969.569,991.258 971.616,934.375 973.662,1016.34 975.708,927.481 977.754,548.008 979.801,942.601 981.847,929.907 983.893,717.456 985.939,717.456 987.985,934.783 990.032,934.783 992.078,845.426 994.124,1019.07 996.17,1019.07 998.217,931.133 1000.26,1098.47 1002.31,1021.29 1004.36,1015.64 1006.4,1015.64 1008.45,1047.38 1010.49,1047.38 1012.54,1047.38 1014.59,569.991 1016.63,627.866 1018.68,1112.91 1020.73,1326.43 1022.77,935.253 1024.82,740.731 1026.86,1171.59 1028.91,697.628 1030.96,955.494 1033,1007.07 1035.05,1007.07 1037.09,1007.07 1039.14,705.993 1041.19,705.993 1043.23,817.613 1045.28,1044.55 1047.33,1044.55 1049.37,913.134 1051.42,913.134 1053.46,913.134 1055.51,1141.92 1057.56,726.767 1059.6,891.038 1061.65,1078.72 1063.7,1078.72 1065.74,1008.97 1067.79,611.629 1069.83,1031.07 1071.88,665.591 1073.93,817.426 1075.97,817.426 1078.02,784.523 1080.07,851.93 1082.11,851.93 1084.16,851.93 1086.2,711.216 1088.25,1209.24 1090.3,923.241 1092.34,719.452 1094.39,719.452 1096.44,1020.52 1098.48,822.24 1100.53,988.412 1102.57,937.557 1104.62,893.587 1106.67,893.587 1108.71,812.046 1110.76,794.711 1112.81,908.874 1114.85,908.874 1116.9,895.241 1118.94,578.459 1120.99,694.716 1123.04,694.716 1125.08,861.907 1127.13,861.907 1129.17,861.907 1131.22,861.907 1133.27,1355.42 1135.31,947.971 1137.36,804.24 1139.41,936.646 1141.45,936.646 1143.5,1227.55 1145.54,586.119 1147.59,1251.81 1149.64,1002.22 1151.68,1002.22 1153.73,1002.22 1155.78,831.461 1157.82,893.483 1159.87,904.022 1161.91,904.022 1163.96,904.022 1166.01,1088.35 1168.05,846.69 1170.1,846.69 1172.15,1139.78 1174.19,1003.88 1176.24,1283.03 1178.28,1004.65 1180.33,1004.65 1182.38,878.798 1184.42,836.626 1186.47,1064.58 1188.52,1064.58 1190.56,951.682 1192.61,559.885 1194.65,941.193 1196.7,941.193 1198.75,765.102 1200.79,1085.61 1202.84,871.383 1204.89,871.383 1206.93,1038.9 1208.98,734.912 1211.02,1087.07 1213.07,868.458 1215.12,1212.94 1217.16,1212.94 1219.21,1326.63 1221.26,850.384 1223.3,1330.55 1225.35,987.571 1227.39,832.233 1229.44,832.233 1231.49,832.233 1233.53,789.786 1235.58,1004.39 1237.62,711.26 1239.67,711.26 1241.72,1202.77 1243.76,818.222 1245.81,818.222 1247.86,1128.81 1249.9,1147.08 1251.95,986.185 1253.99,818.73 1256.04,1087.3 1258.09,527.195 1260.13,933.741 1262.18,933.741 1264.23,886.39 1266.27,398.261 1268.32,1084.01 1270.36,1084.01 1272.41,689.786 1274.46,689.786 1276.5,896.425 1278.55,1034.49 1280.6,733.501 1282.64,1088.2 1284.69,726.561 1286.73,726.561 1288.78,726.561 1290.83,780.369 1292.87,627.227 1294.92,1154.67 1296.97,1053.6 1299.01,719.525 1301.06,719.525 1303.1,719.525 1305.15,1365.63 1307.2,1130.53 1309.24,682.332 1311.29,1162.39 1313.34,1212.41 1315.38,539.314 1317.43,715.236 1319.47,879.594 1321.52,1198.07 1323.57,1313.51 1325.61,1317.81 1327.66,1105.26 1329.7,770.235 1331.75,1015.05 1333.8,1015.05 1335.84,1015.05 1337.89,925.089 1339.94,800.078 1341.98,742.505 1344.03,777.795 1346.07,935.553 1348.12,935.553 1350.17,875.034 1352.21,875.034 1354.26,875.034 1356.31,1176.41 1358.35,731.621 1360.4,1044.51 1362.44,746.154 1364.49,664.513 1366.54,1148.08 1368.58,1148.08 1370.63,721.824 1372.68,1126.18 1374.72,780.604 1376.77,604.079 1378.81,903.191 1380.86,903.191 1382.91,612.23 1384.95,612.23 1387,493.987 1389.05,493.987 1391.09,908.585 1393.14,749.67 1395.18,1146.37 1397.23,807.059 1399.28,766.133 1401.32,766.133 1403.37,706.063 1405.42,568.78 1407.46,938.682 1409.51,938.682 1411.55,1103.31 1413.6,445.19 1415.65,845.322 1417.69,845.322 1419.74,1135.93 1421.79,1135.93 1423.83,1062.76 1425.88,1025.96 1427.92,963.705 1429.97,1013.08 1432.02,940.503 1434.06,555.541 1436.11,892.243 1438.15,1123.08 1440.2,630.429 1442.25,764.122 1444.29,764.122 1446.34,764.122 1448.39,639.16 1450.43,639.16 1452.48,858.608 1454.52,775.312 1456.57,775.312 1458.62,775.312 1460.66,873.859 1462.71,1043.89 1464.76,948.155 1466.8,867.718 1468.85,796.845 1470.89,709.39 1472.94,906.228 1474.99,791.813 1477.03,1144.76 1479.08,1060.06 1481.13,843.321 1483.17,1358.18 1485.22,965.6 1487.26,965.6 1489.31,965.6 1491.36,1241.81 1493.4,566.229 1495.45,1081.26 1497.5,1054.82 1499.54,670.885 1501.59,896.515 1503.63,818.486 1505.68,1026.95 1507.73,1026.95 1509.77,928.802 1511.82,928.802 1513.87,928.802 1515.91,928.802 1517.96,928.802 1520,928.802 1522.05,1231.43 1524.1,923.584 1526.14,981.182 1528.19,575.889 1530.23,921.777 1532.28,1084.43 1534.33,453.285 1536.37,453.285 1538.42,1068.58 1540.47,843.452 1542.51,653.503 1544.56,653.503 1546.6,973.088 1548.65,973.088 1550.7,801.125 1552.74,801.125 1554.79,1186.4 1556.84,703.565 1558.88,567.479 1560.93,1204.65 1562.97,847.152 1565.02,668.366 1567.07,668.366 1569.11,988.057 1571.16,875.408 1573.21,875.408 1575.25,1034.17 1577.3,441.028 1579.34,666.504 1581.39,1300.96 1583.44,1147.02 1585.48,774.956 1587.53,1023.76 1589.58,1023.76 1591.62,993.414 1593.67,993.414 1595.71,993.414 1597.76,516.752 1599.81,855.358 1601.85,1062.55 1603.9,1062.55 1605.95,1040.19 1607.99,1040.19 1610.04,1040.19 1612.08,1173.13 1614.13,1173.13 1616.18,755.034 1618.22,997.248 1620.27,799.526 1622.32,799.526 1624.36,1078.69 1626.41,1045.57 1628.45,1045.57 1630.5,1032.11 1632.55,1032.11 1634.59,631.051 1636.64,595.105 1638.68,1092.87 1640.73,1092.87 1642.78,826.786 1644.82,826.786 1646.87,891.778 1648.92,692.17 1650.96,692.17 1653.01,902.314 1655.05,902.314 1657.1,875.545 1659.15,716.029 1661.19,716.029 1663.24,798.319 1665.29,1207.63 1667.33,1212.49 1669.38,881.296 1671.42,1087.56 1673.47,531.867 1675.52,727.816 1677.56,722.601 1679.61,837.885 1681.66,843.5 1683.7,817.679 1685.75,817.679 1687.79,773.136 1689.84,773.136 1691.89,773.136 1693.93,1102.33 1695.98,886.2 1698.03,886.2 1700.07,87.9763 1702.12,926.568 1704.16,677.511 1706.21,1122.45 1708.26,899.928 1710.3,781.916 1712.35,910.356 1714.4,873.375 1716.44,873.375 1718.49,864.456 1720.53,1024.25 1722.58,1024.25 1724.63,826.653 1726.67,664.015 1728.72,1183.55 1730.77,637.842 1732.81,852.211 1734.86,933.493 1736.9,1046.96 1738.95,906.44 1741,906.44 1743.04,1048.93 1745.09,996.818 1747.13,244.782 1749.18,1385.34 1751.23,1385.34 1753.27,580.978 1755.32,914.952 1757.37,972.838 1759.41,872.988 1761.46,914.254 1763.5,1078.47 1765.55,845.248 1767.6,845.248 1769.64,1074 1771.69,860.834 1773.74,976.12 1775.78,1034.29 1777.83,711.003 1779.87,711.003 1781.92,1396.13 1783.97,281.564 1786.01,774.032 1788.06,755.578 1790.11,549.125 1792.15,1016.35 1794.2,860.028 1796.24,1023.24 1798.29,769.144 1800.34,599.43 1802.38,1237.67 1804.43,584.215 1806.48,1269.85 1808.52,849.068 1810.57,849.068 1812.61,929.008 1814.66,929.008 1816.71,929.008 1818.75,1091.51 1820.8,1049.89 1822.85,756.532 1824.89,786.167 1826.94,779.947 1828.98,906.373 1831.03,906.373 1833.08,1020.76 1835.12,1020.76 1837.17,1020.76 1839.21,785.977 1841.26,823.361 1843.31,823.361 1845.35,823.361 1847.4,823.361 1849.45,823.361 1851.49,823.361 1853.54,1003.88 1855.58,782.729 1857.63,1112.87 1859.68,958.328 1861.72,768.916 1863.77,624.122 1865.82,1061.37 1867.86,1061.37 1869.91,943.143 1871.95,855.31 1874,855.31 1876.05,855.31 1878.09,969.552 1880.14,1242.52 1882.19,1075.63 1884.23,624.28 1886.28,677.427 1888.32,822.177 1890.37,1183.25 1892.42,1116.24 1894.46,757.198 1896.51,765.125 1898.56,765.125 1900.6,765.125 1902.65,1240.82 1904.69,1240.82 1906.74,1164.49 1908.79,854.396 1910.83,857.357 1912.88,903.078 1914.93,864.808 1916.97,864.808 1919.02,864.808 1921.06,864.808 1923.11,692.347 1925.16,692.347 1927.2,692.347 1929.25,692.347 1931.3,1127.26 1933.34,944.995 1935.39,944.995 1937.43,944.995 1939.48,944.995 1941.53,755.862 1943.57,984.479 1945.62,1032.94 1947.66,1238.48 1949.71,814.493 1951.76,970.037 1953.8,970.037 1955.85,970.037 1957.9,970.037 1959.94,970.037 1961.99,1130.84 1964.03,1130.84 1966.08,1094.39 1968.13,1094.39 1970.17,993.09 1972.22,677.066 1974.27,731.711 1976.31,731.711 1978.36,1069.92 1980.4,1126.45 1982.45,684.901 1984.5,1081.17 1986.54,1081.17 1988.59,1184.91 1990.64,1075.9 1992.68,542.612 1994.73,1014.15 1996.77,763.809 1998.82,810.822 2000.87,812.056 2002.91,812.056 2004.96,1011.97 2007.01,1011.97 2009.05,956.771 2011.1,854.614 2013.14,854.614 2015.19,736.551 2017.24,736.551 2019.28,968.916 2021.33,785.103 2023.38,1206.09 2025.42,806.9 2027.47,806.9 2029.51,1005.2 2031.56,1056.03 2033.61,940.672 2035.65,615.923 2037.7,689.284 2039.74,1445.72 2041.79,924.891 2043.84,924.891 2045.88,1088.4 2047.93,1002.79 2049.98,1002.79 2052.02,990.193 2054.07,884.049 2056.11,928.601 2058.16,1283.28 2060.21,1329.78 2062.25,968.941 2064.3,968.941 2066.35,1007.46 2068.39,688.496 2070.44,858.238 2072.48,828.599 2074.53,825.474 2076.58,457.024 2078.62,986.136 2080.67,986.136 2082.72,986.136 2084.76,986.136 2086.81,715.654 2088.85,977.313 2090.9,977.313 2092.95,661.812 2094.99,907.803 2097.04,675.938 2099.09,999.701 2101.13,780.06 2103.18,780.06 2105.22,598.758 2107.27,738.977 2109.32,738.977 2111.36,747.02 2113.41,747.02 2115.46,1043.96 2117.5,1043.96 2119.55,1043.96 2121.59,1043.96 2123.64,1043.96 2125.69,1043.96 2127.73,943.365 2129.78,770.584 2131.83,595.832 2133.87,984.784 2135.92,984.784 2137.96,621.516 2140.01,1227.9 2142.06,871.359 2144.1,871.359 2146.15,970.191 2148.19,970.191 2150.24,970.191 2152.29,970.191 2154.33,970.191 2156.38,1186.82 2158.43,934.548 2160.47,934.548 2162.52,846.397 2164.56,884.95 2166.61,935.3 2168.66,864.967 2170.7,864.967 2172.75,864.967 2174.8,1216.61 2176.84,818.048 2178.89,622.682 2180.93,797.357 2182.98,797.357 2185.03,941.661 2187.07,831.355 2189.12,831.355 2191.17,1236.48 2193.21,1046.34 2195.26,1104.53 2197.3,1104.53 2199.35,665.17 2201.4,656.5 2203.44,631.088 2205.49,948.47 2207.54,804.454 2209.58,773.613 2211.63,773.613 2213.67,873.559 2215.72,873.559 2217.77,873.559 2219.81,563.56 2221.86,732.98 2223.91,725.399 2225.95,763.85 2228,682.813 2230.04,1313.55 2232.09,1066.64 2234.14,885.49 2236.18,885.49 2238.23,863.104 2240.27,863.72 2242.32,1060.89 2244.37,1157.69 2246.41,886.272 2248.46,757.188 2250.51,757.188 2252.55,757.188 2254.6,603.209 2256.64,665.017 2258.69,574.8 2260.74,574.8 2262.78,1184.23 2264.83,1184.23 2266.88,1203.4 2268.92,1203.4 2270.97,1040.97 2273.01,1040.97 2275.06,1040.97 2277.11,1040.97 2279.15,1040.97 2281.2,1040.97 2283.25,836.258 2285.29,836.258 2287.34,1085.38 2289.38,785.941 2291.43,946.845 "/>
<path clip-path="url(#clip090)" d="M2011.42 198.898 L2280.53 198.898 L2280.53 95.2176 L2011.42 95.2176  Z" fill="#ffffff" fill-rule="evenodd" fill-opacity="1"/>
<polyline clip-path="url(#clip090)" style="stroke:#000000; stroke-linecap:round; stroke-linejoin:round; stroke-width:4; stroke-opacity:1; fill:none" points="2011.42,198.898 2280.53,198.898 2280.53,95.2176 2011.42,95.2176 2011.42,198.898 "/>
<polyline clip-path="url(#clip090)" style="stroke:#009af9; stroke-linecap:round; stroke-linejoin:round; stroke-width:4; stroke-opacity:1; fill:none" points="2035.49,147.058 2179.95,147.058 "/>
<path clip-path="url(#clip090)" d="M2217.86 166.745 Q2216.06 171.375 2214.35 172.787 Q2212.63 174.199 2209.76 174.199 L2206.36 174.199 L2206.36 170.634 L2208.86 170.634 Q2210.62 170.634 2211.59 169.8 Q2212.56 168.967 2213.74 165.865 L2214.51 163.921 L2204.02 138.412 L2208.54 138.412 L2216.64 158.689 L2224.74 138.412 L2229.25 138.412 L2217.86 166.745 Z" fill="#000000" fill-rule="nonzero" fill-opacity="1" /><path clip-path="url(#clip090)" d="M2236.55 160.402 L2244.18 160.402 L2244.18 134.037 L2235.87 135.703 L2235.87 131.444 L2244.14 129.778 L2248.81 129.778 L2248.81 160.402 L2256.45 160.402 L2256.45 164.338 L2236.55 164.338 L2236.55 160.402 Z" fill="#000000" fill-rule="nonzero" fill-opacity="1" /></svg>
