<?xml version="1.0" encoding="utf-8"?>
<svg xmlns="http://www.w3.org/2000/svg" xmlns:xlink="http://www.w3.org/1999/xlink" width="600" height="400" viewBox="0 0 2400 1600">
<defs>
  <clipPath id="clip980">
    <rect x="0" y="0" width="2400" height="1600"/>
  </clipPath>
</defs>
<path clip-path="url(#clip980)" d="M0 1600 L2400 1600 L2400 0 L0 0  Z" fill="#ffffff" fill-rule="evenodd" fill-opacity="1"/>
<defs>
  <clipPath id="clip981">
    <rect x="480" y="0" width="1681" height="1600"/>
  </clipPath>
</defs>
<path clip-path="url(#clip980)" d="M156.251 1486.45 L2352.76 1486.45 L2352.76 47.2441 L156.251 47.2441  Z" fill="#ffffff" fill-rule="evenodd" fill-opacity="1"/>
<defs>
  <clipPath id="clip982">
    <rect x="156" y="47" width="2198" height="1440"/>
  </clipPath>
</defs>
<polyline clip-path="url(#clip982)" style="stroke:#000000; stroke-linecap:round; stroke-linejoin:round; stroke-width:2; stroke-opacity:0.1; fill:none" points="216.342,1486.45 216.342,47.2441 "/>
<polyline clip-path="url(#clip982)" style="stroke:#000000; stroke-linecap:round; stroke-linejoin:round; stroke-width:2; stroke-opacity:0.1; fill:none" points="734.904,1486.45 734.904,47.2441 "/>
<polyline clip-path="url(#clip982)" style="stroke:#000000; stroke-linecap:round; stroke-linejoin:round; stroke-width:2; stroke-opacity:0.1; fill:none" points="1253.47,1486.45 1253.47,47.2441 "/>
<polyline clip-path="url(#clip982)" style="stroke:#000000; stroke-linecap:round; stroke-linejoin:round; stroke-width:2; stroke-opacity:0.1; fill:none" points="1772.03,1486.45 1772.03,47.2441 "/>
<polyline clip-path="url(#clip982)" style="stroke:#000000; stroke-linecap:round; stroke-linejoin:round; stroke-width:2; stroke-opacity:0.1; fill:none" points="2290.59,1486.45 2290.59,47.2441 "/>
<polyline clip-path="url(#clip982)" style="stroke:#000000; stroke-linecap:round; stroke-linejoin:round; stroke-width:2; stroke-opacity:0.1; fill:none" points="156.251,1279.05 2352.76,1279.05 "/>
<polyline clip-path="url(#clip982)" style="stroke:#000000; stroke-linecap:round; stroke-linejoin:round; stroke-width:2; stroke-opacity:0.1; fill:none" points="156.251,1015.84 2352.76,1015.84 "/>
<polyline clip-path="url(#clip982)" style="stroke:#000000; stroke-linecap:round; stroke-linejoin:round; stroke-width:2; stroke-opacity:0.1; fill:none" points="156.251,752.644 2352.76,752.644 "/>
<polyline clip-path="url(#clip982)" style="stroke:#000000; stroke-linecap:round; stroke-linejoin:round; stroke-width:2; stroke-opacity:0.1; fill:none" points="156.251,489.442 2352.76,489.442 "/>
<polyline clip-path="url(#clip982)" style="stroke:#000000; stroke-linecap:round; stroke-linejoin:round; stroke-width:2; stroke-opacity:0.1; fill:none" points="156.251,226.241 2352.76,226.241 "/>
<polyline clip-path="url(#clip980)" style="stroke:#000000; stroke-linecap:round; stroke-linejoin:round; stroke-width:4; stroke-opacity:1; fill:none" points="156.251,1486.45 2352.76,1486.45 "/>
<polyline clip-path="url(#clip980)" style="stroke:#000000; stroke-linecap:round; stroke-linejoin:round; stroke-width:4; stroke-opacity:1; fill:none" points="216.342,1486.45 216.342,1467.55 "/>
<polyline clip-path="url(#clip980)" style="stroke:#000000; stroke-linecap:round; stroke-linejoin:round; stroke-width:4; stroke-opacity:1; fill:none" points="734.904,1486.45 734.904,1467.55 "/>
<polyline clip-path="url(#clip980)" style="stroke:#000000; stroke-linecap:round; stroke-linejoin:round; stroke-width:4; stroke-opacity:1; fill:none" points="1253.47,1486.45 1253.47,1467.55 "/>
<polyline clip-path="url(#clip980)" style="stroke:#000000; stroke-linecap:round; stroke-linejoin:round; stroke-width:4; stroke-opacity:1; fill:none" points="1772.03,1486.45 1772.03,1467.55 "/>
<polyline clip-path="url(#clip980)" style="stroke:#000000; stroke-linecap:round; stroke-linejoin:round; stroke-width:4; stroke-opacity:1; fill:none" points="2290.59,1486.45 2290.59,1467.55 "/>
<path clip-path="url(#clip980)" d="M216.342 1517.37 Q212.731 1517.37 210.902 1520.93 Q209.097 1524.47 209.097 1531.6 Q209.097 1538.71 210.902 1542.27 Q212.731 1545.82 216.342 1545.82 Q219.976 1545.82 221.782 1542.27 Q223.61 1538.71 223.61 1531.6 Q223.61 1524.47 221.782 1520.93 Q219.976 1517.37 216.342 1517.37 M216.342 1513.66 Q222.152 1513.66 225.208 1518.27 Q228.286 1522.85 228.286 1531.6 Q228.286 1540.33 225.208 1544.94 Q222.152 1549.52 216.342 1549.52 Q210.532 1549.52 207.453 1544.94 Q204.398 1540.33 204.398 1531.6 Q204.398 1522.85 207.453 1518.27 Q210.532 1513.66 216.342 1513.66 Z" fill="#000000" fill-rule="nonzero" fill-opacity="1" /><path clip-path="url(#clip980)" d="M698.596 1544.91 L714.916 1544.91 L714.916 1548.85 L692.972 1548.85 L692.972 1544.91 Q695.634 1542.16 700.217 1537.53 Q704.823 1532.88 706.004 1531.53 Q708.249 1529.01 709.129 1527.27 Q710.032 1525.51 710.032 1523.82 Q710.032 1521.07 708.087 1519.33 Q706.166 1517.6 703.064 1517.6 Q700.865 1517.6 698.411 1518.36 Q695.981 1519.13 693.203 1520.68 L693.203 1515.95 Q696.027 1514.82 698.481 1514.24 Q700.934 1513.66 702.971 1513.66 Q708.342 1513.66 711.536 1516.35 Q714.731 1519.03 714.731 1523.52 Q714.731 1525.65 713.92 1527.57 Q713.133 1529.47 711.027 1532.07 Q710.448 1532.74 707.346 1535.95 Q704.245 1539.15 698.596 1544.91 Z" fill="#000000" fill-rule="nonzero" fill-opacity="1" /><path clip-path="url(#clip980)" d="M724.777 1514.29 L743.133 1514.29 L743.133 1518.22 L729.059 1518.22 L729.059 1526.7 Q730.078 1526.35 731.096 1526.19 Q732.115 1526 733.133 1526 Q738.92 1526 742.3 1529.17 Q745.68 1532.34 745.68 1537.76 Q745.68 1543.34 742.207 1546.44 Q738.735 1549.52 732.416 1549.52 Q730.24 1549.52 727.971 1549.15 Q725.726 1548.78 723.319 1548.04 L723.319 1543.34 Q725.402 1544.47 727.624 1545.03 Q729.846 1545.58 732.323 1545.58 Q736.328 1545.58 738.666 1543.48 Q741.004 1541.37 741.004 1537.76 Q741.004 1534.15 738.666 1532.04 Q736.328 1529.94 732.323 1529.94 Q730.448 1529.94 728.573 1530.35 Q726.721 1530.77 724.777 1531.65 L724.777 1514.29 Z" fill="#000000" fill-rule="nonzero" fill-opacity="1" /><path clip-path="url(#clip980)" d="M764.892 1517.37 Q761.281 1517.37 759.453 1520.93 Q757.647 1524.47 757.647 1531.6 Q757.647 1538.71 759.453 1542.27 Q761.281 1545.82 764.892 1545.82 Q768.527 1545.82 770.332 1542.27 Q772.161 1538.71 772.161 1531.6 Q772.161 1524.47 770.332 1520.93 Q768.527 1517.37 764.892 1517.37 M764.892 1513.66 Q770.703 1513.66 773.758 1518.27 Q776.837 1522.85 776.837 1531.6 Q776.837 1540.33 773.758 1544.94 Q770.703 1549.52 764.892 1549.52 Q759.082 1549.52 756.004 1544.94 Q752.948 1540.33 752.948 1531.6 Q752.948 1522.85 756.004 1518.27 Q759.082 1513.66 764.892 1513.66 Z" fill="#000000" fill-rule="nonzero" fill-opacity="1" /><path clip-path="url(#clip980)" d="M1213.08 1514.29 L1231.44 1514.29 L1231.44 1518.22 L1217.37 1518.22 L1217.37 1526.7 Q1218.39 1526.35 1219.4 1526.19 Q1220.42 1526 1221.44 1526 Q1227.23 1526 1230.61 1529.17 Q1233.99 1532.34 1233.99 1537.76 Q1233.99 1543.34 1230.52 1546.44 Q1227.04 1549.52 1220.72 1549.52 Q1218.55 1549.52 1216.28 1549.15 Q1214.03 1548.78 1211.63 1548.04 L1211.63 1543.34 Q1213.71 1544.47 1215.93 1545.03 Q1218.15 1545.58 1220.63 1545.58 Q1224.64 1545.58 1226.97 1543.48 Q1229.31 1541.37 1229.31 1537.76 Q1229.31 1534.15 1226.97 1532.04 Q1224.64 1529.94 1220.63 1529.94 Q1218.76 1529.94 1216.88 1530.35 Q1215.03 1530.77 1213.08 1531.65 L1213.08 1514.29 Z" fill="#000000" fill-rule="nonzero" fill-opacity="1" /><path clip-path="url(#clip980)" d="M1253.2 1517.37 Q1249.59 1517.37 1247.76 1520.93 Q1245.95 1524.47 1245.95 1531.6 Q1245.95 1538.71 1247.76 1542.27 Q1249.59 1545.82 1253.2 1545.82 Q1256.83 1545.82 1258.64 1542.27 Q1260.47 1538.71 1260.47 1531.6 Q1260.47 1524.47 1258.64 1520.93 Q1256.83 1517.37 1253.2 1517.37 M1253.2 1513.66 Q1259.01 1513.66 1262.07 1518.27 Q1265.14 1522.85 1265.14 1531.6 Q1265.14 1540.33 1262.07 1544.94 Q1259.01 1549.52 1253.2 1549.52 Q1247.39 1549.52 1244.31 1544.94 Q1241.26 1540.33 1241.26 1531.6 Q1241.26 1522.85 1244.31 1518.27 Q1247.39 1513.66 1253.2 1513.66 Z" fill="#000000" fill-rule="nonzero" fill-opacity="1" /><path clip-path="url(#clip980)" d="M1283.36 1517.37 Q1279.75 1517.37 1277.92 1520.93 Q1276.12 1524.47 1276.12 1531.6 Q1276.12 1538.71 1277.92 1542.27 Q1279.75 1545.82 1283.36 1545.82 Q1287 1545.82 1288.8 1542.27 Q1290.63 1538.71 1290.63 1531.6 Q1290.63 1524.47 1288.8 1520.93 Q1287 1517.37 1283.36 1517.37 M1283.36 1513.66 Q1289.17 1513.66 1292.23 1518.27 Q1295.31 1522.85 1295.31 1531.6 Q1295.31 1540.33 1292.23 1544.94 Q1289.17 1549.52 1283.36 1549.52 Q1277.55 1549.52 1274.47 1544.94 Q1271.42 1540.33 1271.42 1531.6 Q1271.42 1522.85 1274.47 1518.27 Q1277.55 1513.66 1283.36 1513.66 Z" fill="#000000" fill-rule="nonzero" fill-opacity="1" /><path clip-path="url(#clip980)" d="M1730.3 1514.29 L1752.53 1514.29 L1752.53 1516.28 L1739.98 1548.85 L1735.1 1548.85 L1746.9 1518.22 L1730.3 1518.22 L1730.3 1514.29 Z" fill="#000000" fill-rule="nonzero" fill-opacity="1" /><path clip-path="url(#clip980)" d="M1761.69 1514.29 L1780.05 1514.29 L1780.05 1518.22 L1765.98 1518.22 L1765.98 1526.7 Q1766.99 1526.35 1768.01 1526.19 Q1769.03 1526 1770.05 1526 Q1775.84 1526 1779.22 1529.17 Q1782.6 1532.34 1782.6 1537.76 Q1782.6 1543.34 1779.12 1546.44 Q1775.65 1549.52 1769.33 1549.52 Q1767.16 1549.52 1764.89 1549.15 Q1762.64 1548.78 1760.23 1548.04 L1760.23 1543.34 Q1762.32 1544.47 1764.54 1545.03 Q1766.76 1545.58 1769.24 1545.58 Q1773.24 1545.58 1775.58 1543.48 Q1777.92 1541.37 1777.92 1537.76 Q1777.92 1534.15 1775.58 1532.04 Q1773.24 1529.94 1769.24 1529.94 Q1767.36 1529.94 1765.49 1530.35 Q1763.64 1530.77 1761.69 1531.65 L1761.69 1514.29 Z" fill="#000000" fill-rule="nonzero" fill-opacity="1" /><path clip-path="url(#clip980)" d="M1801.81 1517.37 Q1798.2 1517.37 1796.37 1520.93 Q1794.56 1524.47 1794.56 1531.6 Q1794.56 1538.71 1796.37 1542.27 Q1798.2 1545.82 1801.81 1545.82 Q1805.44 1545.82 1807.25 1542.27 Q1809.08 1538.71 1809.08 1531.6 Q1809.08 1524.47 1807.25 1520.93 Q1805.44 1517.37 1801.81 1517.37 M1801.81 1513.66 Q1807.62 1513.66 1810.67 1518.27 Q1813.75 1522.85 1813.75 1531.6 Q1813.75 1540.33 1810.67 1544.94 Q1807.62 1549.52 1801.81 1549.52 Q1796 1549.52 1792.92 1544.94 Q1789.86 1540.33 1789.86 1531.6 Q1789.86 1522.85 1792.92 1518.27 Q1796 1513.66 1801.81 1513.66 Z" fill="#000000" fill-rule="nonzero" fill-opacity="1" /><path clip-path="url(#clip980)" d="M2235.12 1544.91 L2242.76 1544.91 L2242.76 1518.55 L2234.45 1520.21 L2234.45 1515.95 L2242.71 1514.29 L2247.38 1514.29 L2247.38 1544.91 L2255.02 1544.91 L2255.02 1548.85 L2235.12 1548.85 L2235.12 1544.91 Z" fill="#000000" fill-rule="nonzero" fill-opacity="1" /><path clip-path="url(#clip980)" d="M2274.47 1517.37 Q2270.86 1517.37 2269.03 1520.93 Q2267.22 1524.47 2267.22 1531.6 Q2267.22 1538.71 2269.03 1542.27 Q2270.86 1545.82 2274.47 1545.82 Q2278.1 1545.82 2279.91 1542.27 Q2281.74 1538.71 2281.74 1531.6 Q2281.74 1524.47 2279.91 1520.93 Q2278.1 1517.37 2274.47 1517.37 M2274.47 1513.66 Q2280.28 1513.66 2283.33 1518.27 Q2286.41 1522.85 2286.41 1531.6 Q2286.41 1540.33 2283.33 1544.94 Q2280.28 1549.52 2274.47 1549.52 Q2268.66 1549.52 2265.58 1544.94 Q2262.52 1540.33 2262.52 1531.6 Q2262.52 1522.85 2265.58 1518.27 Q2268.66 1513.66 2274.47 1513.66 Z" fill="#000000" fill-rule="nonzero" fill-opacity="1" /><path clip-path="url(#clip980)" d="M2304.63 1517.37 Q2301.02 1517.37 2299.19 1520.93 Q2297.38 1524.47 2297.38 1531.6 Q2297.38 1538.71 2299.19 1542.27 Q2301.02 1545.82 2304.63 1545.82 Q2308.26 1545.82 2310.07 1542.27 Q2311.9 1538.71 2311.9 1531.6 Q2311.9 1524.47 2310.07 1520.93 Q2308.26 1517.37 2304.63 1517.37 M2304.63 1513.66 Q2310.44 1513.66 2313.5 1518.27 Q2316.57 1522.85 2316.57 1531.6 Q2316.57 1540.33 2313.5 1544.94 Q2310.44 1549.52 2304.63 1549.52 Q2298.82 1549.52 2295.74 1544.94 Q2292.69 1540.33 2292.69 1531.6 Q2292.69 1522.85 2295.74 1518.27 Q2298.82 1513.66 2304.63 1513.66 Z" fill="#000000" fill-rule="nonzero" fill-opacity="1" /><path clip-path="url(#clip980)" d="M2334.79 1517.37 Q2331.18 1517.37 2329.35 1520.93 Q2327.55 1524.47 2327.55 1531.6 Q2327.55 1538.71 2329.35 1542.27 Q2331.18 1545.82 2334.79 1545.82 Q2338.43 1545.82 2340.23 1542.27 Q2342.06 1538.71 2342.06 1531.6 Q2342.06 1524.47 2340.23 1520.93 Q2338.43 1517.37 2334.79 1517.37 M2334.79 1513.66 Q2340.6 1513.66 2343.66 1518.27 Q2346.74 1522.85 2346.74 1531.6 Q2346.74 1540.33 2343.66 1544.94 Q2340.6 1549.52 2334.79 1549.52 Q2328.98 1549.52 2325.9 1544.94 Q2322.85 1540.33 2322.85 1531.6 Q2322.85 1522.85 2325.9 1518.27 Q2328.98 1513.66 2334.79 1513.66 Z" fill="#000000" fill-rule="nonzero" fill-opacity="1" /><polyline clip-path="url(#clip980)" style="stroke:#000000; stroke-linecap:round; stroke-linejoin:round; stroke-width:4; stroke-opacity:1; fill:none" points="156.251,1486.45 156.251,47.2441 "/>
<polyline clip-path="url(#clip980)" style="stroke:#000000; stroke-linecap:round; stroke-linejoin:round; stroke-width:4; stroke-opacity:1; fill:none" points="156.251,1279.05 175.149,1279.05 "/>
<polyline clip-path="url(#clip980)" style="stroke:#000000; stroke-linecap:round; stroke-linejoin:round; stroke-width:4; stroke-opacity:1; fill:none" points="156.251,1015.84 175.149,1015.84 "/>
<polyline clip-path="url(#clip980)" style="stroke:#000000; stroke-linecap:round; stroke-linejoin:round; stroke-width:4; stroke-opacity:1; fill:none" points="156.251,752.644 175.149,752.644 "/>
<polyline clip-path="url(#clip980)" style="stroke:#000000; stroke-linecap:round; stroke-linejoin:round; stroke-width:4; stroke-opacity:1; fill:none" points="156.251,489.442 175.149,489.442 "/>
<polyline clip-path="url(#clip980)" style="stroke:#000000; stroke-linecap:round; stroke-linejoin:round; stroke-width:4; stroke-opacity:1; fill:none" points="156.251,226.241 175.149,226.241 "/>
<path clip-path="url(#clip980)" d="M53.7236 1292.39 L61.3624 1292.39 L61.3624 1266.03 L53.0523 1267.69 L53.0523 1263.43 L61.3161 1261.77 L65.992 1261.77 L65.992 1292.39 L73.6309 1292.39 L73.6309 1296.33 L53.7236 1296.33 L53.7236 1292.39 Z" fill="#000000" fill-rule="nonzero" fill-opacity="1" /><path clip-path="url(#clip980)" d="M83.0753 1290.45 L87.9595 1290.45 L87.9595 1296.33 L83.0753 1296.33 L83.0753 1290.45 Z" fill="#000000" fill-rule="nonzero" fill-opacity="1" /><path clip-path="url(#clip980)" d="M108.723 1277.18 Q105.575 1277.18 103.723 1279.34 Q101.895 1281.49 101.895 1285.24 Q101.895 1288.97 103.723 1291.14 Q105.575 1293.29 108.723 1293.29 Q111.871 1293.29 113.7 1291.14 Q115.552 1288.97 115.552 1285.24 Q115.552 1281.49 113.7 1279.34 Q111.871 1277.18 108.723 1277.18 M118.006 1262.53 L118.006 1266.79 Q116.246 1265.96 114.441 1265.52 Q112.658 1265.08 110.899 1265.08 Q106.27 1265.08 103.816 1268.2 Q101.385 1271.33 101.038 1277.65 Q102.404 1275.63 104.464 1274.57 Q106.524 1273.48 109.001 1273.48 Q114.209 1273.48 117.219 1276.65 Q120.251 1279.8 120.251 1285.24 Q120.251 1290.56 117.103 1293.78 Q113.955 1297 108.723 1297 Q102.728 1297 99.5567 1292.41 Q96.3854 1287.81 96.3854 1279.08 Q96.3854 1270.89 100.274 1266.03 Q104.163 1261.14 110.714 1261.14 Q112.473 1261.14 114.256 1261.49 Q116.061 1261.84 118.006 1262.53 Z" fill="#000000" fill-rule="nonzero" fill-opacity="1" /><path clip-path="url(#clip980)" d="M53.9782 1029.19 L61.6171 1029.19 L61.6171 1002.82 L53.3069 1004.49 L53.3069 1000.23 L61.5708 998.565 L66.2467 998.565 L66.2467 1029.19 L73.8855 1029.19 L73.8855 1033.12 L53.9782 1033.12 L53.9782 1029.19 Z" fill="#000000" fill-rule="nonzero" fill-opacity="1" /><path clip-path="url(#clip980)" d="M83.3299 1027.25 L88.2141 1027.25 L88.2141 1033.12 L83.3299 1033.12 L83.3299 1027.25 Z" fill="#000000" fill-rule="nonzero" fill-opacity="1" /><path clip-path="url(#clip980)" d="M108.399 1016.71 Q105.066 1016.71 103.145 1018.5 Q101.246 1020.28 101.246 1023.4 Q101.246 1026.53 103.145 1028.31 Q105.066 1030.09 108.399 1030.09 Q111.733 1030.09 113.654 1028.31 Q115.575 1026.5 115.575 1023.4 Q115.575 1020.28 113.654 1018.5 Q111.756 1016.71 108.399 1016.71 M103.723 1014.72 Q100.714 1013.98 99.0243 1011.92 Q97.3576 1009.86 97.3576 1006.9 Q97.3576 1002.75 100.297 1000.35 Q103.26 997.94 108.399 997.94 Q113.561 997.94 116.501 1000.35 Q119.441 1002.75 119.441 1006.9 Q119.441 1009.86 117.751 1011.92 Q116.084 1013.98 113.098 1014.72 Q116.478 1015.51 118.353 1017.8 Q120.251 1020.09 120.251 1023.4 Q120.251 1028.43 117.172 1031.11 Q114.117 1033.8 108.399 1033.8 Q102.682 1033.8 99.603 1031.11 Q96.5474 1028.43 96.5474 1023.4 Q96.5474 1020.09 98.4456 1017.8 Q100.344 1015.51 103.723 1014.72 M102.01 1007.34 Q102.01 1010.02 103.677 1011.53 Q105.367 1013.03 108.399 1013.03 Q111.408 1013.03 113.098 1011.53 Q114.811 1010.02 114.811 1007.34 Q114.811 1004.65 113.098 1003.15 Q111.408 1001.64 108.399 1001.64 Q105.367 1001.64 103.677 1003.15 Q102.01 1004.65 102.01 1007.34 Z" fill="#000000" fill-rule="nonzero" fill-opacity="1" /><path clip-path="url(#clip980)" d="M57.1032 765.989 L73.4226 765.989 L73.4226 769.924 L51.4782 769.924 L51.4782 765.989 Q54.1403 763.234 58.7236 758.604 Q63.33 753.952 64.5106 752.609 Q66.7559 750.086 67.6356 748.35 Q68.5383 746.591 68.5383 744.901 Q68.5383 742.146 66.5939 740.41 Q64.6726 738.674 61.5708 738.674 Q59.3717 738.674 56.918 739.438 Q54.4875 740.202 51.7097 741.753 L51.7097 737.03 Q54.5338 735.896 56.9875 735.317 Q59.4412 734.739 61.4782 734.739 Q66.8485 734.739 70.0429 737.424 Q73.2374 740.109 73.2374 744.6 Q73.2374 746.729 72.4272 748.651 Q71.6402 750.549 69.5337 753.141 Q68.955 753.813 65.8532 757.03 Q62.7513 760.225 57.1032 765.989 Z" fill="#000000" fill-rule="nonzero" fill-opacity="1" /><path clip-path="url(#clip980)" d="M83.2373 764.044 L88.1216 764.044 L88.1216 769.924 L83.2373 769.924 L83.2373 764.044 Z" fill="#000000" fill-rule="nonzero" fill-opacity="1" /><path clip-path="url(#clip980)" d="M108.307 738.442 Q104.696 738.442 102.867 742.007 Q101.061 745.549 101.061 752.678 Q101.061 759.785 102.867 763.35 Q104.696 766.891 108.307 766.891 Q111.941 766.891 113.746 763.35 Q115.575 759.785 115.575 752.678 Q115.575 745.549 113.746 742.007 Q111.941 738.442 108.307 738.442 M108.307 734.739 Q114.117 734.739 117.172 739.345 Q120.251 743.929 120.251 752.678 Q120.251 761.405 117.172 766.012 Q114.117 770.595 108.307 770.595 Q102.496 770.595 99.4178 766.012 Q96.3623 761.405 96.3623 752.678 Q96.3623 743.929 99.4178 739.345 Q102.496 734.739 108.307 734.739 Z" fill="#000000" fill-rule="nonzero" fill-opacity="1" /><path clip-path="url(#clip980)" d="M58.7004 502.787 L75.0198 502.787 L75.0198 506.722 L53.0754 506.722 L53.0754 502.787 Q55.7375 500.033 60.3208 495.403 Q64.9272 490.75 66.1078 489.408 Q68.3531 486.885 69.2328 485.149 Q70.1355 483.389 70.1355 481.699 Q70.1355 478.945 68.1911 477.209 Q66.2698 475.473 63.168 475.473 Q60.9689 475.473 58.5152 476.237 Q56.0847 477 53.3069 478.551 L53.3069 473.829 Q56.131 472.695 58.5847 472.116 Q61.0384 471.537 63.0754 471.537 Q68.4457 471.537 71.6402 474.223 Q74.8346 476.908 74.8346 481.399 Q74.8346 483.528 74.0244 485.449 Q73.2374 487.348 71.1309 489.94 Q70.5522 490.611 67.4504 493.829 Q64.3485 497.023 58.7004 502.787 Z" fill="#000000" fill-rule="nonzero" fill-opacity="1" /><path clip-path="url(#clip980)" d="M84.8345 500.843 L89.7188 500.843 L89.7188 506.722 L84.8345 506.722 L84.8345 500.843 Z" fill="#000000" fill-rule="nonzero" fill-opacity="1" /><path clip-path="url(#clip980)" d="M103.932 502.787 L120.251 502.787 L120.251 506.722 L98.3067 506.722 L98.3067 502.787 Q100.969 500.033 105.552 495.403 Q110.158 490.75 111.339 489.408 Q113.584 486.885 114.464 485.149 Q115.367 483.389 115.367 481.699 Q115.367 478.945 113.422 477.209 Q111.501 475.473 108.399 475.473 Q106.2 475.473 103.746 476.237 Q101.316 477 98.5382 478.551 L98.5382 473.829 Q101.362 472.695 103.816 472.116 Q106.27 471.537 108.307 471.537 Q113.677 471.537 116.871 474.223 Q120.066 476.908 120.066 481.399 Q120.066 483.528 119.256 485.449 Q118.469 487.348 116.362 489.94 Q115.783 490.611 112.682 493.829 Q109.58 497.023 103.932 502.787 Z" fill="#000000" fill-rule="nonzero" fill-opacity="1" /><path clip-path="url(#clip980)" d="M56.6171 239.586 L72.9365 239.586 L72.9365 243.521 L50.9921 243.521 L50.9921 239.586 Q53.6541 236.831 58.2375 232.202 Q62.8439 227.549 64.0245 226.206 Q66.2698 223.683 67.1494 221.947 Q68.0522 220.188 68.0522 218.498 Q68.0522 215.744 66.1078 214.007 Q64.1865 212.271 61.0847 212.271 Q58.8856 212.271 56.4319 213.035 Q54.0014 213.799 51.2236 215.35 L51.2236 210.628 Q54.0477 209.494 56.5014 208.915 Q58.955 208.336 60.9921 208.336 Q66.3624 208.336 69.5568 211.021 Q72.7513 213.707 72.7513 218.197 Q72.7513 220.327 71.9411 222.248 Q71.1541 224.146 69.0476 226.739 Q68.4689 227.41 65.367 230.628 Q62.2652 233.822 56.6171 239.586 Z" fill="#000000" fill-rule="nonzero" fill-opacity="1" /><path clip-path="url(#clip980)" d="M82.7512 237.642 L87.6354 237.642 L87.6354 243.521 L82.7512 243.521 L82.7512 237.642 Z" fill="#000000" fill-rule="nonzero" fill-opacity="1" /><path clip-path="url(#clip980)" d="M110.668 213.035 L98.8622 231.484 L110.668 231.484 L110.668 213.035 M109.441 208.961 L115.32 208.961 L115.32 231.484 L120.251 231.484 L120.251 235.373 L115.32 235.373 L115.32 243.521 L110.668 243.521 L110.668 235.373 L95.066 235.373 L95.066 230.859 L109.441 208.961 Z" fill="#000000" fill-rule="nonzero" fill-opacity="1" /><polyline clip-path="url(#clip982)" style="stroke:#009af9; stroke-linecap:round; stroke-linejoin:round; stroke-width:4; stroke-opacity:1; fill:none" points="218.416,993.561 220.49,993.561 222.565,993.561 224.639,904.988 226.713,904.988 228.787,904.988 230.862,981.355 232.936,981.355 235.01,981.355 237.084,981.355 239.159,846.303 241.233,961.97 243.307,961.97 245.381,932.552 247.456,932.552 249.53,874.935 251.604,874.935 253.678,746.088 255.753,746.088 257.827,746.088 259.901,1024.67 261.975,1024.67 264.05,1024.67 266.124,1125.46 268.198,531.114 270.272,573.048 272.347,969.585 274.421,1054.09 276.495,1054.09 278.569,913.802 280.644,913.802 282.718,972.027 284.792,905.635 286.866,962.547 288.941,962.547 291.015,962.547 293.089,1007.95 295.163,1007.95 297.238,770.813 299.312,770.813 301.386,740.252 303.46,948.506 305.535,948.506 307.609,993.216 309.683,960.164 311.757,554.885 313.832,844.759 315.906,994.276 317.98,994.276 320.054,994.276 322.129,855.402 324.203,722.317 326.277,926.349 328.351,850.847 330.426,1023.67 332.5,1023.67 334.574,756.397 336.648,756.397 338.723,1221.3 340.797,472.248 342.871,988.233 344.945,599.898 347.02,1258.8 349.094,788.746 351.168,788.746 353.242,788.746 355.317,430.158 357.391,1003.95 359.465,1003.95 361.539,1003.95 363.614,1003.95 365.688,1005.85 367.762,1005.85 369.836,1005.85 371.911,976.689 373.985,976.689 376.059,976.689 378.133,976.689 380.208,1102.87 382.282,884.024 384.356,668.629 386.43,1410.2 388.505,1224.08 390.579,1210.72 392.653,874.804 394.727,604.724 396.802,492.685 398.876,847.708 400.95,847.708 403.024,939.135 405.099,931.716 407.173,931.716 409.247,931.716 411.321,1059.57 413.396,665.848 415.47,1091.73 417.544,1027.32 419.618,972.674 421.693,631.922 423.767,620.544 425.841,590.025 427.915,939.729 429.99,1182.94 432.064,1053.06 434.138,1053.06 436.212,870.95 438.287,870.95 440.361,870.95 442.435,870.95 444.509,1216.58 446.584,1005.88 448.658,1058.54 450.732,877.412 452.806,877.412 454.881,1129.76 456.955,735.596 459.029,956.534 461.103,956.534 463.178,1133.65 465.252,1008.09 467.326,1008.09 469.4,1170.35 471.475,820.08 473.549,820.08 475.623,914.085 477.697,812.988 479.772,1056.58 481.846,1119.92 483.92,1119.92 485.994,1097.57 488.069,1016.52 490.143,826.4 492.217,826.4 494.291,826.4 496.366,1035 498.44,516.385 500.514,847.147 502.588,847.147 504.663,945.588 506.737,951.065 508.811,984.889 510.885,1011.39 512.96,801.336 515.034,801.336 517.108,1091.92 519.182,1091.92 521.257,596.987 523.331,609.294 525.405,567.2 527.479,1301.72 529.554,1428.73 531.628,1189.45 533.702,788.513 535.776,850.942 537.851,850.942 539.925,929.147 541.999,929.147 544.073,1133.8 546.148,1133.8 548.222,897.002 550.296,875.684 552.37,893.488 554.445,893.488 556.519,1207.89 558.593,1029.38 560.667,844.1 562.742,1118.36 564.816,603.003 566.89,603.003 568.964,1023.49 571.039,961.838 573.113,1263.5 575.187,1263.5 577.261,1080.93 579.336,666.571 581.41,1125.63 583.484,721.398 585.558,315.02 587.633,1303.52 589.707,1390.97 591.781,1061.76 593.855,899.177 595.93,1179.07 598.004,982.533 600.078,982.533 602.152,982.533 604.227,982.533 606.301,869.908 608.375,869.908 610.449,793.125 612.523,693.134 614.598,1034.2 616.672,569.455 618.746,970.828 620.82,836.68 622.895,791.817 624.969,791.817 627.043,1217.12 629.117,1076.73 631.192,805.812 633.266,843.724 635.34,735.348 637.414,735.348 639.489,735.348 641.563,1235.33 643.637,1235.33 645.711,553.08 647.786,1192.18 649.86,1075.83 651.934,1240.19 654.008,1240.19 656.083,770.415 658.157,1079.9 660.231,1079.9 662.305,567.488 664.38,510.225 666.454,740.809 668.528,517.273 670.602,806.525 672.677,842.876 674.751,977.372 676.825,553.902 678.899,850.894 680.974,780.906 683.048,780.906 685.122,956.838 687.196,722.734 689.271,722.734 691.345,912.09 693.419,1058.28 695.493,935.878 697.568,320.797 699.642,865.747 701.716,716.077 703.79,716.077 705.865,1133.96 707.939,1133.96 710.013,994.882 712.087,994.882 714.162,994.882 716.236,812.553 718.31,893.174 720.384,893.174 722.459,893.174 724.533,650.149 726.607,979.411 728.681,979.411 730.756,1063.36 732.83,894.798 734.904,924.189 736.978,924.189 739.053,1309.15 741.127,994.671 743.201,921.177 745.275,926.311 747.35,926.311 749.424,794.035 751.498,794.035 753.572,794.035 755.647,856.522 757.721,1091.44 759.795,1091.44 761.869,1091.44 763.944,790.594 766.018,1263.41 768.092,1192.65 770.166,794.428 772.241,1123.25 774.315,927.928 776.389,653.288 778.463,653.288 780.538,946.162 782.612,560.807 784.686,560.807 786.76,695.342 788.835,1013.08 790.909,1029.72 792.983,1258.12 795.057,1051.69 797.132,967.83 799.206,482.055 801.28,880.293 803.354,1191.11 805.429,1281.86 807.503,605.451 809.577,1118.1 811.651,434.601 813.726,688.363 815.8,1088.58 817.874,1267.6 819.948,505.654 822.023,1054.91 824.097,1054.91 826.171,1098.36 828.245,712.021 830.32,706 832.394,975.153 834.468,1019.32 836.542,839.239 838.617,299.534 840.691,548.074 842.765,412.137 844.839,1242.56 846.914,1148.9 848.988,582.197 851.062,937.728 853.136,976.883 855.211,908.635 857.285,1017.58 859.359,1129.71 861.433,337.079 863.508,337.079 865.582,1227.92 867.656,1198.44 869.73,926.733 871.805,555.714 873.879,1030.55 875.953,1084.44 878.027,655.384 880.102,824.22 882.176,908.818 884.25,753.46 886.324,981.565 888.399,825.786 890.473,573.412 892.547,1140.76 894.621,1140.76 896.696,937.978 898.77,845.181 900.844,812.592 902.918,812.592 904.993,1179.12 907.067,531.668 909.141,610.886 911.215,493.412 913.29,1077.79 915.364,548.846 917.438,855.409 919.512,967.306 921.587,912.762 923.661,912.762 925.735,912.762 927.809,684.352 929.884,1394.99 931.958,1182.9 934.032,389.115 936.106,1227.41 938.181,1227.41 940.255,653.605 942.329,1248.32 944.403,1254.52 946.478,1254.52 948.552,917.473 950.626,1124.76 952.7,744.337 954.775,744.337 956.849,1109.68 958.923,1109.68 960.997,1109.68 963.072,853.919 965.146,917.398 967.22,917.398 969.294,917.398 971.369,917.398 973.443,1005.13 975.517,413.379 977.591,908.929 979.666,908.929 981.74,774.096 983.814,774.484 985.888,1103.79 987.963,1103.79 990.037,1103.79 992.111,636.473 994.185,636.473 996.259,929.86 998.334,929.86 1000.41,1162.6 1002.48,1054.33 1004.56,1054.33 1006.63,1049.77 1008.7,897.717 1010.78,897.717 1012.85,897.717 1014.93,216.364 1017,397.715 1019.08,380.178 1021.15,667.632 1023.22,1011.91 1025.3,1011.91 1027.37,1011.91 1029.45,1011.91 1031.52,785.801 1033.6,953.912 1035.67,953.912 1037.74,1096.26 1039.82,1096.26 1041.89,883.298 1043.97,883.298 1046.04,955.969 1048.12,955.969 1050.19,958.472 1052.26,958.472 1054.34,895.735 1056.41,958.863 1058.49,1014.69 1060.56,695.388 1062.64,836.695 1064.71,1072.94 1066.78,1234.68 1068.86,1234.68 1070.93,1234.68 1073.01,1136.2 1075.08,1125.79 1077.16,1172.55 1079.23,818.002 1081.3,757.685 1083.38,757.685 1085.45,1346.99 1087.53,464.812 1089.6,1244.75 1091.67,1272.58 1093.75,753.751 1095.82,753.751 1097.9,1315.17 1099.97,829.618 1102.05,826.342 1104.12,1220.97 1106.19,1207.97 1108.27,1350.21 1110.34,854.816 1112.42,1012.6 1114.49,1012.6 1116.57,884.926 1118.64,1335.76 1120.71,839.963 1122.79,839.963 1124.86,839.963 1126.94,888.445 1129.01,888.445 1131.09,888.445 1133.16,1255.82 1135.23,1043.84 1137.31,1043.84 1139.38,1043.84 1141.46,894.01 1143.53,894.01 1145.61,894.01 1147.68,712.844 1149.75,1054.13 1151.83,999.98 1153.9,1054.82 1155.98,602.206 1158.05,602.206 1160.13,862.782 1162.2,360.44 1164.27,769.201 1166.35,769.201 1168.42,769.201 1170.5,1109.77 1172.57,807.584 1174.64,807.584 1176.72,692.906 1178.79,692.906 1180.87,1147.08 1182.94,1093.65 1185.02,409.162 1187.09,1184.49 1189.16,954.738 1191.24,1182 1193.31,1182 1195.39,858.59 1197.46,829.467 1199.54,964.424 1201.61,952.315 1203.68,952.315 1205.76,1087.94 1207.83,1087.94 1209.91,772.698 1211.98,1390.81 1214.06,1254.68 1216.13,1254.68 1218.2,1254.68 1220.28,1012.73 1222.35,925.191 1224.43,731.547 1226.5,891.432 1228.58,771.174 1230.65,771.174 1232.72,771.174 1234.8,1080.36 1236.87,253.513 1238.95,918.478 1241.02,949.9 1243.1,742.278 1245.17,524.107 1247.24,524.107 1249.32,1224.07 1251.39,1224.07 1253.47,1224.07 1255.54,884.421 1257.61,884.421 1259.69,1009.31 1261.76,1056.31 1263.84,959.24 1265.91,609.858 1267.99,859.29 1270.06,654.054 1272.13,1113.66 1274.21,890.757 1276.28,890.757 1278.36,890.757 1280.43,933.977 1282.51,933.977 1284.58,831.345 1286.65,890.31 1288.73,1084.22 1290.8,1084.22 1292.88,575.025 1294.95,575.025 1297.03,923.957 1299.1,986.943 1301.17,986.943 1303.25,673.745 1305.32,606.566 1307.4,606.566 1309.47,788.585 1311.55,1143.97 1313.62,580.408 1315.69,580.408 1317.77,1122.16 1319.84,1122.16 1321.92,1121.77 1323.99,1121.77 1326.07,1121.77 1328.14,1104.32 1330.21,1371.84 1332.29,616.614 1334.36,997.397 1336.44,997.397 1338.51,734.515 1340.58,559.403 1342.66,521.999 1344.73,521.999 1346.81,1171.92 1348.88,1001.04 1350.96,1140.37 1353.03,1254.06 1355.1,555.132 1357.18,1077.39 1359.25,1138.33 1361.33,1020.75 1363.4,894.297 1365.48,1231.8 1367.55,1231.8 1369.62,1070.84 1371.7,1070.84 1373.77,1047.76 1375.85,512.98 1377.92,351.69 1380,1022.37 1382.07,1159.03 1384.14,947.239 1386.22,947.239 1388.29,947.239 1390.37,1100.85 1392.44,711.25 1394.52,711.25 1396.59,872.94 1398.66,1094.54 1400.74,1094.54 1402.81,700.562 1404.89,1039.65 1406.96,1123.76 1409.03,903.902 1411.11,903.902 1413.18,1070.43 1415.26,771.2 1417.33,1143.48 1419.41,1143.48 1421.48,758.187 1423.55,895.209 1425.63,895.209 1427.7,1153.5 1429.78,1306.99 1431.85,1326.77 1433.93,1326.77 1436,1326.77 1438.07,1079.05 1440.15,634.122 1442.22,1302.42 1444.3,546.617 1446.37,727.901 1448.45,727.901 1450.52,727.901 1452.59,835.394 1454.67,835.394 1456.74,835.394 1458.82,482.339 1460.89,1034 1462.97,778.551 1465.04,1036.92 1467.11,1245.17 1469.19,1050.12 1471.26,835.094 1473.34,883.454 1475.41,1031.55 1477.49,1031.55 1479.56,937.122 1481.63,937.122 1483.71,1039.39 1485.78,1173.08 1487.86,1228.73 1489.93,1228.73 1492,1228.73 1494.08,1072.92 1496.15,408.427 1498.23,1063.14 1500.3,1063.14 1502.38,1037 1504.45,1037 1506.52,617.221 1508.6,1283.41 1510.67,633.685 1512.75,645.443 1514.82,1045.84 1516.9,1221.64 1518.97,1221.64 1521.04,1221.64 1523.12,673.301 1525.19,673.301 1527.27,297.97 1529.34,615.418 1531.42,764.632 1533.49,1053 1535.56,953.96 1537.64,953.96 1539.71,953.96 1541.79,953.96 1543.86,1219.27 1545.94,1445.72 1548.01,1008.97 1550.08,899.867 1552.16,644.635 1554.23,895.932 1556.31,895.932 1558.38,832.265 1560.46,832.265 1562.53,957.364 1564.6,754.818 1566.68,721.378 1568.75,721.378 1570.83,1275.99 1572.9,1037.72 1574.97,1037.72 1577.05,1037.72 1579.12,540.054 1581.2,396.369 1583.27,1186.67 1585.35,1150.39 1587.42,1046.95 1589.49,1044.4 1591.57,1044.4 1593.64,1044.4 1595.72,1044.4 1597.79,983.492 1599.87,959.194 1601.94,1273.94 1604.01,614.536 1606.09,417.676 1608.16,916.278 1610.24,731.895 1612.31,558.384 1614.39,1112.53 1616.46,912.796 1618.53,729.694 1620.61,920.797 1622.68,1163.85 1624.76,712.878 1626.83,1015.91 1628.91,1206.21 1630.98,754.538 1633.05,1088.22 1635.13,1159.75 1637.2,1154.27 1639.28,1154.27 1641.35,1154.27 1643.43,1154.27 1645.5,470.5 1647.57,470.5 1649.65,925.67 1651.72,1118.34 1653.8,1078.12 1655.87,1091.55 1657.94,1091.55 1660.02,991.739 1662.09,991.739 1664.17,991.739 1666.24,991.739 1668.32,991.739 1670.39,991.739 1672.46,995.289 1674.54,995.289 1676.61,953.994 1678.69,953.994 1680.76,1084.77 1682.84,653.438 1684.91,882.201 1686.98,680.898 1689.06,680.898 1691.13,891.056 1693.21,891.056 1695.28,1081.1 1697.36,1081.1 1699.43,1056.29 1701.5,1056.29 1703.58,730.812 1705.65,1253.86 1707.73,1173.02 1709.8,524.779 1711.88,1352.85 1713.95,801.892 1716.02,936.073 1718.1,936.073 1720.17,1170.4 1722.25,1170.4 1724.32,1054.77 1726.4,1054.77 1728.47,1054.77 1730.54,1095.8 1732.62,1095.8 1734.69,846.009 1736.77,989.952 1738.84,989.952 1740.91,737.86 1742.99,753.762 1745.06,520.14 1747.14,755.435 1749.21,961.55 1751.29,1179.56 1753.36,848.69 1755.43,848.69 1757.51,1059.43 1759.58,1304.65 1761.66,1045.34 1763.73,628.213 1765.81,988.671 1767.88,948.368 1769.95,1092.42 1772.03,855.811 1774.1,855.811 1776.18,663.739 1778.25,663.739 1780.33,755.338 1782.4,1092.33 1784.47,1092.33 1786.55,1083.62 1788.62,1083.62 1790.7,452.74 1792.77,1215.03 1794.85,1215.03 1796.92,1243.76 1798.99,796.827 1801.07,709.88 1803.14,1179.97 1805.22,745.793 1807.29,854.999 1809.36,854.999 1811.44,914.874 1813.51,1138.33 1815.59,866.527 1817.66,690.366 1819.74,1137.94 1821.81,1005.12 1823.88,688.53 1825.96,841.574 1828.03,841.574 1830.11,1187.1 1832.18,1187.1 1834.26,768.249 1836.33,768.249 1838.4,768.249 1840.48,768.249 1842.55,1221.78 1844.63,1319.64 1846.7,1211.44 1848.78,321.887 1850.85,193.355 1852.92,193.355 1855,529.007 1857.07,714.206 1859.15,714.206 1861.22,714.206 1863.3,387.998 1865.37,387.998 1867.44,387.998 1869.52,664.631 1871.59,664.631 1873.67,664.631 1875.74,896.709 1877.82,896.709 1879.89,714.977 1881.96,714.977 1884.04,1189.09 1886.11,1189.09 1888.19,1205 1890.26,1037.09 1892.33,893.293 1894.41,901.052 1896.48,853.837 1898.56,853.837 1900.63,283.347 1902.71,333.694 1904.78,1011.86 1906.85,1041.51 1908.93,871.528 1911,1097.9 1913.08,1103.21 1915.15,761.071 1917.23,87.9763 1919.3,783.634 1921.37,1184.01 1923.45,1184.01 1925.52,384.139 1927.6,384.139 1929.67,457.147 1931.75,649.225 1933.82,428.541 1935.89,883.704 1937.97,781.542 1940.04,941.252 1942.12,910.842 1944.19,910.842 1946.27,1126.71 1948.34,858.827 1950.41,858.827 1952.49,730.787 1954.56,948.453 1956.64,1269.65 1958.71,1129.73 1960.79,1126.96 1962.86,530.823 1964.93,1237.99 1967.01,1139.03 1969.08,1303.1 1971.16,953.364 1973.23,953.364 1975.3,953.364 1977.38,937.91 1979.45,937.91 1981.53,1345.57 1983.6,470.238 1985.68,549.589 1987.75,890.22 1989.82,565.9 1991.9,456.162 1993.97,270.279 1996.05,1223.39 1998.12,573.741 2000.2,1160.67 2002.27,603.466 2004.34,1290.19 2006.42,476.586 2008.49,739.813 2010.57,1030.47 2012.64,585.402 2014.72,972.042 2016.79,972.042 2018.86,548.049 2020.94,556.184 2023.01,768.267 2025.09,562.79 2027.16,764.867 2029.24,786.295 2031.31,566.182 2033.38,566.182 2035.46,945.17 2037.53,945.17 2039.61,1347.15 2041.68,1347.15 2043.76,940.011 2045.83,875.754 2047.9,875.754 2049.98,703.7 2052.05,1202.53 2054.13,1019.86 2056.2,613.025 2058.27,793.655 2060.35,830.803 2062.42,1128.18 2064.5,1128.18 2066.57,1128.18 2068.65,1228.61 2070.72,1228.61 2072.79,890.007 2074.87,938.796 2076.94,954.718 2079.02,590.875 2081.09,1090.73 2083.17,1110.4 2085.24,957.572 2087.31,1075.05 2089.39,1075.22 2091.46,965.104 2093.54,1043.38 2095.61,682.079 2097.69,1224.09 2099.76,574.238 2101.83,574.238 2103.91,1059.9 2105.98,1059.9 2108.06,982.407 2110.13,982.407 2112.21,989.58 2114.28,795.479 2116.35,795.479 2118.43,795.479 2120.5,795.479 2122.58,971.766 2124.65,964.385 2126.73,1050.24 2128.8,1115.74 2130.87,1340.15 2132.95,890.607 2135.02,897.82 2137.1,830.362 2139.17,1194.31 2141.24,1194.31 2143.32,513.87 2145.39,1189.38 2147.47,990.366 2149.54,990.366 2151.62,990.366 2153.69,1215.19 2155.76,819.474 2157.84,902.324 2159.91,685.53 2161.99,832.245 2164.06,832.245 2166.14,804.352 2168.21,1367.37 2170.28,1106.32 2172.36,693.589 2174.43,1141.88 2176.51,1141.88 2178.58,1141.88 2180.66,1141.88 2182.73,964.598 2184.8,654.559 2186.88,913.344 2188.95,1403.43 2191.03,778.983 2193.1,778.983 2195.18,777.475 2197.25,837.823 2199.32,997.128 2201.4,1166.35 2203.47,989.336 2205.55,943.884 2207.62,943.884 2209.69,1014.55 2211.77,1014.55 2213.84,1368.88 2215.92,1114.76 2217.99,1114.76 2220.07,1180.03 2222.14,1125.56 2224.21,762.326 2226.29,675.337 2228.36,1210.26 2230.44,1307.33 2232.51,1215.15 2234.59,1006.55 2236.66,1075.97 2238.73,985.375 2240.81,1099.15 2242.88,1099.15 2244.96,1315.07 2247.03,408.885 2249.11,979.963 2251.18,812.559 2253.25,812.559 2255.33,1103.02 2257.4,690.649 2259.48,690.649 2261.55,690.649 2263.63,1019.76 2265.7,1239.79 2267.77,1239.79 2269.85,1239.79 2271.92,1225.52 2274,1215.65 2276.07,1215.65 2278.15,870.686 2280.22,870.686 2282.29,870.686 2284.37,1010.13 2286.44,1010.13 2288.52,1010.13 2290.59,1010.13 "/>
<path clip-path="url(#clip980)" d="M229.468 198.898 L501.549 198.898 L501.549 95.2176 L229.468 95.2176  Z" fill="#ffffff" fill-rule="evenodd" fill-opacity="1"/>
<polyline clip-path="url(#clip980)" style="stroke:#000000; stroke-linecap:round; stroke-linejoin:round; stroke-width:4; stroke-opacity:1; fill:none" points="229.468,198.898 501.549,198.898 501.549,95.2176 229.468,95.2176 229.468,198.898 "/>
<polyline clip-path="url(#clip980)" style="stroke:#009af9; stroke-linecap:round; stroke-linejoin:round; stroke-width:4; stroke-opacity:1; fill:none" points="253.873,147.058 400.307,147.058 "/>
<path clip-path="url(#clip980)" d="M438.555 166.745 Q436.75 171.375 435.037 172.787 Q433.324 174.199 430.453 174.199 L427.051 174.199 L427.051 170.634 L429.551 170.634 Q431.31 170.634 432.282 169.8 Q433.254 168.967 434.435 165.865 L435.199 163.921 L424.713 138.412 L429.227 138.412 L437.328 158.689 L445.43 138.412 L449.944 138.412 L438.555 166.745 Z" fill="#000000" fill-rule="nonzero" fill-opacity="1" /><path clip-path="url(#clip980)" d="M457.236 160.402 L464.875 160.402 L464.875 134.037 L456.564 135.703 L456.564 131.444 L464.828 129.778 L469.504 129.778 L469.504 160.402 L477.143 160.402 L477.143 164.338 L457.236 164.338 L457.236 160.402 Z" fill="#000000" fill-rule="nonzero" fill-opacity="1" /></svg>
