<?xml version="1.0" encoding="utf-8"?>
<svg xmlns="http://www.w3.org/2000/svg" xmlns:xlink="http://www.w3.org/1999/xlink" width="500" height="250" viewBox="0 0 2000 1000">
<defs>
  <clipPath id="clip490">
    <rect x="0" y="0" width="2000" height="1000"/>
  </clipPath>
</defs>
<path clip-path="url(#clip490)" d="
M0 1000 L2000 1000 L2000 0 L0 0  Z
  " fill="#ffffff" fill-rule="evenodd" fill-opacity="1"/>
<defs>
  <clipPath id="clip491">
    <rect x="400" y="0" width="1401" height="1000"/>
  </clipPath>
</defs>
<path clip-path="url(#clip490)" d="
M216.509 849.7 L1952.76 849.7 L1952.76 47.2441 L216.509 47.2441  Z
  " fill="#ffffff" fill-rule="evenodd" fill-opacity="1"/>
<defs>
  <clipPath id="clip492">
    <rect x="216" y="47" width="1737" height="803"/>
  </clipPath>
</defs>
<polyline clip-path="url(#clip492)" style="stroke:#000000; stroke-linecap:butt; stroke-linejoin:round; stroke-width:2; stroke-opacity:0.1; fill:none" points="
  1903.62,849.7 1903.62,47.2441 
  "/>
<polyline clip-path="url(#clip492)" style="stroke:#000000; stroke-linecap:butt; stroke-linejoin:round; stroke-width:2; stroke-opacity:0.1; fill:none" points="
  1498.18,849.7 1498.18,47.2441 
  "/>
<polyline clip-path="url(#clip492)" style="stroke:#000000; stroke-linecap:butt; stroke-linejoin:round; stroke-width:2; stroke-opacity:0.1; fill:none" points="
  1092.74,849.7 1092.74,47.2441 
  "/>
<polyline clip-path="url(#clip492)" style="stroke:#000000; stroke-linecap:butt; stroke-linejoin:round; stroke-width:2; stroke-opacity:0.1; fill:none" points="
  687.304,849.7 687.304,47.2441 
  "/>
<polyline clip-path="url(#clip492)" style="stroke:#000000; stroke-linecap:butt; stroke-linejoin:round; stroke-width:2; stroke-opacity:0.1; fill:none" points="
  281.866,849.7 281.866,47.2441 
  "/>
<polyline clip-path="url(#clip490)" style="stroke:#000000; stroke-linecap:butt; stroke-linejoin:round; stroke-width:4; stroke-opacity:1; fill:none" points="
  1952.76,849.7 216.509,849.7 
  "/>
<polyline clip-path="url(#clip490)" style="stroke:#000000; stroke-linecap:butt; stroke-linejoin:round; stroke-width:4; stroke-opacity:1; fill:none" points="
  1903.62,849.7 1903.62,830.802 
  "/>
<polyline clip-path="url(#clip490)" style="stroke:#000000; stroke-linecap:butt; stroke-linejoin:round; stroke-width:4; stroke-opacity:1; fill:none" points="
  1498.18,849.7 1498.18,830.802 
  "/>
<polyline clip-path="url(#clip490)" style="stroke:#000000; stroke-linecap:butt; stroke-linejoin:round; stroke-width:4; stroke-opacity:1; fill:none" points="
  1092.74,849.7 1092.74,830.802 
  "/>
<polyline clip-path="url(#clip490)" style="stroke:#000000; stroke-linecap:butt; stroke-linejoin:round; stroke-width:4; stroke-opacity:1; fill:none" points="
  687.304,849.7 687.304,830.802 
  "/>
<polyline clip-path="url(#clip490)" style="stroke:#000000; stroke-linecap:butt; stroke-linejoin:round; stroke-width:4; stroke-opacity:1; fill:none" points="
  281.866,849.7 281.866,830.802 
  "/>
<path clip-path="url(#clip490)" d="M1903.62 877.419 Q1900.01 877.419 1898.18 880.983 Q1896.37 884.525 1896.37 891.655 Q1896.37 898.761 1898.18 902.326 Q1900.01 905.867 1903.62 905.867 Q1907.25 905.867 1909.06 902.326 Q1910.89 898.761 1910.89 891.655 Q1910.89 884.525 1909.06 880.983 Q1907.25 877.419 1903.62 877.419 M1903.62 873.715 Q1909.43 873.715 1912.48 878.321 Q1915.56 882.905 1915.56 891.655 Q1915.56 900.381 1912.48 904.988 Q1909.43 909.571 1903.62 909.571 Q1897.81 909.571 1894.73 904.988 Q1891.67 900.381 1891.67 891.655 Q1891.67 882.905 1894.73 878.321 Q1897.81 873.715 1903.62 873.715 Z" fill="#000000" fill-rule="evenodd" fill-opacity="1" /><path clip-path="url(#clip490)" d="M1488.46 874.34 L1506.81 874.34 L1506.81 878.275 L1492.74 878.275 L1492.74 886.747 Q1493.76 886.4 1494.78 886.238 Q1495.79 886.053 1496.81 886.053 Q1502.6 886.053 1505.98 889.224 Q1509.36 892.395 1509.36 897.812 Q1509.36 903.391 1505.89 906.492 Q1502.42 909.571 1496.1 909.571 Q1493.92 909.571 1491.65 909.201 Q1489.41 908.83 1487 908.09 L1487 903.391 Q1489.08 904.525 1491.3 905.08 Q1493.53 905.636 1496 905.636 Q1500.01 905.636 1502.35 903.53 Q1504.68 901.423 1504.68 897.812 Q1504.68 894.201 1502.35 892.094 Q1500.01 889.988 1496 889.988 Q1494.13 889.988 1492.25 890.405 Q1490.4 890.821 1488.46 891.701 L1488.46 874.34 Z" fill="#000000" fill-rule="evenodd" fill-opacity="1" /><path clip-path="url(#clip490)" d="M1067.43 904.965 L1075.07 904.965 L1075.07 878.599 L1066.76 880.266 L1066.76 876.007 L1075.02 874.34 L1079.7 874.34 L1079.7 904.965 L1087.34 904.965 L1087.34 908.9 L1067.43 908.9 L1067.43 904.965 Z" fill="#000000" fill-rule="evenodd" fill-opacity="1" /><path clip-path="url(#clip490)" d="M1106.78 877.419 Q1103.17 877.419 1101.34 880.983 Q1099.54 884.525 1099.54 891.655 Q1099.54 898.761 1101.34 902.326 Q1103.17 905.867 1106.78 905.867 Q1110.41 905.867 1112.22 902.326 Q1114.05 898.761 1114.05 891.655 Q1114.05 884.525 1112.22 880.983 Q1110.41 877.419 1106.78 877.419 M1106.78 873.715 Q1112.59 873.715 1115.65 878.321 Q1118.73 882.905 1118.73 891.655 Q1118.73 900.381 1115.65 904.988 Q1112.59 909.571 1106.78 909.571 Q1100.97 909.571 1097.89 904.988 Q1094.84 900.381 1094.84 891.655 Q1094.84 882.905 1097.89 878.321 Q1100.97 873.715 1106.78 873.715 Z" fill="#000000" fill-rule="evenodd" fill-opacity="1" /><path clip-path="url(#clip490)" d="M662.489 904.965 L670.128 904.965 L670.128 878.599 L661.818 880.266 L661.818 876.007 L670.082 874.34 L674.757 874.34 L674.757 904.965 L682.396 904.965 L682.396 908.9 L662.489 908.9 L662.489 904.965 Z" fill="#000000" fill-rule="evenodd" fill-opacity="1" /><path clip-path="url(#clip490)" d="M691.887 874.34 L710.243 874.34 L710.243 878.275 L696.169 878.275 L696.169 886.747 Q697.188 886.4 698.206 886.238 Q699.225 886.053 700.243 886.053 Q706.03 886.053 709.41 889.224 Q712.79 892.395 712.79 897.812 Q712.79 903.391 709.317 906.492 Q705.845 909.571 699.526 909.571 Q697.35 909.571 695.081 909.201 Q692.836 908.83 690.429 908.09 L690.429 903.391 Q692.512 904.525 694.734 905.08 Q696.956 905.636 699.433 905.636 Q703.438 905.636 705.776 903.53 Q708.114 901.423 708.114 897.812 Q708.114 894.201 705.776 892.094 Q703.438 889.988 699.433 889.988 Q697.558 889.988 695.683 890.405 Q693.831 890.821 691.887 891.701 L691.887 874.34 Z" fill="#000000" fill-rule="evenodd" fill-opacity="1" /><path clip-path="url(#clip490)" d="M260.639 904.965 L276.959 904.965 L276.959 908.9 L255.014 908.9 L255.014 904.965 Q257.676 902.21 262.26 897.58 Q266.866 892.928 268.047 891.585 Q270.292 889.062 271.172 887.326 Q272.074 885.567 272.074 883.877 Q272.074 881.122 270.13 879.386 Q268.209 877.65 265.107 877.65 Q262.908 877.65 260.454 878.414 Q258.023 879.178 255.246 880.729 L255.246 876.007 Q258.07 874.872 260.523 874.294 Q262.977 873.715 265.014 873.715 Q270.384 873.715 273.579 876.4 Q276.773 879.085 276.773 883.576 Q276.773 885.706 275.963 887.627 Q275.176 889.525 273.07 892.118 Q272.491 892.789 269.389 896.006 Q266.287 899.201 260.639 904.965 Z" fill="#000000" fill-rule="evenodd" fill-opacity="1" /><path clip-path="url(#clip490)" d="M296.773 877.419 Q293.162 877.419 291.333 880.983 Q289.528 884.525 289.528 891.655 Q289.528 898.761 291.333 902.326 Q293.162 905.867 296.773 905.867 Q300.407 905.867 302.213 902.326 Q304.042 898.761 304.042 891.655 Q304.042 884.525 302.213 880.983 Q300.407 877.419 296.773 877.419 M296.773 873.715 Q302.583 873.715 305.639 878.321 Q308.718 882.905 308.718 891.655 Q308.718 900.381 305.639 904.988 Q302.583 909.571 296.773 909.571 Q290.963 909.571 287.884 904.988 Q284.829 900.381 284.829 891.655 Q284.829 882.905 287.884 878.321 Q290.963 873.715 296.773 873.715 Z" fill="#000000" fill-rule="evenodd" fill-opacity="1" /><path clip-path="url(#clip490)" d="M1023.79 942.794 L1023.79 952.916 L1035.86 952.916 L1035.86 957.467 L1023.79 957.467 L1023.79 976.819 Q1023.79 981.18 1024.97 982.421 Q1026.18 983.662 1029.84 983.662 L1035.86 983.662 L1035.86 988.564 L1029.84 988.564 Q1023.06 988.564 1020.48 986.049 Q1017.9 983.503 1017.9 976.819 L1017.9 957.467 L1013.61 957.467 L1013.61 952.916 L1017.9 952.916 L1017.9 942.794 L1023.79 942.794 Z" fill="#000000" fill-rule="evenodd" fill-opacity="1" /><path clip-path="url(#clip490)" d="M1043.56 952.916 L1049.41 952.916 L1049.41 988.564 L1043.56 988.564 L1043.56 952.916 M1043.56 939.039 L1049.41 939.039 L1049.41 946.455 L1043.56 946.455 L1043.56 939.039 Z" fill="#000000" fill-rule="evenodd" fill-opacity="1" /><path clip-path="url(#clip490)" d="M1089.42 959.759 Q1091.62 955.812 1094.67 953.934 Q1097.73 952.057 1101.87 952.057 Q1107.44 952.057 1110.46 955.971 Q1113.49 959.855 1113.49 967.048 L1113.49 988.564 L1107.6 988.564 L1107.6 967.239 Q1107.6 962.114 1105.78 959.632 Q1103.97 957.149 1100.24 957.149 Q1095.69 957.149 1093.05 960.173 Q1090.41 963.197 1090.41 968.416 L1090.41 988.564 L1084.52 988.564 L1084.52 967.239 Q1084.52 962.083 1082.71 959.632 Q1080.89 957.149 1077.11 957.149 Q1072.62 957.149 1069.98 960.205 Q1067.33 963.228 1067.33 968.416 L1067.33 988.564 L1061.45 988.564 L1061.45 952.916 L1067.33 952.916 L1067.33 958.454 Q1069.34 955.176 1072.14 953.616 Q1074.94 952.057 1078.79 952.057 Q1082.68 952.057 1085.38 954.03 Q1088.12 956.003 1089.42 959.759 Z" fill="#000000" fill-rule="evenodd" fill-opacity="1" /><path clip-path="url(#clip490)" d="M1155.66 969.276 L1155.66 972.14 L1128.73 972.14 Q1129.11 978.188 1132.36 981.371 Q1135.64 984.522 1141.46 984.522 Q1144.84 984.522 1147.99 983.694 Q1151.17 982.867 1154.29 981.211 L1154.29 986.75 Q1151.14 988.086 1147.83 988.787 Q1144.52 989.487 1141.11 989.487 Q1132.58 989.487 1127.59 984.522 Q1122.62 979.556 1122.62 971.09 Q1122.62 962.337 1127.33 957.213 Q1132.07 952.057 1140.09 952.057 Q1147.29 952.057 1151.46 956.703 Q1155.66 961.319 1155.66 969.276 M1149.8 967.557 Q1149.74 962.751 1147.1 959.886 Q1144.49 957.022 1140.16 957.022 Q1135.26 957.022 1132.3 959.791 Q1129.37 962.56 1128.92 967.589 L1149.8 967.557 Z" fill="#000000" fill-rule="evenodd" fill-opacity="1" /><polyline clip-path="url(#clip492)" style="stroke:#000000; stroke-linecap:butt; stroke-linejoin:round; stroke-width:2; stroke-opacity:0.1; fill:none" points="
  1952.76,826.989 216.509,826.989 
  "/>
<polyline clip-path="url(#clip492)" style="stroke:#000000; stroke-linecap:butt; stroke-linejoin:round; stroke-width:2; stroke-opacity:0.1; fill:none" points="
  1952.76,637.73 216.509,637.73 
  "/>
<polyline clip-path="url(#clip492)" style="stroke:#000000; stroke-linecap:butt; stroke-linejoin:round; stroke-width:2; stroke-opacity:0.1; fill:none" points="
  1952.76,448.472 216.509,448.472 
  "/>
<polyline clip-path="url(#clip492)" style="stroke:#000000; stroke-linecap:butt; stroke-linejoin:round; stroke-width:2; stroke-opacity:0.1; fill:none" points="
  1952.76,259.214 216.509,259.214 
  "/>
<polyline clip-path="url(#clip492)" style="stroke:#000000; stroke-linecap:butt; stroke-linejoin:round; stroke-width:2; stroke-opacity:0.1; fill:none" points="
  1952.76,69.9551 216.509,69.9551 
  "/>
<polyline clip-path="url(#clip490)" style="stroke:#000000; stroke-linecap:butt; stroke-linejoin:round; stroke-width:4; stroke-opacity:1; fill:none" points="
  216.509,849.7 216.509,47.2441 
  "/>
<polyline clip-path="url(#clip490)" style="stroke:#000000; stroke-linecap:butt; stroke-linejoin:round; stroke-width:4; stroke-opacity:1; fill:none" points="
  216.509,826.989 235.407,826.989 
  "/>
<polyline clip-path="url(#clip490)" style="stroke:#000000; stroke-linecap:butt; stroke-linejoin:round; stroke-width:4; stroke-opacity:1; fill:none" points="
  216.509,637.73 235.407,637.73 
  "/>
<polyline clip-path="url(#clip490)" style="stroke:#000000; stroke-linecap:butt; stroke-linejoin:round; stroke-width:4; stroke-opacity:1; fill:none" points="
  216.509,448.472 235.407,448.472 
  "/>
<polyline clip-path="url(#clip490)" style="stroke:#000000; stroke-linecap:butt; stroke-linejoin:round; stroke-width:4; stroke-opacity:1; fill:none" points="
  216.509,259.214 235.407,259.214 
  "/>
<polyline clip-path="url(#clip490)" style="stroke:#000000; stroke-linecap:butt; stroke-linejoin:round; stroke-width:4; stroke-opacity:1; fill:none" points="
  216.509,69.9551 235.407,69.9551 
  "/>
<path clip-path="url(#clip490)" d="M174.565 812.788 Q170.954 812.788 169.125 816.352 Q167.32 819.894 167.32 827.024 Q167.32 834.13 169.125 837.695 Q170.954 841.236 174.565 841.236 Q178.199 841.236 180.005 837.695 Q181.833 834.13 181.833 827.024 Q181.833 819.894 180.005 816.352 Q178.199 812.788 174.565 812.788 M174.565 809.084 Q180.375 809.084 183.431 813.69 Q186.509 818.274 186.509 827.024 Q186.509 835.75 183.431 840.357 Q180.375 844.94 174.565 844.94 Q168.755 844.94 165.676 840.357 Q162.621 835.75 162.621 827.024 Q162.621 818.274 165.676 813.69 Q168.755 809.084 174.565 809.084 Z" fill="#000000" fill-rule="evenodd" fill-opacity="1" /><path clip-path="url(#clip490)" d="M139.426 651.075 L155.746 651.075 L155.746 655.01 L133.801 655.01 L133.801 651.075 Q136.463 648.321 141.047 643.691 Q145.653 639.038 146.834 637.696 Q149.079 635.173 149.959 633.436 Q150.861 631.677 150.861 629.987 Q150.861 627.233 148.917 625.497 Q146.996 623.761 143.894 623.761 Q141.695 623.761 139.241 624.524 Q136.811 625.288 134.033 626.839 L134.033 622.117 Q136.857 620.983 139.311 620.404 Q141.764 619.825 143.801 619.825 Q149.172 619.825 152.366 622.511 Q155.56 625.196 155.56 629.686 Q155.56 631.816 154.75 633.737 Q153.963 635.636 151.857 638.228 Q151.278 638.899 148.176 642.117 Q145.074 645.311 139.426 651.075 Z" fill="#000000" fill-rule="evenodd" fill-opacity="1" /><path clip-path="url(#clip490)" d="M165.607 620.45 L183.963 620.45 L183.963 624.386 L169.889 624.386 L169.889 632.858 Q170.908 632.511 171.926 632.348 Q172.945 632.163 173.963 632.163 Q179.75 632.163 183.13 635.335 Q186.509 638.506 186.509 643.922 Q186.509 649.501 183.037 652.603 Q179.565 655.682 173.246 655.682 Q171.07 655.682 168.801 655.311 Q166.556 654.941 164.148 654.2 L164.148 649.501 Q166.232 650.635 168.454 651.191 Q170.676 651.747 173.153 651.747 Q177.158 651.747 179.495 649.64 Q181.833 647.534 181.833 643.922 Q181.833 640.311 179.495 638.205 Q177.158 636.098 173.153 636.098 Q171.278 636.098 169.403 636.515 Q167.551 636.932 165.607 637.811 L165.607 620.45 Z" fill="#000000" fill-rule="evenodd" fill-opacity="1" /><path clip-path="url(#clip490)" d="M134.449 431.192 L152.806 431.192 L152.806 435.127 L138.732 435.127 L138.732 443.599 Q139.75 443.252 140.769 443.09 Q141.787 442.905 142.806 442.905 Q148.593 442.905 151.972 446.076 Q155.352 449.247 155.352 454.664 Q155.352 460.243 151.88 463.345 Q148.408 466.423 142.088 466.423 Q139.912 466.423 137.644 466.053 Q135.399 465.683 132.991 464.942 L132.991 460.243 Q135.074 461.377 137.297 461.933 Q139.519 462.488 141.996 462.488 Q146 462.488 148.338 460.382 Q150.676 458.275 150.676 454.664 Q150.676 451.053 148.338 448.947 Q146 446.84 141.996 446.84 Q140.121 446.84 138.246 447.257 Q136.394 447.673 134.449 448.553 L134.449 431.192 Z" fill="#000000" fill-rule="evenodd" fill-opacity="1" /><path clip-path="url(#clip490)" d="M174.565 434.271 Q170.954 434.271 169.125 437.835 Q167.32 441.377 167.32 448.507 Q167.32 455.613 169.125 459.178 Q170.954 462.72 174.565 462.72 Q178.199 462.72 180.005 459.178 Q181.833 455.613 181.833 448.507 Q181.833 441.377 180.005 437.835 Q178.199 434.271 174.565 434.271 M174.565 430.567 Q180.375 430.567 183.431 435.173 Q186.509 439.757 186.509 448.507 Q186.509 457.233 183.431 461.84 Q180.375 466.423 174.565 466.423 Q168.755 466.423 165.676 461.84 Q162.621 457.233 162.621 448.507 Q162.621 439.757 165.676 435.173 Q168.755 430.567 174.565 430.567 Z" fill="#000000" fill-rule="evenodd" fill-opacity="1" /><path clip-path="url(#clip490)" d="M134.218 241.934 L156.44 241.934 L156.44 243.924 L143.894 276.494 L139.01 276.494 L150.815 245.869 L134.218 245.869 L134.218 241.934 Z" fill="#000000" fill-rule="evenodd" fill-opacity="1" /><path clip-path="url(#clip490)" d="M165.607 241.934 L183.963 241.934 L183.963 245.869 L169.889 245.869 L169.889 254.341 Q170.908 253.994 171.926 253.832 Q172.945 253.646 173.963 253.646 Q179.75 253.646 183.13 256.818 Q186.509 259.989 186.509 265.406 Q186.509 270.984 183.037 274.086 Q179.565 277.165 173.246 277.165 Q171.07 277.165 168.801 276.794 Q166.556 276.424 164.148 275.683 L164.148 270.984 Q166.232 272.119 168.454 272.674 Q170.676 273.23 173.153 273.23 Q177.158 273.23 179.495 271.123 Q181.833 269.017 181.833 265.406 Q181.833 261.795 179.495 259.688 Q177.158 257.582 173.153 257.582 Q171.278 257.582 169.403 257.998 Q167.551 258.415 165.607 259.295 L165.607 241.934 Z" fill="#000000" fill-rule="evenodd" fill-opacity="1" /><path clip-path="url(#clip490)" d="M105.051 83.2999 L112.69 83.2999 L112.69 56.9343 L104.38 58.601 L104.38 54.3418 L112.644 52.6751 L117.32 52.6751 L117.32 83.2999 L124.959 83.2999 L124.959 87.2351 L105.051 87.2351 L105.051 83.2999 Z" fill="#000000" fill-rule="evenodd" fill-opacity="1" /><path clip-path="url(#clip490)" d="M144.403 55.7538 Q140.792 55.7538 138.963 59.3186 Q137.158 62.8602 137.158 69.9898 Q137.158 77.0963 138.963 80.6611 Q140.792 84.2027 144.403 84.2027 Q148.037 84.2027 149.843 80.6611 Q151.672 77.0963 151.672 69.9898 Q151.672 62.8602 149.843 59.3186 Q148.037 55.7538 144.403 55.7538 M144.403 52.0501 Q150.213 52.0501 153.269 56.6566 Q156.347 61.2399 156.347 69.9898 Q156.347 78.7166 153.269 83.3231 Q150.213 87.9064 144.403 87.9064 Q138.593 87.9064 135.514 83.3231 Q132.459 78.7166 132.459 69.9898 Q132.459 61.2399 135.514 56.6566 Q138.593 52.0501 144.403 52.0501 Z" fill="#000000" fill-rule="evenodd" fill-opacity="1" /><path clip-path="url(#clip490)" d="M174.565 55.7538 Q170.954 55.7538 169.125 59.3186 Q167.32 62.8602 167.32 69.9898 Q167.32 77.0963 169.125 80.6611 Q170.954 84.2027 174.565 84.2027 Q178.199 84.2027 180.005 80.6611 Q181.833 77.0963 181.833 69.9898 Q181.833 62.8602 180.005 59.3186 Q178.199 55.7538 174.565 55.7538 M174.565 52.0501 Q180.375 52.0501 183.431 56.6566 Q186.509 61.2399 186.509 69.9898 Q186.509 78.7166 183.431 83.3231 Q180.375 87.9064 174.565 87.9064 Q168.755 87.9064 165.676 83.3231 Q162.621 78.7166 162.621 69.9898 Q162.621 61.2399 165.676 56.6566 Q168.755 52.0501 174.565 52.0501 Z" fill="#000000" fill-rule="evenodd" fill-opacity="1" /><path clip-path="url(#clip490)" d="M25.8448 743.904 L31.3193 743.904 Q29.9507 746.387 29.2823 748.901 Q28.5821 751.384 28.5821 753.93 Q28.5821 759.628 32.2105 762.779 Q35.8072 765.93 42.332 765.93 Q48.8569 765.93 52.4853 762.779 Q56.0819 759.628 56.0819 753.93 Q56.0819 751.384 55.4135 748.901 Q54.7133 746.387 53.3447 743.904 L58.7555 743.904 Q59.9014 746.355 60.4743 748.997 Q61.0472 751.607 61.0472 754.567 Q61.0472 762.62 55.9864 767.362 Q50.9257 772.104 42.332 772.104 Q33.611 772.104 28.6139 767.33 Q23.6168 762.524 23.6168 754.185 Q23.6168 751.48 24.1897 748.901 Q24.7308 746.323 25.8448 743.904 Z" fill="#000000" fill-rule="evenodd" fill-opacity="1" /><path clip-path="url(#clip490)" d="M46.0559 734.324 L24.4762 734.324 L24.4762 728.468 L45.8331 728.468 Q50.8939 728.468 53.4402 726.494 Q55.9546 724.521 55.9546 720.574 Q55.9546 715.832 52.9309 713.094 Q49.9072 710.325 44.6873 710.325 L24.4762 710.325 L24.4762 704.469 L60.1242 704.469 L60.1242 710.325 L54.6496 710.325 Q57.8962 712.458 59.4876 715.291 Q61.0472 718.091 61.0472 721.815 Q61.0472 727.958 57.2278 731.141 Q53.4083 734.324 46.0559 734.324 M23.6168 719.587 L23.6168 719.587 Z" fill="#000000" fill-rule="evenodd" fill-opacity="1" /><path clip-path="url(#clip490)" d="M31.3193 664.651 Q27.3726 662.455 25.4947 659.4 Q23.6168 656.344 23.6168 652.206 Q23.6168 646.636 27.5317 643.613 Q31.4148 640.589 38.6081 640.589 L60.1242 640.589 L60.1242 646.477 L38.799 646.477 Q33.6746 646.477 31.192 648.291 Q28.7094 650.106 28.7094 653.83 Q28.7094 658.381 31.7331 661.023 Q34.7568 663.665 39.9767 663.665 L60.1242 663.665 L60.1242 669.553 L38.799 669.553 Q33.6428 669.553 31.192 671.367 Q28.7094 673.181 28.7094 676.969 Q28.7094 681.457 31.7649 684.099 Q34.7886 686.74 39.9767 686.74 L60.1242 686.74 L60.1242 692.629 L24.4762 692.629 L24.4762 686.74 L30.0144 686.74 Q26.736 684.735 25.1764 681.934 Q23.6168 679.133 23.6168 675.282 Q23.6168 671.399 25.5902 668.694 Q27.5636 665.956 31.3193 664.651 Z" fill="#000000" fill-rule="evenodd" fill-opacity="1" /><path clip-path="url(#clip490)" d="M46.0559 629.513 L24.4762 629.513 L24.4762 623.656 L45.8331 623.656 Q50.8939 623.656 53.4402 621.683 Q55.9546 619.709 55.9546 615.763 Q55.9546 611.02 52.9309 608.283 Q49.9072 605.514 44.6873 605.514 L24.4762 605.514 L24.4762 599.658 L60.1242 599.658 L60.1242 605.514 L54.6496 605.514 Q57.8962 607.646 59.4876 610.479 Q61.0472 613.28 61.0472 617.004 Q61.0472 623.147 57.2278 626.33 Q53.4083 629.513 46.0559 629.513 M23.6168 614.776 L23.6168 614.776 Z" fill="#000000" fill-rule="evenodd" fill-opacity="1" /><path clip-path="url(#clip490)" d="M10.599 587.594 L10.599 581.738 L60.1242 581.738 L60.1242 587.594 L10.599 587.594 Z" fill="#000000" fill-rule="evenodd" fill-opacity="1" /><path clip-path="url(#clip490)" d="M42.2047 553.283 Q42.2047 560.381 43.8279 563.118 Q45.4512 565.856 49.3661 565.856 Q52.4853 565.856 54.3314 563.819 Q56.1456 561.75 56.1456 558.217 Q56.1456 553.347 52.7081 550.419 Q49.2388 547.459 43.5097 547.459 L42.2047 547.459 L42.2047 553.283 M39.7857 541.602 L60.1242 541.602 L60.1242 547.459 L54.7133 547.459 Q57.9598 549.464 59.5194 552.456 Q61.0472 555.448 61.0472 559.776 Q61.0472 565.251 57.9916 568.497 Q54.9043 571.712 49.7481 571.712 Q43.7325 571.712 40.6769 567.702 Q37.6214 563.659 37.6214 555.67 L37.6214 547.459 L37.0485 547.459 Q33.0062 547.459 30.8101 550.132 Q28.5821 552.774 28.5821 557.58 Q28.5821 560.636 29.3141 563.532 Q30.0462 566.429 31.5103 569.102 L26.0995 569.102 Q24.8581 565.887 24.2534 562.864 Q23.6168 559.84 23.6168 556.975 Q23.6168 549.241 27.6272 545.422 Q31.6376 541.602 39.7857 541.602 Z" fill="#000000" fill-rule="evenodd" fill-opacity="1" /><path clip-path="url(#clip490)" d="M14.3547 523.746 L24.4762 523.746 L24.4762 511.683 L29.0277 511.683 L29.0277 523.746 L48.3794 523.746 Q52.7399 523.746 53.9813 522.569 Q55.2226 521.359 55.2226 517.699 L55.2226 511.683 L60.1242 511.683 L60.1242 517.699 Q60.1242 524.479 57.6097 527.057 Q55.0634 529.635 48.3794 529.635 L29.0277 529.635 L29.0277 533.932 L24.4762 533.932 L24.4762 529.635 L14.3547 529.635 L14.3547 523.746 Z" fill="#000000" fill-rule="evenodd" fill-opacity="1" /><path clip-path="url(#clip490)" d="M24.4762 503.981 L24.4762 498.124 L60.1242 498.124 L60.1242 503.981 L24.4762 503.981 M10.599 503.981 L10.599 498.124 L18.015 498.124 L18.015 503.981 L10.599 503.981 Z" fill="#000000" fill-rule="evenodd" fill-opacity="1" /><path clip-path="url(#clip490)" d="M24.4762 490.072 L24.4762 483.865 L54.395 472.725 L24.4762 461.585 L24.4762 455.379 L60.1242 468.747 L60.1242 476.704 L24.4762 490.072 Z" fill="#000000" fill-rule="evenodd" fill-opacity="1" /><path clip-path="url(#clip490)" d="M40.8361 416.803 L43.7006 416.803 L43.7006 443.73 Q49.7481 443.348 52.9309 440.101 Q56.0819 436.823 56.0819 430.998 Q56.0819 427.624 55.2544 424.473 Q54.4269 421.29 52.7718 418.171 L58.3099 418.171 Q59.6467 421.322 60.347 424.632 Q61.0472 427.943 61.0472 431.348 Q61.0472 439.878 56.0819 444.875 Q51.1167 449.841 42.6503 449.841 Q33.8974 449.841 28.7731 445.13 Q23.6168 440.388 23.6168 432.367 Q23.6168 425.173 28.2638 421.004 Q32.8789 416.803 40.8361 416.803 M39.1173 422.659 Q34.3112 422.723 31.4466 425.364 Q28.5821 427.974 28.5821 432.303 Q28.5821 437.205 31.3512 440.165 Q34.1202 443.093 39.1492 443.539 L39.1173 422.659 Z" fill="#000000" fill-rule="evenodd" fill-opacity="1" /><path clip-path="url(#clip490)" d="M25.5265 363.744 L31.0647 363.744 Q29.7916 366.227 29.155 368.901 Q28.5184 371.574 28.5184 374.439 Q28.5184 378.799 29.8552 380.995 Q31.192 383.16 33.8656 383.16 Q35.9026 383.16 37.0803 381.6 Q38.2261 380.041 39.2765 375.33 L39.7221 373.325 Q41.0589 367.086 43.5097 364.476 Q45.9286 361.835 50.2891 361.835 Q55.2544 361.835 58.1508 365.781 Q61.0472 369.696 61.0472 376.571 Q61.0472 379.436 60.4743 382.555 Q59.9332 385.642 58.8192 389.08 L52.7718 389.08 Q54.4587 385.833 55.318 382.682 Q56.1456 379.531 56.1456 376.444 Q56.1456 372.306 54.7451 370.078 Q53.3129 367.85 50.7347 367.85 Q48.3476 367.85 47.0745 369.474 Q45.8013 371.065 44.6237 376.508 L44.1462 378.545 Q43.0004 383.987 40.6451 386.406 Q38.258 388.825 34.1202 388.825 Q29.0913 388.825 26.3541 385.261 Q23.6168 381.696 23.6168 375.139 Q23.6168 371.893 24.0943 369.028 Q24.5717 366.163 25.5265 363.744 Z" fill="#000000" fill-rule="evenodd" fill-opacity="1" /><path clip-path="url(#clip490)" d="M42.2047 336.308 Q42.2047 343.406 43.8279 346.143 Q45.4512 348.88 49.3661 348.88 Q52.4853 348.88 54.3314 346.843 Q56.1456 344.775 56.1456 341.242 Q56.1456 336.372 52.7081 333.444 Q49.2388 330.484 43.5097 330.484 L42.2047 330.484 L42.2047 336.308 M39.7857 324.627 L60.1242 324.627 L60.1242 330.484 L54.7133 330.484 Q57.9598 332.489 59.5194 335.481 Q61.0472 338.473 61.0472 342.801 Q61.0472 348.276 57.9916 351.522 Q54.9043 354.737 49.7481 354.737 Q43.7325 354.737 40.6769 350.727 Q37.6214 346.684 37.6214 338.695 L37.6214 330.484 L37.0485 330.484 Q33.0062 330.484 30.8101 333.157 Q28.5821 335.799 28.5821 340.605 Q28.5821 343.661 29.3141 346.557 Q30.0462 349.453 31.5103 352.127 L26.0995 352.127 Q24.8581 348.912 24.2534 345.889 Q23.6168 342.865 23.6168 340 Q23.6168 332.266 27.6272 328.447 Q31.6376 324.627 39.7857 324.627 Z" fill="#000000" fill-rule="evenodd" fill-opacity="1" /><path clip-path="url(#clip490)" d="M31.3193 284.81 Q27.3726 282.613 25.4947 279.558 Q23.6168 276.502 23.6168 272.365 Q23.6168 266.795 27.5317 263.771 Q31.4148 260.747 38.6081 260.747 L60.1242 260.747 L60.1242 266.636 L38.799 266.636 Q33.6746 266.636 31.192 268.45 Q28.7094 270.264 28.7094 273.988 Q28.7094 278.539 31.7331 281.181 Q34.7568 283.823 39.9767 283.823 L60.1242 283.823 L60.1242 289.711 L38.799 289.711 Q33.6428 289.711 31.192 291.525 Q28.7094 293.34 28.7094 297.127 Q28.7094 301.615 31.7649 304.257 Q34.7886 306.899 39.9767 306.899 L60.1242 306.899 L60.1242 312.787 L24.4762 312.787 L24.4762 306.899 L30.0144 306.899 Q26.736 304.893 25.1764 302.093 Q23.6168 299.292 23.6168 295.44 Q23.6168 291.557 25.5902 288.852 Q27.5636 286.115 31.3193 284.81 Z" fill="#000000" fill-rule="evenodd" fill-opacity="1" /><path clip-path="url(#clip490)" d="M54.777 243.401 L73.6831 243.401 L73.6831 249.289 L24.4762 249.289 L24.4762 243.401 L29.8871 243.401 Q26.7042 241.555 25.1764 238.754 Q23.6168 235.921 23.6168 232.006 Q23.6168 225.513 28.7731 221.471 Q33.9293 217.397 42.332 217.397 Q50.7347 217.397 55.891 221.471 Q61.0472 225.513 61.0472 232.006 Q61.0472 235.921 59.5194 238.754 Q57.9598 241.555 54.777 243.401 M42.332 223.476 Q35.8708 223.476 32.2105 226.15 Q28.5184 228.791 28.5184 233.438 Q28.5184 238.085 32.2105 240.759 Q35.8708 243.401 42.332 243.401 Q48.7932 243.401 52.4853 240.759 Q56.1456 238.085 56.1456 233.438 Q56.1456 228.791 52.4853 226.15 Q48.7932 223.476 42.332 223.476 Z" fill="#000000" fill-rule="evenodd" fill-opacity="1" /><path clip-path="url(#clip490)" d="M10.599 207.689 L10.599 201.833 L60.1242 201.833 L60.1242 207.689 L10.599 207.689 Z" fill="#000000" fill-rule="evenodd" fill-opacity="1" /><path clip-path="url(#clip490)" d="M40.8361 159.087 L43.7006 159.087 L43.7006 186.014 Q49.7481 185.632 52.9309 182.385 Q56.0819 179.107 56.0819 173.282 Q56.0819 169.909 55.2544 166.758 Q54.4269 163.575 52.7718 160.456 L58.3099 160.456 Q59.6467 163.607 60.347 166.917 Q61.0472 170.227 61.0472 173.633 Q61.0472 182.163 56.0819 187.16 Q51.1167 192.125 42.6503 192.125 Q33.8974 192.125 28.7731 187.414 Q23.6168 182.672 23.6168 174.651 Q23.6168 167.458 28.2638 163.288 Q32.8789 159.087 40.8361 159.087 M39.1173 164.943 Q34.3112 165.007 31.4466 167.649 Q28.5821 170.259 28.5821 174.587 Q28.5821 179.489 31.3512 182.449 Q34.1202 185.377 39.1492 185.823 L39.1173 164.943 Z" fill="#000000" fill-rule="evenodd" fill-opacity="1" /><path clip-path="url(#clip490)" d="M25.5265 126.749 L31.0647 126.749 Q29.7916 129.232 29.155 131.905 Q28.5184 134.579 28.5184 137.444 Q28.5184 141.804 29.8552 144 Q31.192 146.165 33.8656 146.165 Q35.9026 146.165 37.0803 144.605 Q38.2261 143.045 39.2765 138.335 L39.7221 136.33 Q41.0589 130.091 43.5097 127.481 Q45.9286 124.839 50.2891 124.839 Q55.2544 124.839 58.1508 128.786 Q61.0472 132.701 61.0472 139.576 Q61.0472 142.441 60.4743 145.56 Q59.9332 148.647 58.8192 152.085 L52.7718 152.085 Q54.4587 148.838 55.318 145.687 Q56.1456 142.536 56.1456 139.449 Q56.1456 135.311 54.7451 133.083 Q53.3129 130.855 50.7347 130.855 Q48.3476 130.855 47.0745 132.478 Q45.8013 134.07 44.6237 139.512 L44.1462 141.549 Q43.0004 146.992 40.6451 149.411 Q38.258 151.83 34.1202 151.83 Q29.0913 151.83 26.3541 148.265 Q23.6168 144.7 23.6168 138.144 Q23.6168 134.897 24.0943 132.033 Q24.5717 129.168 25.5265 126.749 Z" fill="#000000" fill-rule="evenodd" fill-opacity="1" /><polyline clip-path="url(#clip492)" style="stroke:#009af9; stroke-linecap:butt; stroke-linejoin:round; stroke-width:4; stroke-opacity:1; fill:none" points="
  1903.62,826.989 1895.51,789.137 1887.4,781.567 1879.29,773.996 1871.18,751.285 1863.07,743.715 1854.96,728.574 1846.86,721.004 1838.75,713.434 1830.64,705.863 
  1822.53,690.723 1814.42,675.582 1806.31,668.012 1798.2,652.871 1790.09,645.301 1781.99,607.449 1773.88,599.879 1765.77,592.308 1757.66,584.738 1749.55,577.168 
  1741.44,562.027 1733.33,562.027 1725.22,531.746 1717.12,531.746 1709.01,509.035 1700.9,493.894 1692.79,486.324 1684.68,471.183 1676.57,456.042 1668.46,448.472 
  1660.35,433.331 1652.25,425.761 1644.14,425.761 1636.03,418.191 1627.92,380.339 1619.81,380.339 1611.7,380.339 1603.59,372.769 1595.48,365.198 1587.38,350.058 
  1579.27,342.487 1571.16,327.347 1563.05,304.636 1554.94,274.354 1546.83,274.354 1538.72,266.784 1530.61,236.503 1522.51,228.932 1514.4,213.792 1506.29,191.081 
  1498.18,175.94 1490.07,153.229 1481.96,107.807 1473.85,85.0958 1465.74,85.0958 1457.64,69.9551 1449.53,69.9551 1441.42,69.9551 1433.31,69.9551 1425.2,69.9551 
  1417.09,69.9551 1408.98,69.9551 1400.87,69.9551 1392.77,69.9551 1384.66,69.9551 1376.55,69.9551 1368.44,69.9551 1360.33,69.9551 1352.22,69.9551 1344.11,69.9551 
  1336,69.9551 1327.9,69.9551 1319.79,69.9551 1311.68,69.9551 1303.57,69.9551 1295.46,69.9551 1287.35,69.9551 1279.24,69.9551 1271.13,69.9551 1263.03,69.9551 
  1254.92,69.9551 1246.81,69.9551 1238.7,69.9551 1230.59,69.9551 1222.48,69.9551 1214.37,69.9551 1206.26,69.9551 1198.16,69.9551 1190.05,69.9551 1181.94,69.9551 
  1173.83,69.9551 1165.72,69.9551 1157.61,69.9551 1149.5,69.9551 1141.39,69.9551 1133.29,69.9551 1125.18,69.9551 1117.07,69.9551 1108.96,69.9551 1100.85,69.9551 
  1092.74,69.9551 1084.63,69.9551 1076.52,69.9551 1068.42,69.9551 1060.31,69.9551 1052.2,69.9551 1044.09,69.9551 1035.98,69.9551 1027.87,69.9551 1019.76,69.9551 
  1011.65,69.9551 1003.55,69.9551 995.436,69.9551 987.328,69.9551 979.219,69.9551 971.11,69.9551 963.001,69.9551 954.893,69.9551 946.784,69.9551 938.675,69.9551 
  930.566,69.9551 922.458,69.9551 914.349,69.9551 906.24,69.9551 898.131,69.9551 890.023,69.9551 881.914,69.9551 873.805,69.9551 865.696,69.9551 857.587,69.9551 
  849.479,69.9551 841.37,69.9551 833.261,69.9551 825.152,69.9551 817.044,69.9551 808.935,69.9551 800.826,69.9551 792.717,69.9551 784.609,69.9551 776.5,69.9551 
  768.391,69.9551 760.282,69.9551 752.174,69.9551 744.065,69.9551 735.956,69.9551 727.847,69.9551 719.739,69.9551 711.63,69.9551 703.521,69.9551 695.412,69.9551 
  687.304,69.9551 679.195,69.9551 671.086,69.9551 662.977,69.9551 654.869,69.9551 646.76,69.9551 638.651,69.9551 630.542,69.9551 622.434,69.9551 614.325,69.9551 
  606.216,69.9551 598.107,69.9551 589.999,69.9551 581.89,69.9551 573.781,69.9551 565.672,69.9551 557.564,69.9551 549.455,69.9551 541.346,69.9551 533.237,69.9551 
  525.129,69.9551 517.02,69.9551 508.911,69.9551 500.802,69.9551 492.694,69.9551 484.585,69.9551 476.476,69.9551 468.367,69.9551 460.259,69.9551 452.15,69.9551 
  444.041,69.9551 435.932,69.9551 427.823,69.9551 419.715,69.9551 411.606,69.9551 403.497,69.9551 395.388,69.9551 387.28,69.9551 379.171,69.9551 371.062,69.9551 
  362.953,69.9551 354.845,69.9551 346.736,69.9551 338.627,69.9551 330.518,69.9551 322.41,69.9551 314.301,69.9551 306.192,69.9551 298.083,69.9551 289.975,69.9551 
  281.866,69.9551 273.757,69.9551 265.648,69.9551 
  "/>
</svg>
