<?xml version="1.0" encoding="utf-8"?>
<svg xmlns="http://www.w3.org/2000/svg" xmlns:xlink="http://www.w3.org/1999/xlink" width="500" height="250" viewBox="0 0 2000 1000">
<defs>
  <clipPath id="clip890">
    <rect x="0" y="0" width="2000" height="1000"/>
  </clipPath>
</defs>
<path clip-path="url(#clip890)" d="
M0 1000 L2000 1000 L2000 0 L0 0  Z
  " fill="#ffffff" fill-rule="evenodd" fill-opacity="1"/>
<defs>
  <clipPath id="clip891">
    <rect x="400" y="0" width="1401" height="1000"/>
  </clipPath>
</defs>
<path clip-path="url(#clip890)" d="
M353.823 849.7 L1952.76 849.7 L1952.76 47.2441 L353.823 47.2441  Z
  " fill="#ffffff" fill-rule="evenodd" fill-opacity="1"/>
<defs>
  <clipPath id="clip892">
    <rect x="353" y="47" width="1600" height="803"/>
  </clipPath>
</defs>
<polyline clip-path="url(#clip892)" style="stroke:#000000; stroke-linecap:butt; stroke-linejoin:round; stroke-width:2; stroke-opacity:0.1; fill:none" points="
  1907.5,849.7 1907.5,47.2441 
  "/>
<polyline clip-path="url(#clip892)" style="stroke:#000000; stroke-linecap:butt; stroke-linejoin:round; stroke-width:2; stroke-opacity:0.1; fill:none" points="
  1584.84,849.7 1584.84,47.2441 
  "/>
<polyline clip-path="url(#clip892)" style="stroke:#000000; stroke-linecap:butt; stroke-linejoin:round; stroke-width:2; stroke-opacity:0.1; fill:none" points="
  1262.19,849.7 1262.19,47.2441 
  "/>
<polyline clip-path="url(#clip892)" style="stroke:#000000; stroke-linecap:butt; stroke-linejoin:round; stroke-width:2; stroke-opacity:0.1; fill:none" points="
  939.529,849.7 939.529,47.2441 
  "/>
<polyline clip-path="url(#clip892)" style="stroke:#000000; stroke-linecap:butt; stroke-linejoin:round; stroke-width:2; stroke-opacity:0.1; fill:none" points="
  616.87,849.7 616.87,47.2441 
  "/>
<polyline clip-path="url(#clip890)" style="stroke:#000000; stroke-linecap:butt; stroke-linejoin:round; stroke-width:4; stroke-opacity:1; fill:none" points="
  1952.76,849.7 353.823,849.7 
  "/>
<polyline clip-path="url(#clip890)" style="stroke:#000000; stroke-linecap:butt; stroke-linejoin:round; stroke-width:4; stroke-opacity:1; fill:none" points="
  1907.5,849.7 1907.5,830.802 
  "/>
<polyline clip-path="url(#clip890)" style="stroke:#000000; stroke-linecap:butt; stroke-linejoin:round; stroke-width:4; stroke-opacity:1; fill:none" points="
  1584.84,849.7 1584.84,830.802 
  "/>
<polyline clip-path="url(#clip890)" style="stroke:#000000; stroke-linecap:butt; stroke-linejoin:round; stroke-width:4; stroke-opacity:1; fill:none" points="
  1262.19,849.7 1262.19,830.802 
  "/>
<polyline clip-path="url(#clip890)" style="stroke:#000000; stroke-linecap:butt; stroke-linejoin:round; stroke-width:4; stroke-opacity:1; fill:none" points="
  939.529,849.7 939.529,830.802 
  "/>
<polyline clip-path="url(#clip890)" style="stroke:#000000; stroke-linecap:butt; stroke-linejoin:round; stroke-width:4; stroke-opacity:1; fill:none" points="
  616.87,849.7 616.87,830.802 
  "/>
<path clip-path="url(#clip890)" d="M1907.5 877.419 Q1903.89 877.419 1902.06 880.983 Q1900.26 884.525 1900.26 891.655 Q1900.26 898.761 1902.06 902.326 Q1903.89 905.867 1907.5 905.867 Q1911.14 905.867 1912.94 902.326 Q1914.77 898.761 1914.77 891.655 Q1914.77 884.525 1912.94 880.983 Q1911.14 877.419 1907.5 877.419 M1907.5 873.715 Q1913.31 873.715 1916.37 878.321 Q1919.45 882.905 1919.45 891.655 Q1919.45 900.381 1916.37 904.988 Q1913.31 909.571 1907.5 909.571 Q1901.69 909.571 1898.61 904.988 Q1895.56 900.381 1895.56 891.655 Q1895.56 882.905 1898.61 878.321 Q1901.69 873.715 1907.5 873.715 Z" fill="#000000" fill-rule="evenodd" fill-opacity="1" /><path clip-path="url(#clip890)" d="M1563.62 904.965 L1579.94 904.965 L1579.94 908.9 L1557.99 908.9 L1557.99 904.965 Q1560.66 902.21 1565.24 897.58 Q1569.85 892.928 1571.03 891.585 Q1573.27 889.062 1574.15 887.326 Q1575.05 885.567 1575.05 883.877 Q1575.05 881.122 1573.11 879.386 Q1571.19 877.65 1568.09 877.65 Q1565.89 877.65 1563.43 878.414 Q1561 879.178 1558.22 880.729 L1558.22 876.007 Q1561.05 874.872 1563.5 874.294 Q1565.96 873.715 1567.99 873.715 Q1573.36 873.715 1576.56 876.4 Q1579.75 879.085 1579.75 883.576 Q1579.75 885.706 1578.94 887.627 Q1578.16 889.525 1576.05 892.118 Q1575.47 892.789 1572.37 896.006 Q1569.27 899.201 1563.62 904.965 Z" fill="#000000" fill-rule="evenodd" fill-opacity="1" /><path clip-path="url(#clip890)" d="M1599.75 877.419 Q1596.14 877.419 1594.31 880.983 Q1592.51 884.525 1592.51 891.655 Q1592.51 898.761 1594.31 902.326 Q1596.14 905.867 1599.75 905.867 Q1603.39 905.867 1605.19 902.326 Q1607.02 898.761 1607.02 891.655 Q1607.02 884.525 1605.19 880.983 Q1603.39 877.419 1599.75 877.419 M1599.75 873.715 Q1605.56 873.715 1608.62 878.321 Q1611.7 882.905 1611.7 891.655 Q1611.7 900.381 1608.62 904.988 Q1605.56 909.571 1599.75 909.571 Q1593.94 909.571 1590.86 904.988 Q1587.81 900.381 1587.81 891.655 Q1587.81 882.905 1590.86 878.321 Q1593.94 873.715 1599.75 873.715 Z" fill="#000000" fill-rule="evenodd" fill-opacity="1" /><path clip-path="url(#clip890)" d="M1250.36 878.414 L1238.55 896.863 L1250.36 896.863 L1250.36 878.414 M1249.13 874.34 L1255.01 874.34 L1255.01 896.863 L1259.94 896.863 L1259.94 900.752 L1255.01 900.752 L1255.01 908.9 L1250.36 908.9 L1250.36 900.752 L1234.76 900.752 L1234.76 896.238 L1249.13 874.34 Z" fill="#000000" fill-rule="evenodd" fill-opacity="1" /><path clip-path="url(#clip890)" d="M1277.67 877.419 Q1274.06 877.419 1272.23 880.983 Q1270.43 884.525 1270.43 891.655 Q1270.43 898.761 1272.23 902.326 Q1274.06 905.867 1277.67 905.867 Q1281.31 905.867 1283.11 902.326 Q1284.94 898.761 1284.94 891.655 Q1284.94 884.525 1283.11 880.983 Q1281.31 877.419 1277.67 877.419 M1277.67 873.715 Q1283.48 873.715 1286.54 878.321 Q1289.62 882.905 1289.62 891.655 Q1289.62 900.381 1286.54 904.988 Q1283.48 909.571 1277.67 909.571 Q1271.86 909.571 1268.78 904.988 Q1265.73 900.381 1265.73 891.655 Q1265.73 882.905 1268.78 878.321 Q1271.86 873.715 1277.67 873.715 Z" fill="#000000" fill-rule="evenodd" fill-opacity="1" /><path clip-path="url(#clip890)" d="M924.934 889.756 Q921.786 889.756 919.934 891.909 Q918.105 894.062 918.105 897.812 Q918.105 901.539 919.934 903.715 Q921.786 905.867 924.934 905.867 Q928.082 905.867 929.911 903.715 Q931.762 901.539 931.762 897.812 Q931.762 894.062 929.911 891.909 Q928.082 889.756 924.934 889.756 M934.216 875.104 L934.216 879.363 Q932.457 878.53 930.651 878.09 Q928.869 877.65 927.11 877.65 Q922.48 877.65 920.026 880.775 Q917.596 883.9 917.249 890.219 Q918.614 888.206 920.675 887.141 Q922.735 886.053 925.212 886.053 Q930.42 886.053 933.429 889.224 Q936.462 892.372 936.462 897.812 Q936.462 903.136 933.313 906.354 Q930.165 909.571 924.934 909.571 Q918.938 909.571 915.767 904.988 Q912.596 900.381 912.596 891.655 Q912.596 883.46 916.485 878.599 Q920.374 873.715 926.925 873.715 Q928.684 873.715 930.466 874.062 Q932.272 874.409 934.216 875.104 Z" fill="#000000" fill-rule="evenodd" fill-opacity="1" /><path clip-path="url(#clip890)" d="M954.517 877.419 Q950.906 877.419 949.077 880.983 Q947.272 884.525 947.272 891.655 Q947.272 898.761 949.077 902.326 Q950.906 905.867 954.517 905.867 Q958.151 905.867 959.957 902.326 Q961.785 898.761 961.785 891.655 Q961.785 884.525 959.957 880.983 Q958.151 877.419 954.517 877.419 M954.517 873.715 Q960.327 873.715 963.383 878.321 Q966.461 882.905 966.461 891.655 Q966.461 900.381 963.383 904.988 Q960.327 909.571 954.517 909.571 Q948.707 909.571 945.628 904.988 Q942.573 900.381 942.573 891.655 Q942.573 882.905 945.628 878.321 Q948.707 873.715 954.517 873.715 Z" fill="#000000" fill-rule="evenodd" fill-opacity="1" /><path clip-path="url(#clip890)" d="M601.743 892.488 Q598.41 892.488 596.489 894.27 Q594.591 896.053 594.591 899.178 Q594.591 902.303 596.489 904.085 Q598.41 905.867 601.743 905.867 Q605.077 905.867 606.998 904.085 Q608.919 902.28 608.919 899.178 Q608.919 896.053 606.998 894.27 Q605.1 892.488 601.743 892.488 M597.067 890.497 Q594.058 889.756 592.368 887.696 Q590.702 885.636 590.702 882.673 Q590.702 878.53 593.641 876.122 Q596.604 873.715 601.743 873.715 Q606.905 873.715 609.845 876.122 Q612.785 878.53 612.785 882.673 Q612.785 885.636 611.095 887.696 Q609.428 889.756 606.442 890.497 Q609.822 891.284 611.697 893.576 Q613.595 895.868 613.595 899.178 Q613.595 904.201 610.516 906.886 Q607.461 909.571 601.743 909.571 Q596.026 909.571 592.947 906.886 Q589.891 904.201 589.891 899.178 Q589.891 895.868 591.79 893.576 Q593.688 891.284 597.067 890.497 M595.354 883.113 Q595.354 885.798 597.021 887.303 Q598.711 888.807 601.743 888.807 Q604.752 888.807 606.442 887.303 Q608.155 885.798 608.155 883.113 Q608.155 880.428 606.442 878.923 Q604.752 877.419 601.743 877.419 Q598.711 877.419 597.021 878.923 Q595.354 880.428 595.354 883.113 Z" fill="#000000" fill-rule="evenodd" fill-opacity="1" /><path clip-path="url(#clip890)" d="M631.905 877.419 Q628.294 877.419 626.465 880.983 Q624.66 884.525 624.66 891.655 Q624.66 898.761 626.465 902.326 Q628.294 905.867 631.905 905.867 Q635.539 905.867 637.345 902.326 Q639.174 898.761 639.174 891.655 Q639.174 884.525 637.345 880.983 Q635.539 877.419 631.905 877.419 M631.905 873.715 Q637.715 873.715 640.771 878.321 Q643.85 882.905 643.85 891.655 Q643.85 900.381 640.771 904.988 Q637.715 909.571 631.905 909.571 Q626.095 909.571 623.016 904.988 Q619.961 900.381 619.961 891.655 Q619.961 882.905 623.016 878.321 Q626.095 873.715 631.905 873.715 Z" fill="#000000" fill-rule="evenodd" fill-opacity="1" /><path clip-path="url(#clip890)" d="M1092.45 942.794 L1092.45 952.916 L1104.51 952.916 L1104.51 957.467 L1092.45 957.467 L1092.45 976.819 Q1092.45 981.18 1093.63 982.421 Q1094.84 983.662 1098.5 983.662 L1104.51 983.662 L1104.51 988.564 L1098.5 988.564 Q1091.72 988.564 1089.14 986.049 Q1086.56 983.503 1086.56 976.819 L1086.56 957.467 L1082.26 957.467 L1082.26 952.916 L1086.56 952.916 L1086.56 942.794 L1092.45 942.794 Z" fill="#000000" fill-rule="evenodd" fill-opacity="1" /><path clip-path="url(#clip890)" d="M1112.21 952.916 L1118.07 952.916 L1118.07 988.564 L1112.21 988.564 L1112.21 952.916 M1112.21 939.039 L1118.07 939.039 L1118.07 946.455 L1112.21 946.455 L1112.21 939.039 Z" fill="#000000" fill-rule="evenodd" fill-opacity="1" /><path clip-path="url(#clip890)" d="M1158.08 959.759 Q1160.28 955.812 1163.33 953.934 Q1166.39 952.057 1170.52 952.057 Q1176.09 952.057 1179.12 955.971 Q1182.14 959.855 1182.14 967.048 L1182.14 988.564 L1176.25 988.564 L1176.25 967.239 Q1176.25 962.114 1174.44 959.632 Q1172.63 957.149 1168.9 957.149 Q1164.35 957.149 1161.71 960.173 Q1159.07 963.197 1159.07 968.416 L1159.07 988.564 L1153.18 988.564 L1153.18 967.239 Q1153.18 962.083 1151.36 959.632 Q1149.55 957.149 1145.76 957.149 Q1141.27 957.149 1138.63 960.205 Q1135.99 963.228 1135.99 968.416 L1135.99 988.564 L1130.1 988.564 L1130.1 952.916 L1135.99 952.916 L1135.99 958.454 Q1138 955.176 1140.8 953.616 Q1143.6 952.057 1147.45 952.057 Q1151.33 952.057 1154.04 954.03 Q1156.77 956.003 1158.08 959.759 Z" fill="#000000" fill-rule="evenodd" fill-opacity="1" /><path clip-path="url(#clip890)" d="M1224.32 969.276 L1224.32 972.14 L1197.39 972.14 Q1197.77 978.188 1201.02 981.371 Q1204.29 984.522 1210.12 984.522 Q1213.49 984.522 1216.64 983.694 Q1219.83 982.867 1222.95 981.211 L1222.95 986.75 Q1219.8 988.086 1216.49 988.787 Q1213.18 989.487 1209.77 989.487 Q1201.24 989.487 1196.24 984.522 Q1191.28 979.556 1191.28 971.09 Q1191.28 962.337 1195.99 957.213 Q1200.73 952.057 1208.75 952.057 Q1215.94 952.057 1220.11 956.703 Q1224.32 961.319 1224.32 969.276 M1218.46 967.557 Q1218.39 962.751 1215.75 959.886 Q1213.14 957.022 1208.81 957.022 Q1203.91 957.022 1200.95 959.791 Q1198.02 962.56 1197.58 967.589 L1218.46 967.557 Z" fill="#000000" fill-rule="evenodd" fill-opacity="1" /><polyline clip-path="url(#clip892)" style="stroke:#000000; stroke-linecap:butt; stroke-linejoin:round; stroke-width:2; stroke-opacity:0.1; fill:none" points="
  1952.76,827.055 353.823,827.055 
  "/>
<polyline clip-path="url(#clip892)" style="stroke:#000000; stroke-linecap:butt; stroke-linejoin:round; stroke-width:2; stroke-opacity:0.1; fill:none" points="
  1952.76,637.78 353.823,637.78 
  "/>
<polyline clip-path="url(#clip892)" style="stroke:#000000; stroke-linecap:butt; stroke-linejoin:round; stroke-width:2; stroke-opacity:0.1; fill:none" points="
  1952.76,448.505 353.823,448.505 
  "/>
<polyline clip-path="url(#clip892)" style="stroke:#000000; stroke-linecap:butt; stroke-linejoin:round; stroke-width:2; stroke-opacity:0.1; fill:none" points="
  1952.76,259.23 353.823,259.23 
  "/>
<polyline clip-path="url(#clip892)" style="stroke:#000000; stroke-linecap:butt; stroke-linejoin:round; stroke-width:2; stroke-opacity:0.1; fill:none" points="
  1952.76,69.9551 353.823,69.9551 
  "/>
<polyline clip-path="url(#clip890)" style="stroke:#000000; stroke-linecap:butt; stroke-linejoin:round; stroke-width:4; stroke-opacity:1; fill:none" points="
  353.823,849.7 353.823,47.2441 
  "/>
<polyline clip-path="url(#clip890)" style="stroke:#000000; stroke-linecap:butt; stroke-linejoin:round; stroke-width:4; stroke-opacity:1; fill:none" points="
  353.823,827.055 372.721,827.055 
  "/>
<polyline clip-path="url(#clip890)" style="stroke:#000000; stroke-linecap:butt; stroke-linejoin:round; stroke-width:4; stroke-opacity:1; fill:none" points="
  353.823,637.78 372.721,637.78 
  "/>
<polyline clip-path="url(#clip890)" style="stroke:#000000; stroke-linecap:butt; stroke-linejoin:round; stroke-width:4; stroke-opacity:1; fill:none" points="
  353.823,448.505 372.721,448.505 
  "/>
<polyline clip-path="url(#clip890)" style="stroke:#000000; stroke-linecap:butt; stroke-linejoin:round; stroke-width:4; stroke-opacity:1; fill:none" points="
  353.823,259.23 372.721,259.23 
  "/>
<polyline clip-path="url(#clip890)" style="stroke:#000000; stroke-linecap:butt; stroke-linejoin:round; stroke-width:4; stroke-opacity:1; fill:none" points="
  353.823,69.9551 372.721,69.9551 
  "/>
<path clip-path="url(#clip890)" d="M311.879 812.853 Q308.268 812.853 306.439 816.418 Q304.634 819.96 304.634 827.089 Q304.634 834.196 306.439 837.761 Q308.268 841.302 311.879 841.302 Q315.513 841.302 317.319 837.761 Q319.148 834.196 319.148 827.089 Q319.148 819.96 317.319 816.418 Q315.513 812.853 311.879 812.853 M311.879 809.15 Q317.689 809.15 320.745 813.756 Q323.823 818.339 323.823 827.089 Q323.823 835.816 320.745 840.423 Q317.689 845.006 311.879 845.006 Q306.069 845.006 302.99 840.423 Q299.935 835.816 299.935 827.089 Q299.935 818.339 302.99 813.756 Q306.069 809.15 311.879 809.15 Z" fill="#000000" fill-rule="evenodd" fill-opacity="1" /><path clip-path="url(#clip890)" d="M110.005 657.572 L126.324 657.572 L126.324 661.507 L104.38 661.507 L104.38 657.572 Q107.042 654.818 111.625 650.188 Q116.232 645.535 117.412 644.193 Q119.658 641.67 120.537 639.933 Q121.44 638.174 121.44 636.484 Q121.44 633.73 119.496 631.994 Q117.575 630.258 114.473 630.258 Q112.274 630.258 109.82 631.021 Q107.389 631.785 104.612 633.336 L104.612 628.614 Q107.436 627.48 109.889 626.901 Q112.343 626.322 114.38 626.322 Q119.75 626.322 122.945 629.008 Q126.139 631.693 126.139 636.183 Q126.139 638.313 125.329 640.234 Q124.542 642.132 122.436 644.725 Q121.857 645.396 118.755 648.614 Q115.653 651.808 110.005 657.572 Z" fill="#000000" fill-rule="evenodd" fill-opacity="1" /><path clip-path="url(#clip890)" d="M136.139 655.628 L141.023 655.628 L141.023 661.507 L136.139 661.507 L136.139 655.628 Z" fill="#000000" fill-rule="evenodd" fill-opacity="1" /><path clip-path="url(#clip890)" d="M151.255 626.947 L169.611 626.947 L169.611 630.883 L155.537 630.883 L155.537 639.355 Q156.556 639.008 157.574 638.845 Q158.593 638.66 159.611 638.66 Q165.398 638.66 168.778 641.832 Q172.158 645.003 172.158 650.419 Q172.158 655.998 168.685 659.1 Q165.213 662.179 158.894 662.179 Q156.718 662.179 154.449 661.808 Q152.204 661.438 149.797 660.697 L149.797 655.998 Q151.88 657.132 154.102 657.688 Q156.324 658.244 158.801 658.244 Q162.806 658.244 165.144 656.137 Q167.482 654.031 167.482 650.419 Q167.482 646.808 165.144 644.702 Q162.806 642.595 158.801 642.595 Q156.926 642.595 155.051 643.012 Q153.199 643.429 151.255 644.308 L151.255 626.947 Z" fill="#000000" fill-rule="evenodd" fill-opacity="1" /><path clip-path="url(#clip890)" d="M191.37 630.026 Q187.759 630.026 185.931 633.591 Q184.125 637.133 184.125 644.262 Q184.125 651.369 185.931 654.933 Q187.759 658.475 191.37 658.475 Q195.005 658.475 196.81 654.933 Q198.639 651.369 198.639 644.262 Q198.639 637.133 196.81 633.591 Q195.005 630.026 191.37 630.026 M191.37 626.322 Q197.181 626.322 200.236 630.929 Q203.315 635.512 203.315 644.262 Q203.315 652.989 200.236 657.595 Q197.181 662.179 191.37 662.179 Q185.56 662.179 182.482 657.595 Q179.426 652.989 179.426 644.262 Q179.426 635.512 182.482 630.929 Q185.56 626.322 191.37 626.322 Z" fill="#000000" fill-rule="evenodd" fill-opacity="1" /><path clip-path="url(#clip890)" d="M239.704 636.045 L229.125 646.669 L239.704 657.248 L236.949 660.049 L226.324 649.424 L215.699 660.049 L212.968 657.248 L223.523 646.669 L212.968 636.045 L215.699 633.244 L226.324 643.869 L236.949 633.244 L239.704 636.045 Z" fill="#000000" fill-rule="evenodd" fill-opacity="1" /><path clip-path="url(#clip890)" d="M252.065 657.572 L259.703 657.572 L259.703 631.207 L251.393 632.873 L251.393 628.614 L259.657 626.947 L264.333 626.947 L264.333 657.572 L271.972 657.572 L271.972 661.507 L252.065 661.507 L252.065 657.572 Z" fill="#000000" fill-rule="evenodd" fill-opacity="1" /><path clip-path="url(#clip890)" d="M291.416 630.026 Q287.805 630.026 285.976 633.591 Q284.171 637.133 284.171 644.262 Q284.171 651.369 285.976 654.933 Q287.805 658.475 291.416 658.475 Q295.05 658.475 296.856 654.933 Q298.685 651.369 298.685 644.262 Q298.685 637.133 296.856 633.591 Q295.05 630.026 291.416 630.026 M291.416 626.322 Q297.226 626.322 300.282 630.929 Q303.361 635.512 303.361 644.262 Q303.361 652.989 300.282 657.595 Q297.226 662.179 291.416 662.179 Q285.606 662.179 282.527 657.595 Q279.472 652.989 279.472 644.262 Q279.472 635.512 282.527 630.929 Q285.606 626.322 291.416 626.322 Z" fill="#000000" fill-rule="evenodd" fill-opacity="1" /><path clip-path="url(#clip890)" d="M316.037 609.327 L306.445 624.317 L316.037 624.317 L316.037 609.327 M315.04 606.017 L319.817 606.017 L319.817 624.317 L323.823 624.317 L323.823 627.477 L319.817 627.477 L319.817 634.097 L316.037 634.097 L316.037 627.477 L303.361 627.477 L303.361 623.809 L315.04 606.017 Z" fill="#000000" fill-rule="evenodd" fill-opacity="1" /><path clip-path="url(#clip890)" d="M106.024 437.672 L124.38 437.672 L124.38 441.608 L110.306 441.608 L110.306 450.08 Q111.325 449.733 112.343 449.571 Q113.362 449.385 114.38 449.385 Q120.167 449.385 123.547 452.557 Q126.926 455.728 126.926 461.145 Q126.926 466.723 123.454 469.825 Q119.982 472.904 113.663 472.904 Q111.487 472.904 109.218 472.533 Q106.973 472.163 104.565 471.422 L104.565 466.723 Q106.649 467.858 108.871 468.413 Q111.093 468.969 113.57 468.969 Q117.575 468.969 119.912 466.862 Q122.25 464.756 122.25 461.145 Q122.25 457.533 119.912 455.427 Q117.575 453.321 113.57 453.321 Q111.695 453.321 109.82 453.737 Q107.968 454.154 106.024 455.034 L106.024 437.672 Z" fill="#000000" fill-rule="evenodd" fill-opacity="1" /><path clip-path="url(#clip890)" d="M136.139 466.353 L141.023 466.353 L141.023 472.232 L136.139 472.232 L136.139 466.353 Z" fill="#000000" fill-rule="evenodd" fill-opacity="1" /><path clip-path="url(#clip890)" d="M161.209 440.751 Q157.597 440.751 155.769 444.316 Q153.963 447.858 153.963 454.987 Q153.963 462.094 155.769 465.658 Q157.597 469.2 161.209 469.2 Q164.843 469.2 166.648 465.658 Q168.477 462.094 168.477 454.987 Q168.477 447.858 166.648 444.316 Q164.843 440.751 161.209 440.751 M161.209 437.047 Q167.019 437.047 170.074 441.654 Q173.153 446.237 173.153 454.987 Q173.153 463.714 170.074 468.32 Q167.019 472.904 161.209 472.904 Q155.398 472.904 152.32 468.32 Q149.264 463.714 149.264 454.987 Q149.264 446.237 152.32 441.654 Q155.398 437.047 161.209 437.047 Z" fill="#000000" fill-rule="evenodd" fill-opacity="1" /><path clip-path="url(#clip890)" d="M191.37 440.751 Q187.759 440.751 185.931 444.316 Q184.125 447.858 184.125 454.987 Q184.125 462.094 185.931 465.658 Q187.759 469.2 191.37 469.2 Q195.005 469.2 196.81 465.658 Q198.639 462.094 198.639 454.987 Q198.639 447.858 196.81 444.316 Q195.005 440.751 191.37 440.751 M191.37 437.047 Q197.181 437.047 200.236 441.654 Q203.315 446.237 203.315 454.987 Q203.315 463.714 200.236 468.32 Q197.181 472.904 191.37 472.904 Q185.56 472.904 182.482 468.32 Q179.426 463.714 179.426 454.987 Q179.426 446.237 182.482 441.654 Q185.56 437.047 191.37 437.047 Z" fill="#000000" fill-rule="evenodd" fill-opacity="1" /><path clip-path="url(#clip890)" d="M239.704 446.77 L229.125 457.395 L239.704 467.973 L236.949 470.774 L226.324 460.149 L215.699 470.774 L212.968 467.973 L223.523 457.395 L212.968 446.77 L215.699 443.969 L226.324 454.594 L236.949 443.969 L239.704 446.77 Z" fill="#000000" fill-rule="evenodd" fill-opacity="1" /><path clip-path="url(#clip890)" d="M252.065 468.297 L259.703 468.297 L259.703 441.932 L251.393 443.598 L251.393 439.339 L259.657 437.672 L264.333 437.672 L264.333 468.297 L271.972 468.297 L271.972 472.232 L252.065 472.232 L252.065 468.297 Z" fill="#000000" fill-rule="evenodd" fill-opacity="1" /><path clip-path="url(#clip890)" d="M291.416 440.751 Q287.805 440.751 285.976 444.316 Q284.171 447.858 284.171 454.987 Q284.171 462.094 285.976 465.658 Q287.805 469.2 291.416 469.2 Q295.05 469.2 296.856 465.658 Q298.685 462.094 298.685 454.987 Q298.685 447.858 296.856 444.316 Q295.05 440.751 291.416 440.751 M291.416 437.047 Q297.226 437.047 300.282 441.654 Q303.361 446.237 303.361 454.987 Q303.361 463.714 300.282 468.32 Q297.226 472.904 291.416 472.904 Q285.606 472.904 282.527 468.32 Q279.472 463.714 279.472 454.987 Q279.472 446.237 282.527 441.654 Q285.606 437.047 291.416 437.047 Z" fill="#000000" fill-rule="evenodd" fill-opacity="1" /><path clip-path="url(#clip890)" d="M316.037 420.052 L306.445 435.042 L316.037 435.042 L316.037 420.052 M315.04 416.742 L319.817 416.742 L319.817 435.042 L323.823 435.042 L323.823 438.202 L319.817 438.202 L319.817 444.822 L316.037 444.822 L316.037 438.202 L303.361 438.202 L303.361 434.534 L315.04 416.742 Z" fill="#000000" fill-rule="evenodd" fill-opacity="1" /><path clip-path="url(#clip890)" d="M104.797 248.398 L127.019 248.398 L127.019 250.388 L114.473 282.958 L109.588 282.958 L121.394 252.333 L104.797 252.333 L104.797 248.398 Z" fill="#000000" fill-rule="evenodd" fill-opacity="1" /><path clip-path="url(#clip890)" d="M136.139 277.078 L141.023 277.078 L141.023 282.958 L136.139 282.958 L136.139 277.078 Z" fill="#000000" fill-rule="evenodd" fill-opacity="1" /><path clip-path="url(#clip890)" d="M151.255 248.398 L169.611 248.398 L169.611 252.333 L155.537 252.333 L155.537 260.805 Q156.556 260.458 157.574 260.296 Q158.593 260.11 159.611 260.11 Q165.398 260.11 168.778 263.282 Q172.158 266.453 172.158 271.87 Q172.158 277.448 168.685 280.55 Q165.213 283.629 158.894 283.629 Q156.718 283.629 154.449 283.259 Q152.204 282.888 149.797 282.147 L149.797 277.448 Q151.88 278.583 154.102 279.138 Q156.324 279.694 158.801 279.694 Q162.806 279.694 165.144 277.587 Q167.482 275.481 167.482 271.87 Q167.482 268.259 165.144 266.152 Q162.806 264.046 158.801 264.046 Q156.926 264.046 155.051 264.462 Q153.199 264.879 151.255 265.759 L151.255 248.398 Z" fill="#000000" fill-rule="evenodd" fill-opacity="1" /><path clip-path="url(#clip890)" d="M191.37 251.476 Q187.759 251.476 185.931 255.041 Q184.125 258.583 184.125 265.712 Q184.125 272.819 185.931 276.384 Q187.759 279.925 191.37 279.925 Q195.005 279.925 196.81 276.384 Q198.639 272.819 198.639 265.712 Q198.639 258.583 196.81 255.041 Q195.005 251.476 191.37 251.476 M191.37 247.773 Q197.181 247.773 200.236 252.379 Q203.315 256.962 203.315 265.712 Q203.315 274.439 200.236 279.046 Q197.181 283.629 191.37 283.629 Q185.56 283.629 182.482 279.046 Q179.426 274.439 179.426 265.712 Q179.426 256.962 182.482 252.379 Q185.56 247.773 191.37 247.773 Z" fill="#000000" fill-rule="evenodd" fill-opacity="1" /><path clip-path="url(#clip890)" d="M239.704 257.495 L229.125 268.12 L239.704 278.698 L236.949 281.499 L226.324 270.874 L215.699 281.499 L212.968 278.698 L223.523 268.12 L212.968 257.495 L215.699 254.694 L226.324 265.319 L236.949 254.694 L239.704 257.495 Z" fill="#000000" fill-rule="evenodd" fill-opacity="1" /><path clip-path="url(#clip890)" d="M252.065 279.022 L259.703 279.022 L259.703 252.657 L251.393 254.323 L251.393 250.064 L259.657 248.398 L264.333 248.398 L264.333 279.022 L271.972 279.022 L271.972 282.958 L252.065 282.958 L252.065 279.022 Z" fill="#000000" fill-rule="evenodd" fill-opacity="1" /><path clip-path="url(#clip890)" d="M291.416 251.476 Q287.805 251.476 285.976 255.041 Q284.171 258.583 284.171 265.712 Q284.171 272.819 285.976 276.384 Q287.805 279.925 291.416 279.925 Q295.05 279.925 296.856 276.384 Q298.685 272.819 298.685 265.712 Q298.685 258.583 296.856 255.041 Q295.05 251.476 291.416 251.476 M291.416 247.773 Q297.226 247.773 300.282 252.379 Q303.361 256.962 303.361 265.712 Q303.361 274.439 300.282 279.046 Q297.226 283.629 291.416 283.629 Q285.606 283.629 282.527 279.046 Q279.472 274.439 279.472 265.712 Q279.472 256.962 282.527 252.379 Q285.606 247.773 291.416 247.773 Z" fill="#000000" fill-rule="evenodd" fill-opacity="1" /><path clip-path="url(#clip890)" d="M316.037 230.777 L306.445 245.767 L316.037 245.767 L316.037 230.777 M315.04 227.467 L319.817 227.467 L319.817 245.767 L323.823 245.767 L323.823 248.927 L319.817 248.927 L319.817 255.547 L316.037 255.547 L316.037 248.927 L303.361 248.927 L303.361 245.259 L315.04 227.467 Z" fill="#000000" fill-rule="evenodd" fill-opacity="1" /><path clip-path="url(#clip890)" d="M109.082 89.7475 L116.721 89.7475 L116.721 63.3819 L108.411 65.0486 L108.411 60.7894 L116.675 59.1227 L121.351 59.1227 L121.351 89.7475 L128.989 89.7475 L128.989 93.6827 L109.082 93.6827 L109.082 89.7475 Z" fill="#000000" fill-rule="evenodd" fill-opacity="1" /><path clip-path="url(#clip890)" d="M138.434 87.8031 L143.318 87.8031 L143.318 93.6827 L138.434 93.6827 L138.434 87.8031 Z" fill="#000000" fill-rule="evenodd" fill-opacity="1" /><path clip-path="url(#clip890)" d="M163.503 62.2014 Q159.892 62.2014 158.063 65.7662 Q156.258 69.3078 156.258 76.4374 Q156.258 83.5439 158.063 87.1087 Q159.892 90.6503 163.503 90.6503 Q167.137 90.6503 168.943 87.1087 Q170.772 83.5439 170.772 76.4374 Q170.772 69.3078 168.943 65.7662 Q167.137 62.2014 163.503 62.2014 M163.503 58.4977 Q169.313 58.4977 172.369 63.1042 Q175.447 67.6875 175.447 76.4374 Q175.447 85.1642 172.369 89.7707 Q169.313 94.354 163.503 94.354 Q157.693 94.354 154.614 89.7707 Q151.559 85.1642 151.559 76.4374 Q151.559 67.6875 154.614 63.1042 Q157.693 58.4977 163.503 58.4977 Z" fill="#000000" fill-rule="evenodd" fill-opacity="1" /><path clip-path="url(#clip890)" d="M193.665 62.2014 Q190.054 62.2014 188.225 65.7662 Q186.42 69.3078 186.42 76.4374 Q186.42 83.5439 188.225 87.1087 Q190.054 90.6503 193.665 90.6503 Q197.299 90.6503 199.105 87.1087 Q200.933 83.5439 200.933 76.4374 Q200.933 69.3078 199.105 65.7662 Q197.299 62.2014 193.665 62.2014 M193.665 58.4977 Q199.475 58.4977 202.531 63.1042 Q205.609 67.6875 205.609 76.4374 Q205.609 85.1642 202.531 89.7707 Q199.475 94.354 193.665 94.354 Q187.855 94.354 184.776 89.7707 Q181.721 85.1642 181.721 76.4374 Q181.721 67.6875 184.776 63.1042 Q187.855 58.4977 193.665 58.4977 Z" fill="#000000" fill-rule="evenodd" fill-opacity="1" /><path clip-path="url(#clip890)" d="M241.998 68.2199 L231.419 78.8448 L241.998 89.4235 L239.243 92.2244 L228.618 81.5994 L217.994 92.2244 L215.262 89.4235 L225.818 78.8448 L215.262 68.2199 L217.994 65.419 L228.618 76.0439 L239.243 65.419 L241.998 68.2199 Z" fill="#000000" fill-rule="evenodd" fill-opacity="1" /><path clip-path="url(#clip890)" d="M254.359 89.7475 L261.998 89.7475 L261.998 63.3819 L253.688 65.0486 L253.688 60.7894 L261.952 59.1227 L266.628 59.1227 L266.628 89.7475 L274.266 89.7475 L274.266 93.6827 L254.359 93.6827 L254.359 89.7475 Z" fill="#000000" fill-rule="evenodd" fill-opacity="1" /><path clip-path="url(#clip890)" d="M293.711 62.2014 Q290.1 62.2014 288.271 65.7662 Q286.465 69.3078 286.465 76.4374 Q286.465 83.5439 288.271 87.1087 Q290.1 90.6503 293.711 90.6503 Q297.345 90.6503 299.151 87.1087 Q300.979 83.5439 300.979 76.4374 Q300.979 69.3078 299.151 65.7662 Q297.345 62.2014 293.711 62.2014 M293.711 58.4977 Q299.521 58.4977 302.576 63.1042 Q305.655 67.6875 305.655 76.4374 Q305.655 85.1642 302.576 89.7707 Q299.521 94.354 293.711 94.354 Q287.901 94.354 284.822 89.7707 Q281.766 85.1642 281.766 76.4374 Q281.766 67.6875 284.822 63.1042 Q287.901 58.4977 293.711 58.4977 Z" fill="#000000" fill-rule="evenodd" fill-opacity="1" /><path clip-path="url(#clip890)" d="M306.84 38.1923 L321.755 38.1923 L321.755 41.3896 L310.319 41.3896 L310.319 48.2733 Q311.147 47.9912 311.975 47.8595 Q312.802 47.709 313.63 47.709 Q318.332 47.709 321.077 50.2857 Q323.823 52.8624 323.823 57.2634 Q323.823 61.7961 321.002 64.3163 Q318.181 66.8177 313.047 66.8177 Q311.279 66.8177 309.435 66.5168 Q307.611 66.2159 305.655 65.614 L305.655 61.7961 Q307.348 62.7176 309.153 63.169 Q310.959 63.6204 312.971 63.6204 Q316.225 63.6204 318.125 61.9089 Q320.024 60.1974 320.024 57.2634 Q320.024 54.3294 318.125 52.6179 Q316.225 50.9064 312.971 50.9064 Q311.448 50.9064 309.924 51.2449 Q308.42 51.5834 306.84 52.2981 L306.84 38.1923 Z" fill="#000000" fill-rule="evenodd" fill-opacity="1" /><path clip-path="url(#clip890)" d="M40.8361 811.397 L43.7006 811.397 L43.7006 838.324 Q49.7481 837.942 52.9309 834.695 Q56.0819 831.417 56.0819 825.592 Q56.0819 822.219 55.2544 819.067 Q54.4269 815.885 52.7718 812.765 L58.3099 812.765 Q59.6467 815.916 60.347 819.227 Q61.0472 822.537 61.0472 825.942 Q61.0472 834.473 56.0819 839.47 Q51.1167 844.435 42.6503 844.435 Q33.8974 844.435 28.7731 839.724 Q23.6168 834.982 23.6168 826.961 Q23.6168 819.768 28.2638 815.598 Q32.8789 811.397 40.8361 811.397 M39.1173 817.253 Q34.3112 817.317 31.4466 819.959 Q28.5821 822.569 28.5821 826.897 Q28.5821 831.799 31.3512 834.759 Q34.1202 837.687 39.1492 838.133 L39.1173 817.253 Z" fill="#000000" fill-rule="evenodd" fill-opacity="1" /><path clip-path="url(#clip890)" d="M10.599 783.738 L15.4687 783.738 L15.4687 789.34 Q15.4687 792.491 16.7419 793.732 Q18.015 794.941 21.3252 794.941 L24.4762 794.941 L24.4762 785.297 L29.0277 785.297 L29.0277 794.941 L60.1242 794.941 L60.1242 800.83 L29.0277 800.83 L29.0277 806.432 L24.4762 806.432 L24.4762 800.83 L21.9936 800.83 Q16.0416 800.83 13.3362 798.061 Q10.599 795.292 10.599 789.276 L10.599 783.738 Z" fill="#000000" fill-rule="evenodd" fill-opacity="1" /><path clip-path="url(#clip890)" d="M10.599 760.789 L15.4687 760.789 L15.4687 766.391 Q15.4687 769.542 16.7419 770.784 Q18.015 771.993 21.3252 771.993 L24.4762 771.993 L24.4762 762.349 L29.0277 762.349 L29.0277 771.993 L60.1242 771.993 L60.1242 777.881 L29.0277 777.881 L29.0277 783.483 L24.4762 783.483 L24.4762 777.881 L21.9936 777.881 Q16.0416 777.881 13.3362 775.112 Q10.599 772.343 10.599 766.328 L10.599 760.789 Z" fill="#000000" fill-rule="evenodd" fill-opacity="1" /><path clip-path="url(#clip890)" d="M40.8361 725.396 L43.7006 725.396 L43.7006 752.323 Q49.7481 751.941 52.9309 748.695 Q56.0819 745.416 56.0819 739.592 Q56.0819 736.218 55.2544 733.067 Q54.4269 729.884 52.7718 726.765 L58.3099 726.765 Q59.6467 729.916 60.347 733.226 Q61.0472 736.536 61.0472 739.942 Q61.0472 748.472 56.0819 753.469 Q51.1167 758.434 42.6503 758.434 Q33.8974 758.434 28.7731 753.724 Q23.6168 748.981 23.6168 740.96 Q23.6168 733.767 28.2638 729.597 Q32.8789 725.396 40.8361 725.396 M39.1173 731.253 Q34.3112 731.316 31.4466 733.958 Q28.5821 736.568 28.5821 740.897 Q28.5821 745.798 31.3512 748.758 Q34.1202 751.686 39.1492 752.132 L39.1173 731.253 Z" fill="#000000" fill-rule="evenodd" fill-opacity="1" /><path clip-path="url(#clip890)" d="M25.8448 690.13 L31.3193 690.13 Q29.9507 692.613 29.2823 695.127 Q28.5821 697.61 28.5821 700.156 Q28.5821 705.853 32.2105 709.004 Q35.8072 712.155 42.332 712.155 Q48.8569 712.155 52.4853 709.004 Q56.0819 705.853 56.0819 700.156 Q56.0819 697.61 55.4135 695.127 Q54.7133 692.613 53.3447 690.13 L58.7555 690.13 Q59.9014 692.581 60.4743 695.223 Q61.0472 697.833 61.0472 700.793 Q61.0472 708.845 55.9864 713.588 Q50.9257 718.33 42.332 718.33 Q33.611 718.33 28.6139 713.556 Q23.6168 708.75 23.6168 700.411 Q23.6168 697.705 24.1897 695.127 Q24.7308 692.549 25.8448 690.13 Z" fill="#000000" fill-rule="evenodd" fill-opacity="1" /><path clip-path="url(#clip890)" d="M14.3547 674.152 L24.4762 674.152 L24.4762 662.089 L29.0277 662.089 L29.0277 674.152 L48.3794 674.152 Q52.7399 674.152 53.9813 672.975 Q55.2226 671.765 55.2226 668.105 L55.2226 662.089 L60.1242 662.089 L60.1242 668.105 Q60.1242 674.884 57.6097 677.462 Q55.0634 680.04 48.3794 680.04 L29.0277 680.04 L29.0277 684.337 L24.4762 684.337 L24.4762 680.04 L14.3547 680.04 L14.3547 674.152 Z" fill="#000000" fill-rule="evenodd" fill-opacity="1" /><path clip-path="url(#clip890)" d="M24.4762 654.387 L24.4762 648.53 L60.1242 648.53 L60.1242 654.387 L24.4762 654.387 M10.599 654.387 L10.599 648.53 L18.015 648.53 L18.015 654.387 L10.599 654.387 Z" fill="#000000" fill-rule="evenodd" fill-opacity="1" /><path clip-path="url(#clip890)" d="M24.4762 640.478 L24.4762 634.271 L54.395 623.131 L24.4762 611.991 L24.4762 605.784 L60.1242 619.152 L60.1242 627.11 L24.4762 640.478 Z" fill="#000000" fill-rule="evenodd" fill-opacity="1" /><path clip-path="url(#clip890)" d="M40.8361 567.208 L43.7006 567.208 L43.7006 594.135 Q49.7481 593.753 52.9309 590.507 Q56.0819 587.228 56.0819 581.404 Q56.0819 578.03 55.2544 574.879 Q54.4269 571.696 52.7718 568.577 L58.3099 568.577 Q59.6467 571.728 60.347 575.038 Q61.0472 578.348 61.0472 581.754 Q61.0472 590.284 56.0819 595.281 Q51.1167 600.246 42.6503 600.246 Q33.8974 600.246 28.7731 595.536 Q23.6168 590.793 23.6168 582.772 Q23.6168 575.579 28.2638 571.41 Q32.8789 567.208 40.8361 567.208 M39.1173 573.065 Q34.3112 573.128 31.4466 575.77 Q28.5821 578.38 28.5821 582.709 Q28.5821 587.61 31.3512 590.57 Q34.1202 593.499 39.1492 593.944 L39.1173 573.065 Z" fill="#000000" fill-rule="evenodd" fill-opacity="1" /><path clip-path="url(#clip890)" d="M54.777 531.21 L73.6831 531.21 L73.6831 537.099 L24.4762 537.099 L24.4762 531.21 L29.8871 531.21 Q26.7042 529.364 25.1764 526.563 Q23.6168 523.731 23.6168 519.816 Q23.6168 513.323 28.7731 509.28 Q33.9293 505.206 42.332 505.206 Q50.7347 505.206 55.891 509.28 Q61.0472 513.323 61.0472 519.816 Q61.0472 523.731 59.5194 526.563 Q57.9598 529.364 54.777 531.21 M42.332 511.286 Q35.8708 511.286 32.2105 513.959 Q28.5184 516.601 28.5184 521.248 Q28.5184 525.895 32.2105 528.568 Q35.8708 531.21 42.332 531.21 Q48.7932 531.21 52.4853 528.568 Q56.1456 525.895 56.1456 521.248 Q56.1456 516.601 52.4853 513.959 Q48.7932 511.286 42.332 511.286 Z" fill="#000000" fill-rule="evenodd" fill-opacity="1" /><path clip-path="url(#clip890)" d="M28.5821 481.685 Q28.5821 486.396 32.2742 489.133 Q35.9345 491.87 42.332 491.87 Q48.7295 491.87 52.4217 489.165 Q56.0819 486.427 56.0819 481.685 Q56.0819 477.006 52.3898 474.269 Q48.6977 471.532 42.332 471.532 Q35.9981 471.532 32.306 474.269 Q28.5821 477.006 28.5821 481.685 M23.6168 481.685 Q23.6168 474.046 28.5821 469.686 Q33.5473 465.325 42.332 465.325 Q51.0849 465.325 56.0819 469.686 Q61.0472 474.046 61.0472 481.685 Q61.0472 489.356 56.0819 493.716 Q51.0849 498.045 42.332 498.045 Q33.5473 498.045 28.5821 493.716 Q23.6168 489.356 23.6168 481.685 Z" fill="#000000" fill-rule="evenodd" fill-opacity="1" /><path clip-path="url(#clip890)" d="M54.777 449.952 L73.6831 449.952 L73.6831 455.84 L24.4762 455.84 L24.4762 449.952 L29.8871 449.952 Q26.7042 448.106 25.1764 445.305 Q23.6168 442.472 23.6168 438.557 Q23.6168 432.064 28.7731 428.022 Q33.9293 423.948 42.332 423.948 Q50.7347 423.948 55.891 428.022 Q61.0472 432.064 61.0472 438.557 Q61.0472 442.472 59.5194 445.305 Q57.9598 448.106 54.777 449.952 M42.332 430.027 Q35.8708 430.027 32.2105 432.701 Q28.5184 435.343 28.5184 439.99 Q28.5184 444.637 32.2105 447.31 Q35.8708 449.952 42.332 449.952 Q48.7932 449.952 52.4853 447.31 Q56.1456 444.637 56.1456 439.99 Q56.1456 435.343 52.4853 432.701 Q48.7932 430.027 42.332 430.027 Z" fill="#000000" fill-rule="evenodd" fill-opacity="1" /><path clip-path="url(#clip890)" d="M46.0559 414.845 L24.4762 414.845 L24.4762 408.989 L45.8331 408.989 Q50.8939 408.989 53.4402 407.015 Q55.9546 405.042 55.9546 401.095 Q55.9546 396.353 52.9309 393.615 Q49.9072 390.846 44.6873 390.846 L24.4762 390.846 L24.4762 384.99 L60.1242 384.99 L60.1242 390.846 L54.6496 390.846 Q57.8962 392.979 59.4876 395.812 Q61.0472 398.613 61.0472 402.337 Q61.0472 408.479 57.2278 411.662 Q53.4083 414.845 46.0559 414.845 M23.6168 400.109 L23.6168 400.109 Z" fill="#000000" fill-rule="evenodd" fill-opacity="1" /><path clip-path="url(#clip890)" d="M10.599 372.927 L10.599 367.07 L60.1242 367.07 L60.1242 372.927 L10.599 372.927 Z" fill="#000000" fill-rule="evenodd" fill-opacity="1" /><path clip-path="url(#clip890)" d="M42.2047 338.616 Q42.2047 345.714 43.8279 348.451 Q45.4512 351.188 49.3661 351.188 Q52.4853 351.188 54.3314 349.151 Q56.1456 347.082 56.1456 343.549 Q56.1456 338.679 52.7081 335.751 Q49.2388 332.791 43.5097 332.791 L42.2047 332.791 L42.2047 338.616 M39.7857 326.935 L60.1242 326.935 L60.1242 332.791 L54.7133 332.791 Q57.9598 334.796 59.5194 337.788 Q61.0472 340.78 61.0472 345.109 Q61.0472 350.583 57.9916 353.83 Q54.9043 357.045 49.7481 357.045 Q43.7325 357.045 40.6769 353.034 Q37.6214 348.992 37.6214 341.003 L37.6214 332.791 L37.0485 332.791 Q33.0062 332.791 30.8101 335.465 Q28.5821 338.107 28.5821 342.913 Q28.5821 345.968 29.3141 348.865 Q30.0462 351.761 31.5103 354.435 L26.0995 354.435 Q24.8581 351.22 24.2534 348.196 Q23.6168 345.172 23.6168 342.308 Q23.6168 334.574 27.6272 330.754 Q31.6376 326.935 39.7857 326.935 Z" fill="#000000" fill-rule="evenodd" fill-opacity="1" /><path clip-path="url(#clip890)" d="M14.3547 309.079 L24.4762 309.079 L24.4762 297.016 L29.0277 297.016 L29.0277 309.079 L48.3794 309.079 Q52.7399 309.079 53.9813 307.901 Q55.2226 306.692 55.2226 303.031 L55.2226 297.016 L60.1242 297.016 L60.1242 303.031 Q60.1242 309.811 57.6097 312.389 Q55.0634 314.967 48.3794 314.967 L29.0277 314.967 L29.0277 319.264 L24.4762 319.264 L24.4762 314.967 L14.3547 314.967 L14.3547 309.079 Z" fill="#000000" fill-rule="evenodd" fill-opacity="1" /><path clip-path="url(#clip890)" d="M24.4762 289.313 L24.4762 283.457 L60.1242 283.457 L60.1242 289.313 L24.4762 289.313 M10.599 289.313 L10.599 283.457 L18.015 283.457 L18.015 289.313 L10.599 289.313 Z" fill="#000000" fill-rule="evenodd" fill-opacity="1" /><path clip-path="url(#clip890)" d="M28.5821 257.389 Q28.5821 262.1 32.2742 264.837 Q35.9345 267.575 42.332 267.575 Q48.7295 267.575 52.4217 264.869 Q56.0819 262.132 56.0819 257.389 Q56.0819 252.711 52.3898 249.973 Q48.6977 247.236 42.332 247.236 Q35.9981 247.236 32.306 249.973 Q28.5821 252.711 28.5821 257.389 M23.6168 257.389 Q23.6168 249.751 28.5821 245.39 Q33.5473 241.03 42.332 241.03 Q51.0849 241.03 56.0819 245.39 Q61.0472 249.751 61.0472 257.389 Q61.0472 265.06 56.0819 269.421 Q51.0849 273.749 42.332 273.749 Q33.5473 273.749 28.5821 269.421 Q23.6168 265.06 23.6168 257.389 Z" fill="#000000" fill-rule="evenodd" fill-opacity="1" /><path clip-path="url(#clip890)" d="M38.6081 201.689 L60.1242 201.689 L60.1242 207.546 L38.799 207.546 Q33.7383 207.546 31.2238 209.519 Q28.7094 211.493 28.7094 215.439 Q28.7094 220.182 31.7331 222.919 Q34.7568 225.656 39.9767 225.656 L60.1242 225.656 L60.1242 231.545 L24.4762 231.545 L24.4762 225.656 L30.0144 225.656 Q26.7997 223.556 25.2083 220.723 Q23.6168 217.858 23.6168 214.134 Q23.6168 207.991 27.4363 204.84 Q31.2238 201.689 38.6081 201.689 Z" fill="#000000" fill-rule="evenodd" fill-opacity="1" /><path clip-path="url(#clip890)" d="M25.5265 146.562 L31.0647 146.562 Q29.7916 149.045 29.155 151.719 Q28.5184 154.392 28.5184 157.257 Q28.5184 161.617 29.8552 163.813 Q31.192 165.978 33.8656 165.978 Q35.9026 165.978 37.0803 164.418 Q38.2261 162.859 39.2765 158.148 L39.7221 156.143 Q41.0589 149.904 43.5097 147.294 Q45.9286 144.653 50.2891 144.653 Q55.2544 144.653 58.1508 148.599 Q61.0472 152.514 61.0472 159.389 Q61.0472 162.254 60.4743 165.373 Q59.9332 168.46 58.8192 171.898 L52.7718 171.898 Q54.4587 168.651 55.318 165.5 Q56.1456 162.349 56.1456 159.262 Q56.1456 155.124 54.7451 152.896 Q53.3129 150.668 50.7347 150.668 Q48.3476 150.668 47.0745 152.292 Q45.8013 153.883 44.6237 159.326 L44.1462 161.363 Q43.0004 166.805 40.6451 169.224 Q38.258 171.643 34.1202 171.643 Q29.0913 171.643 26.3541 168.079 Q23.6168 164.514 23.6168 157.957 Q23.6168 154.711 24.0943 151.846 Q24.5717 148.981 25.5265 146.562 Z" fill="#000000" fill-rule="evenodd" fill-opacity="1" /><path clip-path="url(#clip890)" d="M24.4762 135.327 L24.4762 129.47 L60.1242 129.47 L60.1242 135.327 L24.4762 135.327 M10.599 135.327 L10.599 129.47 L18.015 129.47 L18.015 135.327 L10.599 135.327 Z" fill="#000000" fill-rule="evenodd" fill-opacity="1" /><path clip-path="url(#clip890)" d="M24.4762 119.763 L24.4762 91.9447 L29.8234 91.9447 L55.4454 113.97 L55.4454 91.9447 L60.1242 91.9447 L60.1242 120.559 L54.777 120.559 L29.155 98.5332 L29.155 119.763 L24.4762 119.763 Z" fill="#000000" fill-rule="evenodd" fill-opacity="1" /><path clip-path="url(#clip890)" d="M40.8361 52.5091 L43.7006 52.5091 L43.7006 79.436 Q49.7481 79.0541 52.9309 75.8076 Q56.0819 72.5292 56.0819 66.7046 Q56.0819 63.3308 55.2544 60.1798 Q54.4269 56.9969 52.7718 53.8777 L58.3099 53.8777 Q59.6467 57.0288 60.347 60.3389 Q61.0472 63.6491 61.0472 67.0547 Q61.0472 75.5848 56.0819 80.5819 Q51.1167 85.5471 42.6503 85.5471 Q33.8974 85.5471 28.7731 80.8365 Q23.6168 76.094 23.6168 68.0733 Q23.6168 60.88 28.2638 56.7105 Q32.8789 52.5091 40.8361 52.5091 M39.1173 58.3656 Q34.3112 58.4292 31.4466 61.071 Q28.5821 63.6809 28.5821 68.0096 Q28.5821 72.9112 31.3512 75.8712 Q34.1202 78.7995 39.1492 79.2451 L39.1173 58.3656 Z" fill="#000000" fill-rule="evenodd" fill-opacity="1" /><polyline clip-path="url(#clip892)" style="stroke:#009af9; stroke-linecap:butt; stroke-linejoin:round; stroke-width:4; stroke-opacity:1; fill:none" points="
  1907.5,69.9551 1905.89,77.4884 1904.28,84.9467 1902.66,92.3308 1901.05,99.6414 1899.44,106.879 1897.82,114.045 1896.21,121.14 1894.6,128.164 1892.98,135.118 
  1891.37,142.003 1889.76,148.819 1888.14,155.568 1886.53,162.249 1884.92,168.864 1883.3,175.413 1881.69,181.897 1880.08,188.316 1878.46,194.672 1876.85,200.964 
  1875.24,207.194 1873.62,213.362 1872.01,219.468 1870.4,225.514 1868.78,231.499 1867.17,237.425 1865.56,243.292 1863.94,249.1 1862.33,254.851 1860.72,260.545 
  1859.1,266.182 1857.49,271.762 1855.88,277.288 1854.26,282.758 1852.65,288.174 1851.04,293.536 1849.42,298.844 1847.81,304.1 1846.2,309.303 1844.58,314.455 
  1842.97,319.556 1841.36,324.605 1839.74,329.605 1838.13,334.555 1836.52,339.455 1834.91,344.307 1833.29,349.11 1831.68,353.866 1830.07,358.574 1828.45,363.235 
  1826.84,367.851 1825.23,372.42 1823.61,376.943 1822,381.422 1820.39,385.856 1818.77,390.246 1817.16,394.593 1815.55,398.896 1813.93,403.156 1812.32,407.374 
  1810.71,411.55 1809.09,415.684 1807.48,419.777 1805.87,423.83 1804.25,427.842 1802.64,431.814 1801.03,435.747 1799.41,439.64 1797.8,443.495 1796.19,447.312 
  1794.57,451.09 1792.96,454.831 1791.35,458.535 1789.73,462.202 1788.12,465.832 1786.51,469.426 1784.89,472.985 1783.28,476.508 1781.67,479.996 1780.05,483.449 
  1778.44,486.868 1776.83,490.253 1775.21,493.604 1773.6,496.922 1771.99,500.207 1770.37,503.459 1768.76,506.679 1767.15,509.867 1765.53,513.023 1763.92,516.147 
  1762.31,519.241 1760.69,522.304 1759.08,525.336 1757.47,528.338 1755.85,531.311 1754.24,534.253 1752.63,537.167 1751.01,540.051 1749.4,542.907 1747.79,545.734 
  1746.17,548.533 1744.56,551.305 1742.95,554.048 1741.33,556.765 1739.72,559.454 1738.11,562.117 1736.49,564.753 1734.88,567.363 1733.27,569.947 1731.65,572.505 
  1730.04,575.038 1728.43,577.546 1726.81,580.028 1725.2,582.486 1723.59,584.92 1721.97,587.329 1720.36,589.714 1718.75,592.076 1717.13,594.414 1715.52,596.729 
  1713.91,599.021 1712.29,601.29 1710.68,603.536 1709.07,605.76 1707.46,607.962 1705.84,610.142 1704.23,612.3 1702.62,614.437 1701,616.553 1699.39,618.647 
  1697.78,620.721 1696.16,622.774 1694.55,624.807 1692.94,626.819 1691.32,628.811 1689.71,630.784 1688.1,632.737 1686.48,634.67 1684.87,636.585 1683.26,638.48 
  1681.64,640.356 1680.03,642.214 1678.42,644.053 1676.8,645.874 1675.19,647.677 1673.58,649.462 1671.96,651.229 1670.35,652.978 1668.74,654.71 1667.12,656.425 
  1665.51,658.123 1663.9,659.804 1662.28,661.468 1660.67,663.116 1659.06,664.747 1657.44,666.362 1655.83,667.961 1654.22,669.544 1652.6,671.111 1650.99,672.663 
  1649.38,674.199 1647.76,675.72 1646.15,677.226 1644.54,678.716 1642.92,680.192 1641.31,681.654 1639.7,683.101 1638.08,684.533 1636.47,685.951 1634.86,687.355 
  1633.24,688.745 1631.63,690.121 1630.02,691.484 1628.4,692.833 1626.79,694.168 1625.18,695.49 1623.56,696.8 1621.95,698.096 1620.34,699.379 1618.72,700.649 
  1617.11,701.907 1615.5,703.152 1613.88,704.385 1612.27,705.606 1610.66,706.814 1609.04,708.01 1607.43,709.195 1605.82,710.368 1604.2,711.529 1602.59,712.678 
  1600.98,713.816 1599.36,714.943 1597.75,716.059 1596.14,717.163 1594.52,718.256 1592.91,719.339 1591.3,720.411 1589.68,721.472 1588.07,722.523 1586.46,723.563 
  1584.84,724.592 1583.23,725.612 1581.62,726.621 1580.01,727.621 1578.39,728.61 1576.78,729.59 1575.17,730.559 1573.55,731.519 1571.94,732.47 1570.33,733.411 
  1568.71,734.343 1567.1,735.265 1565.49,736.179 1563.87,737.083 1562.26,737.978 1560.65,738.865 1559.03,739.742 1557.42,740.611 1555.81,741.471 1554.19,742.323 
  1552.58,743.166 1550.97,744 1549.35,744.827 1547.74,745.645 1546.13,746.455 1544.51,747.257 1542.9,748.051 1541.29,748.837 1539.67,749.615 1538.06,750.386 
  1536.45,751.149 1534.83,751.904 1533.22,752.652 1531.61,753.392 1529.99,754.125 1528.38,754.851 1526.77,755.569 1525.15,756.28 1523.54,756.985 1521.93,757.682 
  1520.31,758.372 1518.7,759.056 1517.09,759.732 1515.47,760.402 1513.86,761.065 1512.25,761.722 1510.63,762.372 1509.02,763.016 1507.41,763.653 1505.79,764.284 
  1504.18,764.908 1502.57,765.527 1500.95,766.139 1499.34,766.745 1497.73,767.345 1496.11,767.939 1494.5,768.527 1492.89,769.11 1491.27,769.686 1489.66,770.257 
  1488.05,770.822 1486.43,771.382 1484.82,771.936 1483.21,772.484 1481.59,773.027 1479.98,773.565 1478.37,774.097 1476.75,774.624 1475.14,775.146 1473.53,775.662 
  1471.91,776.173 1470.3,776.68 1468.69,777.181 1467.07,777.677 1465.46,778.168 1463.85,778.655 1462.23,779.137 1460.62,779.613 1459.01,780.085 1457.39,780.553 
  1455.78,781.015 1454.17,781.473 1452.56,781.927 1450.94,782.376 1449.33,782.821 1447.72,783.261 1446.1,783.697 1444.49,784.128 1442.88,784.555 1441.26,784.978 
  1439.65,785.397 1438.04,785.811 1436.42,786.222 1434.81,786.628 1433.2,787.03 1431.58,787.428 1429.97,787.823 1428.36,788.213 1426.74,788.599 1425.13,788.982 
  1423.52,789.361 1421.9,789.736 1420.29,790.107 1418.68,790.475 1417.06,790.839 1415.45,791.199 1413.84,791.556 1412.22,791.909 1410.61,792.259 1409,792.605 
  1407.38,792.948 1405.77,793.287 1404.16,793.623 1402.54,793.956 1400.93,794.285 1399.32,794.611 1397.7,794.934 1396.09,795.254 1394.48,795.57 1392.86,795.883 
  1391.25,796.194 1389.64,796.501 1388.02,796.805 1386.41,797.106 1384.8,797.404 1383.18,797.699 1381.57,797.991 1379.96,798.28 1378.34,798.566 1376.73,798.85 
  1375.12,799.13 1373.5,799.408 1371.89,799.683 1370.28,799.956 1368.66,800.225 1367.05,800.492 1365.44,800.757 1363.82,801.018 1362.21,801.277 1360.6,801.534 
  1358.98,801.788 1357.37,802.039 1355.76,802.288 1354.14,802.535 1352.53,802.779 1350.92,803.02 1349.3,803.259 1347.69,803.496 1346.08,803.73 1344.46,803.962 
  1342.85,804.192 1341.24,804.42 1339.62,804.645 1338.01,804.868 1336.4,805.089 1334.78,805.307 1333.17,805.524 1331.56,805.738 1329.95,805.95 1328.33,806.16 
  1326.72,806.368 1325.11,806.574 1323.49,806.778 1321.88,806.979 1320.27,807.179 1318.65,807.377 1317.04,807.573 1315.43,807.766 1313.81,807.958 1312.2,808.148 
  1310.59,808.337 1308.97,808.523 1307.36,808.707 1305.75,808.89 1304.13,809.07 1302.52,809.249 1300.91,809.427 1299.29,809.602 1297.68,809.776 1296.07,809.948 
  1294.45,810.118 1292.84,810.286 1291.23,810.453 1289.61,810.618 1288,810.782 1286.39,810.944 1284.77,811.104 1283.16,811.263 1281.55,811.42 1279.93,811.576 
  1278.32,811.73 1276.71,811.882 1275.09,812.033 1273.48,812.182 1271.87,812.33 1270.25,812.477 1268.64,812.622 1267.03,812.766 1265.41,812.908 1263.8,813.049 
  1262.19,813.188 1260.57,813.326 1258.96,813.462 1257.35,813.598 1255.73,813.732 1254.12,813.864 1252.51,813.995 1250.89,814.125 1249.28,814.254 1247.67,814.381 
  1246.05,814.508 1244.44,814.632 1242.83,814.756 1241.21,814.878 1239.6,814.999 1237.99,815.119 1236.37,815.238 1234.76,815.356 1233.15,815.472 1231.53,815.587 
  1229.92,815.702 1228.31,815.814 1226.69,815.926 1225.08,816.037 1223.47,816.147 1221.85,816.255 1220.24,816.363 1218.63,816.469 1217.01,816.574 1215.4,816.679 
  1213.79,816.782 1212.17,816.884 1210.56,816.985 1208.95,817.086 1207.33,817.185 1205.72,817.283 1204.11,817.38 1202.5,817.476 1200.88,817.572 1199.27,817.666 
  1197.66,817.76 1196.04,817.852 1194.43,817.944 1192.82,818.034 1191.2,818.124 1189.59,818.213 1187.98,818.301 1186.36,818.388 1184.75,818.474 1183.14,818.56 
  1181.52,818.644 1179.91,818.728 1178.3,818.811 1176.68,818.893 1175.07,818.974 1173.46,819.054 1171.84,819.134 1170.23,819.213 1168.62,819.291 1167,819.368 
  1165.39,819.444 1163.78,819.52 1162.16,819.595 1160.55,819.669 1158.94,819.743 1157.32,819.816 1155.71,819.888 1154.1,819.959 1152.48,820.03 1150.87,820.099 
  1149.26,820.169 1147.64,820.237 1146.03,820.305 1144.42,820.372 1142.8,820.439 1141.19,820.504 1139.58,820.57 1137.96,820.634 1136.35,820.698 1134.74,820.761 
  1133.12,820.824 1131.51,820.886 1129.9,820.947 1128.28,821.008 1126.67,821.068 1125.06,821.128 1123.44,821.187 1121.83,821.245 1120.22,821.303 1118.6,821.36 
  1116.99,821.417 1115.38,821.473 1113.76,821.529 1112.15,821.583 1110.54,821.638 1108.92,821.692 1107.31,821.745 1105.7,821.798 1104.08,821.85 1102.47,821.902 
  1100.86,821.953 1099.24,822.004 1097.63,822.054 1096.02,822.104 1094.4,822.153 1092.79,822.202 1091.18,822.25 1089.56,822.298 1087.95,822.346 1086.34,822.392 
  1084.72,822.439 1083.11,822.485 1081.5,822.53 1079.88,822.575 1078.27,822.62 1076.66,822.664 1075.05,822.708 1073.43,822.751 1071.82,822.794 1070.21,822.836 
  1068.59,822.878 1066.98,822.92 1065.37,822.961 1063.75,823.002 1062.14,823.042 1060.53,823.082 1058.91,823.121 1057.3,823.16 1055.69,823.199 1054.07,823.238 
  1052.46,823.276 1050.85,823.313 1049.23,823.35 1047.62,823.387 1046.01,823.424 1044.39,823.46 1042.78,823.496 1041.17,823.531 1039.55,823.566 1037.94,823.601 
  1036.33,823.635 1034.71,823.669 1033.1,823.703 1031.49,823.736 1029.87,823.769 1028.26,823.802 1026.65,823.834 1025.03,823.866 1023.42,823.898 1021.81,823.929 
  1020.19,823.961 1018.58,823.991 1016.97,824.022 1015.35,824.052 1013.74,824.082 1012.13,824.111 1010.51,824.141 1008.9,824.17 1007.29,824.198 1005.67,824.227 
  1004.06,824.255 1002.45,824.283 1000.83,824.31 999.22,824.338 997.607,824.365 995.994,824.392 994.381,824.418 992.767,824.444 991.154,824.47 989.541,824.496 
  987.927,824.521 986.314,824.547 984.701,824.572 983.087,824.596 981.474,824.621 979.861,824.645 978.248,824.669 976.634,824.693 975.021,824.716 973.408,824.739 
  971.794,824.763 970.181,824.785 968.568,824.808 966.955,824.83 965.341,824.852 963.728,824.874 962.115,824.896 960.501,824.917 958.888,824.939 957.275,824.96 
  955.662,824.981 954.048,825.001 952.435,825.022 950.822,825.042 949.208,825.062 947.595,825.082 945.982,825.101 944.369,825.121 942.755,825.14 941.142,825.159 
  939.529,825.178 937.915,825.197 936.302,825.215 934.689,825.233 933.075,825.252 931.462,825.27 929.849,825.287 928.236,825.305 926.622,825.322 925.009,825.34 
  923.396,825.357 921.782,825.373 920.169,825.39 918.556,825.407 916.943,825.423 915.329,825.439 913.716,825.455 912.103,825.471 910.489,825.487 908.876,825.503 
  907.263,825.518 905.65,825.533 904.036,825.549 902.423,825.564 900.81,825.578 899.196,825.593 897.583,825.608 895.97,825.622 894.356,825.636 892.743,825.65 
  891.13,825.664 889.517,825.678 887.903,825.692 886.29,825.705 884.677,825.719 883.063,825.732 881.45,825.745 879.837,825.758 878.224,825.771 876.61,825.784 
  874.997,825.797 873.384,825.809 871.77,825.822 870.157,825.834 868.544,825.846 866.931,825.858 865.317,825.87 863.704,825.882 862.091,825.893 860.477,825.905 
  858.864,825.916 857.251,825.928 855.638,825.939 854.024,825.95 852.411,825.961 850.798,825.972 849.184,825.983 847.571,825.993 845.958,826.004 844.344,826.014 
  842.731,826.025 841.118,826.035 839.505,826.045 837.891,826.055 836.278,826.065 834.665,826.075 833.051,826.085 831.438,826.094 829.825,826.104 828.212,826.113 
  826.598,826.123 824.985,826.132 823.372,826.141 821.758,826.15 820.145,826.159 818.532,826.168 816.919,826.177 815.305,826.186 813.692,826.194 812.079,826.203 
  810.465,826.211 808.852,826.22 807.239,826.228 805.626,826.236 804.012,826.244 802.399,826.253 800.786,826.261 799.172,826.268 797.559,826.276 795.946,826.284 
  794.332,826.292 792.719,826.299 791.106,826.307 789.493,826.314 787.879,826.322 786.266,826.329 784.653,826.336 783.039,826.343 781.426,826.35 779.813,826.357 
  778.2,826.364 776.586,826.371 774.973,826.378 773.36,826.385 771.746,826.391 770.133,826.398 768.52,826.404 766.907,826.411 765.293,826.417 763.68,826.424 
  762.067,826.43 760.453,826.436 758.84,826.442 757.227,826.448 755.613,826.454 754,826.46 752.387,826.466 750.774,826.472 749.16,826.478 747.547,826.484 
  745.934,826.489 744.32,826.495 742.707,826.501 741.094,826.506 739.481,826.512 737.867,826.517 736.254,826.522 734.641,826.528 733.027,826.533 731.414,826.538 
  729.801,826.543 728.188,826.548 726.574,826.553 724.961,826.558 723.348,826.563 721.734,826.568 720.121,826.573 718.508,826.578 716.895,826.583 715.281,826.587 
  713.668,826.592 712.055,826.596 710.441,826.601 708.828,826.606 707.215,826.61 705.601,826.614 703.988,826.619 702.375,826.623 700.762,826.627 699.148,826.632 
  697.535,826.636 695.922,826.64 694.308,826.644 692.695,826.648 691.082,826.652 689.469,826.656 687.855,826.66 686.242,826.664 684.629,826.668 683.015,826.672 
  681.402,826.676 679.789,826.68 678.176,826.683 676.562,826.687 674.949,826.691 673.336,826.694 671.722,826.698 670.109,826.701 668.496,826.705 666.882,826.708 
  665.269,826.712 663.656,826.715 662.043,826.719 660.429,826.722 658.816,826.725 657.203,826.729 655.589,826.732 653.976,826.735 652.363,826.738 650.75,826.741 
  649.136,826.744 647.523,826.748 645.91,826.751 644.296,826.754 642.683,826.757 641.07,826.76 639.457,826.763 637.843,826.765 636.23,826.768 634.617,826.771 
  633.003,826.774 631.39,826.777 629.777,826.78 628.164,826.782 626.55,826.785 624.937,826.788 623.324,826.79 621.71,826.793 620.097,826.796 618.484,826.798 
  616.87,826.801 615.257,826.803 613.644,826.806 612.031,826.808 610.417,826.811 608.804,826.813 607.191,826.815 605.577,826.818 603.964,826.82 602.351,826.823 
  600.738,826.825 599.124,826.827 597.511,826.829 595.898,826.832 594.284,826.834 592.671,826.836 591.058,826.838 589.445,826.84 587.831,826.843 586.218,826.845 
  584.605,826.847 582.991,826.849 581.378,826.851 579.765,826.853 578.152,826.855 576.538,826.857 574.925,826.859 573.312,826.861 571.698,826.863 570.085,826.865 
  568.472,826.867 566.858,826.868 565.245,826.87 563.632,826.872 562.019,826.874 560.405,826.876 558.792,826.877 557.179,826.879 555.565,826.881 553.952,826.883 
  552.339,826.884 550.726,826.886 549.112,826.888 547.499,826.889 545.886,826.891 544.272,826.893 542.659,826.894 541.046,826.896 539.433,826.898 537.819,826.899 
  536.206,826.901 534.593,826.902 532.979,826.904 531.366,826.905 529.753,826.907 528.139,826.908 526.526,826.91 524.913,826.911 523.3,826.912 521.686,826.914 
  520.073,826.915 518.46,826.917 516.846,826.918 515.233,826.919 513.62,826.921 512.007,826.922 510.393,826.923 508.78,826.925 507.167,826.926 505.553,826.927 
  503.94,826.929 502.327,826.93 500.714,826.931 499.1,826.932 497.487,826.933 495.874,826.935 494.26,826.936 492.647,826.937 491.034,826.938 489.421,826.939 
  487.807,826.941 486.194,826.942 484.581,826.943 482.967,826.944 481.354,826.945 479.741,826.946 478.127,826.947 476.514,826.948 474.901,826.949 473.288,826.95 
  471.674,826.951 470.061,826.952 468.448,826.953 466.834,826.954 465.221,826.955 463.608,826.956 461.995,826.957 460.381,826.958 458.768,826.959 457.155,826.96 
  455.541,826.961 453.928,826.962 452.315,826.963 450.702,826.964 449.088,826.965 447.475,826.966 445.862,826.967 444.248,826.968 442.635,826.968 441.022,826.969 
  439.409,826.97 437.795,826.971 436.182,826.972 434.569,826.973 432.955,826.973 431.342,826.974 429.729,826.975 428.115,826.976 426.502,826.977 424.889,826.977 
  423.276,826.978 421.662,826.979 420.049,826.98 418.436,826.98 416.822,826.981 415.209,826.982 413.596,826.983 411.983,826.983 410.369,826.984 408.756,826.985 
  407.143,826.985 405.529,826.986 403.916,826.987 402.303,826.988 400.69,826.988 399.076,826.989 
  "/>
</svg>
