<?xml version="1.0" encoding="utf-8"?>
<svg xmlns="http://www.w3.org/2000/svg" xmlns:xlink="http://www.w3.org/1999/xlink" width="500" height="250" viewBox="0 0 2000 1000">
<defs>
  <clipPath id="clip410">
    <rect x="0" y="0" width="2000" height="1000"/>
  </clipPath>
</defs>
<path clip-path="url(#clip410)" d="
M0 1000 L2000 1000 L2000 0 L0 0  Z
  " fill="#ffffff" fill-rule="evenodd" fill-opacity="1"/>
<defs>
  <clipPath id="clip411">
    <rect x="400" y="0" width="1401" height="1000"/>
  </clipPath>
</defs>
<path clip-path="url(#clip410)" d="
M276.833 849.7 L1952.76 849.7 L1952.76 47.2441 L276.833 47.2441  Z
  " fill="#ffffff" fill-rule="evenodd" fill-opacity="1"/>
<defs>
  <clipPath id="clip412">
    <rect x="276" y="47" width="1677" height="803"/>
  </clipPath>
</defs>
<polyline clip-path="url(#clip412)" style="stroke:#000000; stroke-linecap:butt; stroke-linejoin:round; stroke-width:2; stroke-opacity:0.1; fill:none" points="
  1905.32,849.7 1905.32,47.2441 
  "/>
<polyline clip-path="url(#clip412)" style="stroke:#000000; stroke-linecap:butt; stroke-linejoin:round; stroke-width:2; stroke-opacity:0.1; fill:none" points="
  1513.97,849.7 1513.97,47.2441 
  "/>
<polyline clip-path="url(#clip412)" style="stroke:#000000; stroke-linecap:butt; stroke-linejoin:round; stroke-width:2; stroke-opacity:0.1; fill:none" points="
  1122.62,849.7 1122.62,47.2441 
  "/>
<polyline clip-path="url(#clip412)" style="stroke:#000000; stroke-linecap:butt; stroke-linejoin:round; stroke-width:2; stroke-opacity:0.1; fill:none" points="
  731.27,849.7 731.27,47.2441 
  "/>
<polyline clip-path="url(#clip412)" style="stroke:#000000; stroke-linecap:butt; stroke-linejoin:round; stroke-width:2; stroke-opacity:0.1; fill:none" points="
  339.919,849.7 339.919,47.2441 
  "/>
<polyline clip-path="url(#clip410)" style="stroke:#000000; stroke-linecap:butt; stroke-linejoin:round; stroke-width:4; stroke-opacity:1; fill:none" points="
  1952.76,849.7 276.833,849.7 
  "/>
<polyline clip-path="url(#clip410)" style="stroke:#000000; stroke-linecap:butt; stroke-linejoin:round; stroke-width:4; stroke-opacity:1; fill:none" points="
  1905.32,849.7 1905.32,830.802 
  "/>
<polyline clip-path="url(#clip410)" style="stroke:#000000; stroke-linecap:butt; stroke-linejoin:round; stroke-width:4; stroke-opacity:1; fill:none" points="
  1513.97,849.7 1513.97,830.802 
  "/>
<polyline clip-path="url(#clip410)" style="stroke:#000000; stroke-linecap:butt; stroke-linejoin:round; stroke-width:4; stroke-opacity:1; fill:none" points="
  1122.62,849.7 1122.62,830.802 
  "/>
<polyline clip-path="url(#clip410)" style="stroke:#000000; stroke-linecap:butt; stroke-linejoin:round; stroke-width:4; stroke-opacity:1; fill:none" points="
  731.27,849.7 731.27,830.802 
  "/>
<polyline clip-path="url(#clip410)" style="stroke:#000000; stroke-linecap:butt; stroke-linejoin:round; stroke-width:4; stroke-opacity:1; fill:none" points="
  339.919,849.7 339.919,830.802 
  "/>
<path clip-path="url(#clip410)" d="M1905.32 877.419 Q1901.71 877.419 1899.88 880.983 Q1898.08 884.525 1898.08 891.655 Q1898.08 898.761 1899.88 902.326 Q1901.71 905.867 1905.32 905.867 Q1908.96 905.867 1910.76 902.326 Q1912.59 898.761 1912.59 891.655 Q1912.59 884.525 1910.76 880.983 Q1908.96 877.419 1905.32 877.419 M1905.32 873.715 Q1911.13 873.715 1914.19 878.321 Q1917.27 882.905 1917.27 891.655 Q1917.27 900.381 1914.19 904.988 Q1911.13 909.571 1905.32 909.571 Q1899.51 909.571 1896.44 904.988 Q1893.38 900.381 1893.38 891.655 Q1893.38 882.905 1896.44 878.321 Q1899.51 873.715 1905.32 873.715 Z" fill="#000000" fill-rule="evenodd" fill-opacity="1" /><path clip-path="url(#clip410)" d="M1504.25 874.34 L1522.61 874.34 L1522.61 878.275 L1508.53 878.275 L1508.53 886.747 Q1509.55 886.4 1510.57 886.238 Q1511.59 886.053 1512.61 886.053 Q1518.39 886.053 1521.77 889.224 Q1525.15 892.395 1525.15 897.812 Q1525.15 903.391 1521.68 906.492 Q1518.21 909.571 1511.89 909.571 Q1509.71 909.571 1507.45 909.201 Q1505.2 908.83 1502.79 908.09 L1502.79 903.391 Q1504.88 904.525 1507.1 905.08 Q1509.32 905.636 1511.8 905.636 Q1515.8 905.636 1518.14 903.53 Q1520.48 901.423 1520.48 897.812 Q1520.48 894.201 1518.14 892.094 Q1515.8 889.988 1511.8 889.988 Q1509.92 889.988 1508.05 890.405 Q1506.2 890.821 1504.25 891.701 L1504.25 874.34 Z" fill="#000000" fill-rule="evenodd" fill-opacity="1" /><path clip-path="url(#clip410)" d="M1097.31 904.965 L1104.95 904.965 L1104.95 878.599 L1096.64 880.266 L1096.64 876.007 L1104.9 874.34 L1109.58 874.34 L1109.58 904.965 L1117.22 904.965 L1117.22 908.9 L1097.31 908.9 L1097.31 904.965 Z" fill="#000000" fill-rule="evenodd" fill-opacity="1" /><path clip-path="url(#clip410)" d="M1136.66 877.419 Q1133.05 877.419 1131.22 880.983 Q1129.42 884.525 1129.42 891.655 Q1129.42 898.761 1131.22 902.326 Q1133.05 905.867 1136.66 905.867 Q1140.3 905.867 1142.1 902.326 Q1143.93 898.761 1143.93 891.655 Q1143.93 884.525 1142.1 880.983 Q1140.3 877.419 1136.66 877.419 M1136.66 873.715 Q1142.47 873.715 1145.53 878.321 Q1148.61 882.905 1148.61 891.655 Q1148.61 900.381 1145.53 904.988 Q1142.47 909.571 1136.66 909.571 Q1130.85 909.571 1127.77 904.988 Q1124.72 900.381 1124.72 891.655 Q1124.72 882.905 1127.77 878.321 Q1130.85 873.715 1136.66 873.715 Z" fill="#000000" fill-rule="evenodd" fill-opacity="1" /><path clip-path="url(#clip410)" d="M706.456 904.965 L714.094 904.965 L714.094 878.599 L705.784 880.266 L705.784 876.007 L714.048 874.34 L718.724 874.34 L718.724 904.965 L726.363 904.965 L726.363 908.9 L706.456 908.9 L706.456 904.965 Z" fill="#000000" fill-rule="evenodd" fill-opacity="1" /><path clip-path="url(#clip410)" d="M735.854 874.34 L754.21 874.34 L754.21 878.275 L740.136 878.275 L740.136 886.747 Q741.154 886.4 742.173 886.238 Q743.191 886.053 744.21 886.053 Q749.997 886.053 753.377 889.224 Q756.756 892.395 756.756 897.812 Q756.756 903.391 753.284 906.492 Q749.812 909.571 743.492 909.571 Q741.316 909.571 739.048 909.201 Q736.803 908.83 734.395 908.09 L734.395 903.391 Q736.479 904.525 738.701 905.08 Q740.923 905.636 743.4 905.636 Q747.404 905.636 749.742 903.53 Q752.08 901.423 752.08 897.812 Q752.08 894.201 749.742 892.094 Q747.404 889.988 743.4 889.988 Q741.525 889.988 739.65 890.405 Q737.798 890.821 735.854 891.701 L735.854 874.34 Z" fill="#000000" fill-rule="evenodd" fill-opacity="1" /><path clip-path="url(#clip410)" d="M318.692 904.965 L335.012 904.965 L335.012 908.9 L313.067 908.9 L313.067 904.965 Q315.729 902.21 320.313 897.58 Q324.919 892.928 326.1 891.585 Q328.345 889.062 329.225 887.326 Q330.127 885.567 330.127 883.877 Q330.127 881.122 328.183 879.386 Q326.262 877.65 323.16 877.65 Q320.961 877.65 318.507 878.414 Q316.076 879.178 313.299 880.729 L313.299 876.007 Q316.123 874.872 318.576 874.294 Q321.03 873.715 323.067 873.715 Q328.438 873.715 331.632 876.4 Q334.826 879.085 334.826 883.576 Q334.826 885.706 334.016 887.627 Q333.229 889.525 331.123 892.118 Q330.544 892.789 327.442 896.006 Q324.34 899.201 318.692 904.965 Z" fill="#000000" fill-rule="evenodd" fill-opacity="1" /><path clip-path="url(#clip410)" d="M354.826 877.419 Q351.215 877.419 349.386 880.983 Q347.581 884.525 347.581 891.655 Q347.581 898.761 349.386 902.326 Q351.215 905.867 354.826 905.867 Q358.46 905.867 360.266 902.326 Q362.095 898.761 362.095 891.655 Q362.095 884.525 360.266 880.983 Q358.46 877.419 354.826 877.419 M354.826 873.715 Q360.636 873.715 363.692 878.321 Q366.771 882.905 366.771 891.655 Q366.771 900.381 363.692 904.988 Q360.636 909.571 354.826 909.571 Q349.016 909.571 345.937 904.988 Q342.882 900.381 342.882 891.655 Q342.882 882.905 345.937 878.321 Q349.016 873.715 354.826 873.715 Z" fill="#000000" fill-rule="evenodd" fill-opacity="1" /><path clip-path="url(#clip410)" d="M1053.95 942.794 L1053.95 952.916 L1066.02 952.916 L1066.02 957.467 L1053.95 957.467 L1053.95 976.819 Q1053.95 981.18 1055.13 982.421 Q1056.34 983.662 1060 983.662 L1066.02 983.662 L1066.02 988.564 L1060 988.564 Q1053.22 988.564 1050.64 986.049 Q1048.07 983.503 1048.07 976.819 L1048.07 957.467 L1043.77 957.467 L1043.77 952.916 L1048.07 952.916 L1048.07 942.794 L1053.95 942.794 Z" fill="#000000" fill-rule="evenodd" fill-opacity="1" /><path clip-path="url(#clip410)" d="M1073.72 952.916 L1079.58 952.916 L1079.58 988.564 L1073.72 988.564 L1073.72 952.916 M1073.72 939.039 L1079.58 939.039 L1079.58 946.455 L1073.72 946.455 L1073.72 939.039 Z" fill="#000000" fill-rule="evenodd" fill-opacity="1" /><path clip-path="url(#clip410)" d="M1119.58 959.759 Q1121.78 955.812 1124.84 953.934 Q1127.89 952.057 1132.03 952.057 Q1137.6 952.057 1140.62 955.971 Q1143.65 959.855 1143.65 967.048 L1143.65 988.564 L1137.76 988.564 L1137.76 967.239 Q1137.76 962.114 1135.94 959.632 Q1134.13 957.149 1130.41 957.149 Q1125.85 957.149 1123.21 960.173 Q1120.57 963.197 1120.57 968.416 L1120.57 988.564 L1114.68 988.564 L1114.68 967.239 Q1114.68 962.083 1112.87 959.632 Q1111.05 957.149 1107.27 957.149 Q1102.78 957.149 1100.14 960.205 Q1097.5 963.228 1097.5 968.416 L1097.5 988.564 L1091.61 988.564 L1091.61 952.916 L1097.5 952.916 L1097.5 958.454 Q1099.5 955.176 1102.3 953.616 Q1105.1 952.057 1108.95 952.057 Q1112.84 952.057 1115.54 954.03 Q1118.28 956.003 1119.58 959.759 Z" fill="#000000" fill-rule="evenodd" fill-opacity="1" /><path clip-path="url(#clip410)" d="M1185.82 969.276 L1185.82 972.14 L1158.89 972.14 Q1159.27 978.188 1162.52 981.371 Q1165.8 984.522 1171.62 984.522 Q1175 984.522 1178.15 983.694 Q1181.33 982.867 1184.45 981.211 L1184.45 986.75 Q1181.3 988.086 1177.99 988.787 Q1174.68 989.487 1171.27 989.487 Q1162.74 989.487 1157.75 984.522 Q1152.78 979.556 1152.78 971.09 Q1152.78 962.337 1157.49 957.213 Q1162.23 952.057 1170.26 952.057 Q1177.45 952.057 1181.62 956.703 Q1185.82 961.319 1185.82 969.276 M1179.96 967.557 Q1179.9 962.751 1177.26 959.886 Q1174.65 957.022 1170.32 957.022 Q1165.42 957.022 1162.46 959.791 Q1159.53 962.56 1159.08 967.589 L1179.96 967.557 Z" fill="#000000" fill-rule="evenodd" fill-opacity="1" /><polyline clip-path="url(#clip412)" style="stroke:#000000; stroke-linecap:butt; stroke-linejoin:round; stroke-width:2; stroke-opacity:0.1; fill:none" points="
  1952.76,827.017 276.833,827.017 
  "/>
<polyline clip-path="url(#clip412)" style="stroke:#000000; stroke-linecap:butt; stroke-linejoin:round; stroke-width:2; stroke-opacity:0.1; fill:none" points="
  1952.76,637.743 276.833,637.743 
  "/>
<polyline clip-path="url(#clip412)" style="stroke:#000000; stroke-linecap:butt; stroke-linejoin:round; stroke-width:2; stroke-opacity:0.1; fill:none" points="
  1952.76,448.469 276.833,448.469 
  "/>
<polyline clip-path="url(#clip412)" style="stroke:#000000; stroke-linecap:butt; stroke-linejoin:round; stroke-width:2; stroke-opacity:0.1; fill:none" points="
  1952.76,259.195 276.833,259.195 
  "/>
<polyline clip-path="url(#clip412)" style="stroke:#000000; stroke-linecap:butt; stroke-linejoin:round; stroke-width:2; stroke-opacity:0.1; fill:none" points="
  1952.76,69.9207 276.833,69.9207 
  "/>
<polyline clip-path="url(#clip410)" style="stroke:#000000; stroke-linecap:butt; stroke-linejoin:round; stroke-width:4; stroke-opacity:1; fill:none" points="
  276.833,849.7 276.833,47.2441 
  "/>
<polyline clip-path="url(#clip410)" style="stroke:#000000; stroke-linecap:butt; stroke-linejoin:round; stroke-width:4; stroke-opacity:1; fill:none" points="
  276.833,827.017 295.731,827.017 
  "/>
<polyline clip-path="url(#clip410)" style="stroke:#000000; stroke-linecap:butt; stroke-linejoin:round; stroke-width:4; stroke-opacity:1; fill:none" points="
  276.833,637.743 295.731,637.743 
  "/>
<polyline clip-path="url(#clip410)" style="stroke:#000000; stroke-linecap:butt; stroke-linejoin:round; stroke-width:4; stroke-opacity:1; fill:none" points="
  276.833,448.469 295.731,448.469 
  "/>
<polyline clip-path="url(#clip410)" style="stroke:#000000; stroke-linecap:butt; stroke-linejoin:round; stroke-width:4; stroke-opacity:1; fill:none" points="
  276.833,259.195 295.731,259.195 
  "/>
<polyline clip-path="url(#clip410)" style="stroke:#000000; stroke-linecap:butt; stroke-linejoin:round; stroke-width:4; stroke-opacity:1; fill:none" points="
  276.833,69.9207 295.731,69.9207 
  "/>
<path clip-path="url(#clip410)" d="M234.889 812.816 Q231.278 812.816 229.449 816.38 Q227.643 819.922 227.643 827.052 Q227.643 834.158 229.449 837.723 Q231.278 841.265 234.889 841.265 Q238.523 841.265 240.329 837.723 Q242.157 834.158 242.157 827.052 Q242.157 819.922 240.329 816.38 Q238.523 812.816 234.889 812.816 M234.889 809.112 Q240.699 809.112 243.754 813.718 Q246.833 818.302 246.833 827.052 Q246.833 835.778 243.754 840.385 Q240.699 844.968 234.889 844.968 Q229.079 844.968 226 840.385 Q222.944 835.778 222.944 827.052 Q222.944 818.302 226 813.718 Q229.079 809.112 234.889 809.112 Z" fill="#000000" fill-rule="evenodd" fill-opacity="1" /><path clip-path="url(#clip410)" d="M138.431 651.088 L154.75 651.088 L154.75 655.023 L132.806 655.023 L132.806 651.088 Q135.468 648.333 140.051 643.704 Q144.658 639.051 145.838 637.708 Q148.084 635.185 148.963 633.449 Q149.866 631.69 149.866 630 Q149.866 627.245 147.922 625.509 Q146 623.773 142.898 623.773 Q140.699 623.773 138.246 624.537 Q135.815 625.301 133.037 626.852 L133.037 622.13 Q135.861 620.995 138.315 620.417 Q140.769 619.838 142.806 619.838 Q148.176 619.838 151.371 622.523 Q154.565 625.208 154.565 629.699 Q154.565 631.829 153.755 633.75 Q152.968 635.648 150.861 638.241 Q150.283 638.912 147.181 642.129 Q144.079 645.324 138.431 651.088 Z" fill="#000000" fill-rule="evenodd" fill-opacity="1" /><path clip-path="url(#clip410)" d="M164.611 620.463 L182.968 620.463 L182.968 624.398 L168.894 624.398 L168.894 632.87 Q169.912 632.523 170.931 632.361 Q171.949 632.176 172.968 632.176 Q178.755 632.176 182.134 635.347 Q185.514 638.518 185.514 643.935 Q185.514 649.514 182.042 652.616 Q178.57 655.694 172.25 655.694 Q170.074 655.694 167.806 655.324 Q165.56 654.953 163.153 654.213 L163.153 649.514 Q165.236 650.648 167.459 651.203 Q169.681 651.759 172.158 651.759 Q176.162 651.759 178.5 649.653 Q180.838 647.546 180.838 643.935 Q180.838 640.324 178.5 638.217 Q176.162 636.111 172.158 636.111 Q170.283 636.111 168.408 636.528 Q166.556 636.944 164.611 637.824 L164.611 620.463 Z" fill="#000000" fill-rule="evenodd" fill-opacity="1" /><path clip-path="url(#clip410)" d="M204.727 623.542 Q201.116 623.542 199.287 627.106 Q197.482 630.648 197.482 637.778 Q197.482 644.884 199.287 648.449 Q201.116 651.991 204.727 651.991 Q208.361 651.991 210.167 648.449 Q211.995 644.884 211.995 637.778 Q211.995 630.648 210.167 627.106 Q208.361 623.542 204.727 623.542 M204.727 619.838 Q210.537 619.838 213.593 624.444 Q216.671 629.028 216.671 637.778 Q216.671 646.504 213.593 651.111 Q210.537 655.694 204.727 655.694 Q198.917 655.694 195.838 651.111 Q192.782 646.504 192.782 637.778 Q192.782 629.028 195.838 624.444 Q198.917 619.838 204.727 619.838 Z" fill="#000000" fill-rule="evenodd" fill-opacity="1" /><path clip-path="url(#clip410)" d="M234.889 623.542 Q231.278 623.542 229.449 627.106 Q227.643 630.648 227.643 637.778 Q227.643 644.884 229.449 648.449 Q231.278 651.991 234.889 651.991 Q238.523 651.991 240.329 648.449 Q242.157 644.884 242.157 637.778 Q242.157 630.648 240.329 627.106 Q238.523 623.542 234.889 623.542 M234.889 619.838 Q240.699 619.838 243.754 624.444 Q246.833 629.028 246.833 637.778 Q246.833 646.504 243.754 651.111 Q240.699 655.694 234.889 655.694 Q229.079 655.694 226 651.111 Q222.944 646.504 222.944 637.778 Q222.944 629.028 226 624.444 Q229.079 619.838 234.889 619.838 Z" fill="#000000" fill-rule="evenodd" fill-opacity="1" /><path clip-path="url(#clip410)" d="M134.449 431.189 L152.806 431.189 L152.806 435.124 L138.732 435.124 L138.732 443.596 Q139.75 443.249 140.769 443.087 Q141.787 442.902 142.806 442.902 Q148.593 442.902 151.972 446.073 Q155.352 449.244 155.352 454.661 Q155.352 460.24 151.88 463.341 Q148.408 466.42 142.088 466.42 Q139.912 466.42 137.644 466.05 Q135.399 465.679 132.991 464.939 L132.991 460.24 Q135.074 461.374 137.297 461.929 Q139.519 462.485 141.996 462.485 Q146 462.485 148.338 460.379 Q150.676 458.272 150.676 454.661 Q150.676 451.05 148.338 448.943 Q146 446.837 141.996 446.837 Q140.121 446.837 138.246 447.254 Q136.394 447.67 134.449 448.55 L134.449 431.189 Z" fill="#000000" fill-rule="evenodd" fill-opacity="1" /><path clip-path="url(#clip410)" d="M174.565 434.268 Q170.954 434.268 169.125 437.832 Q167.32 441.374 167.32 448.504 Q167.32 455.61 169.125 459.175 Q170.954 462.716 174.565 462.716 Q178.199 462.716 180.005 459.175 Q181.833 455.61 181.833 448.504 Q181.833 441.374 180.005 437.832 Q178.199 434.268 174.565 434.268 M174.565 430.564 Q180.375 430.564 183.431 435.17 Q186.509 439.754 186.509 448.504 Q186.509 457.23 183.431 461.837 Q180.375 466.42 174.565 466.42 Q168.755 466.42 165.676 461.837 Q162.621 457.23 162.621 448.504 Q162.621 439.754 165.676 435.17 Q168.755 430.564 174.565 430.564 Z" fill="#000000" fill-rule="evenodd" fill-opacity="1" /><path clip-path="url(#clip410)" d="M204.727 434.268 Q201.116 434.268 199.287 437.832 Q197.482 441.374 197.482 448.504 Q197.482 455.61 199.287 459.175 Q201.116 462.716 204.727 462.716 Q208.361 462.716 210.167 459.175 Q211.995 455.61 211.995 448.504 Q211.995 441.374 210.167 437.832 Q208.361 434.268 204.727 434.268 M204.727 430.564 Q210.537 430.564 213.593 435.17 Q216.671 439.754 216.671 448.504 Q216.671 457.23 213.593 461.837 Q210.537 466.42 204.727 466.42 Q198.917 466.42 195.838 461.837 Q192.782 457.23 192.782 448.504 Q192.782 439.754 195.838 435.17 Q198.917 430.564 204.727 430.564 Z" fill="#000000" fill-rule="evenodd" fill-opacity="1" /><path clip-path="url(#clip410)" d="M234.889 434.268 Q231.278 434.268 229.449 437.832 Q227.643 441.374 227.643 448.504 Q227.643 455.61 229.449 459.175 Q231.278 462.716 234.889 462.716 Q238.523 462.716 240.329 459.175 Q242.157 455.61 242.157 448.504 Q242.157 441.374 240.329 437.832 Q238.523 434.268 234.889 434.268 M234.889 430.564 Q240.699 430.564 243.754 435.17 Q246.833 439.754 246.833 448.504 Q246.833 457.23 243.754 461.837 Q240.699 466.42 234.889 466.42 Q229.079 466.42 226 461.837 Q222.944 457.23 222.944 448.504 Q222.944 439.754 226 435.17 Q229.079 430.564 234.889 430.564 Z" fill="#000000" fill-rule="evenodd" fill-opacity="1" /><path clip-path="url(#clip410)" d="M133.223 241.915 L155.445 241.915 L155.445 243.906 L142.898 276.475 L138.014 276.475 L149.82 245.85 L133.223 245.85 L133.223 241.915 Z" fill="#000000" fill-rule="evenodd" fill-opacity="1" /><path clip-path="url(#clip410)" d="M164.611 241.915 L182.968 241.915 L182.968 245.85 L168.894 245.85 L168.894 254.322 Q169.912 253.975 170.931 253.813 Q171.949 253.628 172.968 253.628 Q178.755 253.628 182.134 256.799 Q185.514 259.97 185.514 265.387 Q185.514 270.966 182.042 274.067 Q178.57 277.146 172.25 277.146 Q170.074 277.146 167.806 276.776 Q165.56 276.405 163.153 275.665 L163.153 270.966 Q165.236 272.1 167.459 272.655 Q169.681 273.211 172.158 273.211 Q176.162 273.211 178.5 271.104 Q180.838 268.998 180.838 265.387 Q180.838 261.776 178.5 259.669 Q176.162 257.563 172.158 257.563 Q170.283 257.563 168.408 257.98 Q166.556 258.396 164.611 259.276 L164.611 241.915 Z" fill="#000000" fill-rule="evenodd" fill-opacity="1" /><path clip-path="url(#clip410)" d="M204.727 244.993 Q201.116 244.993 199.287 248.558 Q197.482 252.1 197.482 259.23 Q197.482 266.336 199.287 269.901 Q201.116 273.442 204.727 273.442 Q208.361 273.442 210.167 269.901 Q211.995 266.336 211.995 259.23 Q211.995 252.1 210.167 248.558 Q208.361 244.993 204.727 244.993 M204.727 241.29 Q210.537 241.29 213.593 245.896 Q216.671 250.48 216.671 259.23 Q216.671 267.956 213.593 272.563 Q210.537 277.146 204.727 277.146 Q198.917 277.146 195.838 272.563 Q192.782 267.956 192.782 259.23 Q192.782 250.48 195.838 245.896 Q198.917 241.29 204.727 241.29 Z" fill="#000000" fill-rule="evenodd" fill-opacity="1" /><path clip-path="url(#clip410)" d="M234.889 244.993 Q231.278 244.993 229.449 248.558 Q227.643 252.1 227.643 259.23 Q227.643 266.336 229.449 269.901 Q231.278 273.442 234.889 273.442 Q238.523 273.442 240.329 269.901 Q242.157 266.336 242.157 259.23 Q242.157 252.1 240.329 248.558 Q238.523 244.993 234.889 244.993 M234.889 241.29 Q240.699 241.29 243.754 245.896 Q246.833 250.48 246.833 259.23 Q246.833 267.956 243.754 272.563 Q240.699 277.146 234.889 277.146 Q229.079 277.146 226 272.563 Q222.944 267.956 222.944 259.23 Q222.944 250.48 226 245.896 Q229.079 241.29 234.889 241.29 Z" fill="#000000" fill-rule="evenodd" fill-opacity="1" /><path clip-path="url(#clip410)" d="M105.051 83.2656 L112.69 83.2656 L112.69 56.9 L104.38 58.5666 L104.38 54.3074 L112.644 52.6407 L117.32 52.6407 L117.32 83.2656 L124.959 83.2656 L124.959 87.2007 L105.051 87.2007 L105.051 83.2656 Z" fill="#000000" fill-rule="evenodd" fill-opacity="1" /><path clip-path="url(#clip410)" d="M144.403 55.7194 Q140.792 55.7194 138.963 59.2842 Q137.158 62.8259 137.158 69.9555 Q137.158 77.0619 138.963 80.6267 Q140.792 84.1683 144.403 84.1683 Q148.037 84.1683 149.843 80.6267 Q151.672 77.0619 151.672 69.9555 Q151.672 62.8259 149.843 59.2842 Q148.037 55.7194 144.403 55.7194 M144.403 52.0157 Q150.213 52.0157 153.269 56.6222 Q156.347 61.2055 156.347 69.9555 Q156.347 78.6823 153.269 83.2887 Q150.213 87.872 144.403 87.872 Q138.593 87.872 135.514 83.2887 Q132.459 78.6823 132.459 69.9555 Q132.459 61.2055 135.514 56.6222 Q138.593 52.0157 144.403 52.0157 Z" fill="#000000" fill-rule="evenodd" fill-opacity="1" /><path clip-path="url(#clip410)" d="M174.565 55.7194 Q170.954 55.7194 169.125 59.2842 Q167.32 62.8259 167.32 69.9555 Q167.32 77.0619 169.125 80.6267 Q170.954 84.1683 174.565 84.1683 Q178.199 84.1683 180.005 80.6267 Q181.833 77.0619 181.833 69.9555 Q181.833 62.8259 180.005 59.2842 Q178.199 55.7194 174.565 55.7194 M174.565 52.0157 Q180.375 52.0157 183.431 56.6222 Q186.509 61.2055 186.509 69.9555 Q186.509 78.6823 183.431 83.2887 Q180.375 87.872 174.565 87.872 Q168.755 87.872 165.676 83.2887 Q162.621 78.6823 162.621 69.9555 Q162.621 61.2055 165.676 56.6222 Q168.755 52.0157 174.565 52.0157 Z" fill="#000000" fill-rule="evenodd" fill-opacity="1" /><path clip-path="url(#clip410)" d="M204.727 55.7194 Q201.116 55.7194 199.287 59.2842 Q197.482 62.8259 197.482 69.9555 Q197.482 77.0619 199.287 80.6267 Q201.116 84.1683 204.727 84.1683 Q208.361 84.1683 210.167 80.6267 Q211.995 77.0619 211.995 69.9555 Q211.995 62.8259 210.167 59.2842 Q208.361 55.7194 204.727 55.7194 M204.727 52.0157 Q210.537 52.0157 213.593 56.6222 Q216.671 61.2055 216.671 69.9555 Q216.671 78.6823 213.593 83.2887 Q210.537 87.872 204.727 87.872 Q198.917 87.872 195.838 83.2887 Q192.782 78.6823 192.782 69.9555 Q192.782 61.2055 195.838 56.6222 Q198.917 52.0157 204.727 52.0157 Z" fill="#000000" fill-rule="evenodd" fill-opacity="1" /><path clip-path="url(#clip410)" d="M234.889 55.7194 Q231.278 55.7194 229.449 59.2842 Q227.643 62.8259 227.643 69.9555 Q227.643 77.0619 229.449 80.6267 Q231.278 84.1683 234.889 84.1683 Q238.523 84.1683 240.329 80.6267 Q242.157 77.0619 242.157 69.9555 Q242.157 62.8259 240.329 59.2842 Q238.523 55.7194 234.889 55.7194 M234.889 52.0157 Q240.699 52.0157 243.754 56.6222 Q246.833 61.2055 246.833 69.9555 Q246.833 78.6823 243.754 83.2887 Q240.699 87.872 234.889 87.872 Q229.079 87.872 226 83.2887 Q222.944 78.6823 222.944 69.9555 Q222.944 61.2055 226 56.6222 Q229.079 52.0157 234.889 52.0157 Z" fill="#000000" fill-rule="evenodd" fill-opacity="1" /><path clip-path="url(#clip410)" d="M40.8361 811.397 L43.7006 811.397 L43.7006 838.324 Q49.7481 837.942 52.9309 834.695 Q56.0819 831.417 56.0819 825.592 Q56.0819 822.219 55.2544 819.067 Q54.4269 815.885 52.7718 812.765 L58.3099 812.765 Q59.6467 815.916 60.347 819.227 Q61.0472 822.537 61.0472 825.942 Q61.0472 834.473 56.0819 839.47 Q51.1167 844.435 42.6503 844.435 Q33.8974 844.435 28.7731 839.724 Q23.6168 834.982 23.6168 826.961 Q23.6168 819.768 28.2638 815.598 Q32.8789 811.397 40.8361 811.397 M39.1173 817.253 Q34.3112 817.317 31.4466 819.959 Q28.5821 822.569 28.5821 826.897 Q28.5821 831.799 31.3512 834.759 Q34.1202 837.687 39.1492 838.133 L39.1173 817.253 Z" fill="#000000" fill-rule="evenodd" fill-opacity="1" /><path clip-path="url(#clip410)" d="M10.599 783.738 L15.4687 783.738 L15.4687 789.34 Q15.4687 792.491 16.7419 793.732 Q18.015 794.941 21.3252 794.941 L24.4762 794.941 L24.4762 785.297 L29.0277 785.297 L29.0277 794.941 L60.1242 794.941 L60.1242 800.83 L29.0277 800.83 L29.0277 806.432 L24.4762 806.432 L24.4762 800.83 L21.9936 800.83 Q16.0416 800.83 13.3362 798.061 Q10.599 795.292 10.599 789.276 L10.599 783.738 Z" fill="#000000" fill-rule="evenodd" fill-opacity="1" /><path clip-path="url(#clip410)" d="M10.599 760.789 L15.4687 760.789 L15.4687 766.391 Q15.4687 769.542 16.7419 770.784 Q18.015 771.993 21.3252 771.993 L24.4762 771.993 L24.4762 762.349 L29.0277 762.349 L29.0277 771.993 L60.1242 771.993 L60.1242 777.881 L29.0277 777.881 L29.0277 783.483 L24.4762 783.483 L24.4762 777.881 L21.9936 777.881 Q16.0416 777.881 13.3362 775.112 Q10.599 772.343 10.599 766.328 L10.599 760.789 Z" fill="#000000" fill-rule="evenodd" fill-opacity="1" /><path clip-path="url(#clip410)" d="M40.8361 725.396 L43.7006 725.396 L43.7006 752.323 Q49.7481 751.941 52.9309 748.695 Q56.0819 745.416 56.0819 739.592 Q56.0819 736.218 55.2544 733.067 Q54.4269 729.884 52.7718 726.765 L58.3099 726.765 Q59.6467 729.916 60.347 733.226 Q61.0472 736.536 61.0472 739.942 Q61.0472 748.472 56.0819 753.469 Q51.1167 758.434 42.6503 758.434 Q33.8974 758.434 28.7731 753.724 Q23.6168 748.981 23.6168 740.96 Q23.6168 733.767 28.2638 729.597 Q32.8789 725.396 40.8361 725.396 M39.1173 731.253 Q34.3112 731.316 31.4466 733.958 Q28.5821 736.568 28.5821 740.897 Q28.5821 745.798 31.3512 748.758 Q34.1202 751.686 39.1492 752.132 L39.1173 731.253 Z" fill="#000000" fill-rule="evenodd" fill-opacity="1" /><path clip-path="url(#clip410)" d="M25.8448 690.13 L31.3193 690.13 Q29.9507 692.613 29.2823 695.127 Q28.5821 697.61 28.5821 700.156 Q28.5821 705.853 32.2105 709.004 Q35.8072 712.155 42.332 712.155 Q48.8569 712.155 52.4853 709.004 Q56.0819 705.853 56.0819 700.156 Q56.0819 697.61 55.4135 695.127 Q54.7133 692.613 53.3447 690.13 L58.7555 690.13 Q59.9014 692.581 60.4743 695.223 Q61.0472 697.833 61.0472 700.793 Q61.0472 708.845 55.9864 713.588 Q50.9257 718.33 42.332 718.33 Q33.611 718.33 28.6139 713.556 Q23.6168 708.75 23.6168 700.411 Q23.6168 697.705 24.1897 695.127 Q24.7308 692.549 25.8448 690.13 Z" fill="#000000" fill-rule="evenodd" fill-opacity="1" /><path clip-path="url(#clip410)" d="M14.3547 674.152 L24.4762 674.152 L24.4762 662.089 L29.0277 662.089 L29.0277 674.152 L48.3794 674.152 Q52.7399 674.152 53.9813 672.975 Q55.2226 671.765 55.2226 668.105 L55.2226 662.089 L60.1242 662.089 L60.1242 668.105 Q60.1242 674.884 57.6097 677.462 Q55.0634 680.04 48.3794 680.04 L29.0277 680.04 L29.0277 684.337 L24.4762 684.337 L24.4762 680.04 L14.3547 680.04 L14.3547 674.152 Z" fill="#000000" fill-rule="evenodd" fill-opacity="1" /><path clip-path="url(#clip410)" d="M24.4762 654.387 L24.4762 648.53 L60.1242 648.53 L60.1242 654.387 L24.4762 654.387 M10.599 654.387 L10.599 648.53 L18.015 648.53 L18.015 654.387 L10.599 654.387 Z" fill="#000000" fill-rule="evenodd" fill-opacity="1" /><path clip-path="url(#clip410)" d="M24.4762 640.478 L24.4762 634.271 L54.395 623.131 L24.4762 611.991 L24.4762 605.784 L60.1242 619.152 L60.1242 627.11 L24.4762 640.478 Z" fill="#000000" fill-rule="evenodd" fill-opacity="1" /><path clip-path="url(#clip410)" d="M40.8361 567.208 L43.7006 567.208 L43.7006 594.135 Q49.7481 593.753 52.9309 590.507 Q56.0819 587.228 56.0819 581.404 Q56.0819 578.03 55.2544 574.879 Q54.4269 571.696 52.7718 568.577 L58.3099 568.577 Q59.6467 571.728 60.347 575.038 Q61.0472 578.348 61.0472 581.754 Q61.0472 590.284 56.0819 595.281 Q51.1167 600.246 42.6503 600.246 Q33.8974 600.246 28.7731 595.536 Q23.6168 590.793 23.6168 582.772 Q23.6168 575.579 28.2638 571.41 Q32.8789 567.208 40.8361 567.208 M39.1173 573.065 Q34.3112 573.128 31.4466 575.77 Q28.5821 578.38 28.5821 582.709 Q28.5821 587.61 31.3512 590.57 Q34.1202 593.499 39.1492 593.944 L39.1173 573.065 Z" fill="#000000" fill-rule="evenodd" fill-opacity="1" /><path clip-path="url(#clip410)" d="M54.777 531.21 L73.6831 531.21 L73.6831 537.099 L24.4762 537.099 L24.4762 531.21 L29.8871 531.21 Q26.7042 529.364 25.1764 526.563 Q23.6168 523.731 23.6168 519.816 Q23.6168 513.323 28.7731 509.28 Q33.9293 505.206 42.332 505.206 Q50.7347 505.206 55.891 509.28 Q61.0472 513.323 61.0472 519.816 Q61.0472 523.731 59.5194 526.563 Q57.9598 529.364 54.777 531.21 M42.332 511.286 Q35.8708 511.286 32.2105 513.959 Q28.5184 516.601 28.5184 521.248 Q28.5184 525.895 32.2105 528.568 Q35.8708 531.21 42.332 531.21 Q48.7932 531.21 52.4853 528.568 Q56.1456 525.895 56.1456 521.248 Q56.1456 516.601 52.4853 513.959 Q48.7932 511.286 42.332 511.286 Z" fill="#000000" fill-rule="evenodd" fill-opacity="1" /><path clip-path="url(#clip410)" d="M28.5821 481.685 Q28.5821 486.396 32.2742 489.133 Q35.9345 491.87 42.332 491.87 Q48.7295 491.87 52.4217 489.165 Q56.0819 486.427 56.0819 481.685 Q56.0819 477.006 52.3898 474.269 Q48.6977 471.532 42.332 471.532 Q35.9981 471.532 32.306 474.269 Q28.5821 477.006 28.5821 481.685 M23.6168 481.685 Q23.6168 474.046 28.5821 469.686 Q33.5473 465.325 42.332 465.325 Q51.0849 465.325 56.0819 469.686 Q61.0472 474.046 61.0472 481.685 Q61.0472 489.356 56.0819 493.716 Q51.0849 498.045 42.332 498.045 Q33.5473 498.045 28.5821 493.716 Q23.6168 489.356 23.6168 481.685 Z" fill="#000000" fill-rule="evenodd" fill-opacity="1" /><path clip-path="url(#clip410)" d="M54.777 449.952 L73.6831 449.952 L73.6831 455.84 L24.4762 455.84 L24.4762 449.952 L29.8871 449.952 Q26.7042 448.106 25.1764 445.305 Q23.6168 442.472 23.6168 438.557 Q23.6168 432.064 28.7731 428.022 Q33.9293 423.948 42.332 423.948 Q50.7347 423.948 55.891 428.022 Q61.0472 432.064 61.0472 438.557 Q61.0472 442.472 59.5194 445.305 Q57.9598 448.106 54.777 449.952 M42.332 430.027 Q35.8708 430.027 32.2105 432.701 Q28.5184 435.343 28.5184 439.99 Q28.5184 444.637 32.2105 447.31 Q35.8708 449.952 42.332 449.952 Q48.7932 449.952 52.4853 447.31 Q56.1456 444.637 56.1456 439.99 Q56.1456 435.343 52.4853 432.701 Q48.7932 430.027 42.332 430.027 Z" fill="#000000" fill-rule="evenodd" fill-opacity="1" /><path clip-path="url(#clip410)" d="M46.0559 414.845 L24.4762 414.845 L24.4762 408.989 L45.8331 408.989 Q50.8939 408.989 53.4402 407.015 Q55.9546 405.042 55.9546 401.095 Q55.9546 396.353 52.9309 393.615 Q49.9072 390.846 44.6873 390.846 L24.4762 390.846 L24.4762 384.99 L60.1242 384.99 L60.1242 390.846 L54.6496 390.846 Q57.8962 392.979 59.4876 395.812 Q61.0472 398.613 61.0472 402.337 Q61.0472 408.479 57.2278 411.662 Q53.4083 414.845 46.0559 414.845 M23.6168 400.109 L23.6168 400.109 Z" fill="#000000" fill-rule="evenodd" fill-opacity="1" /><path clip-path="url(#clip410)" d="M10.599 372.927 L10.599 367.07 L60.1242 367.07 L60.1242 372.927 L10.599 372.927 Z" fill="#000000" fill-rule="evenodd" fill-opacity="1" /><path clip-path="url(#clip410)" d="M42.2047 338.616 Q42.2047 345.714 43.8279 348.451 Q45.4512 351.188 49.3661 351.188 Q52.4853 351.188 54.3314 349.151 Q56.1456 347.082 56.1456 343.549 Q56.1456 338.679 52.7081 335.751 Q49.2388 332.791 43.5097 332.791 L42.2047 332.791 L42.2047 338.616 M39.7857 326.935 L60.1242 326.935 L60.1242 332.791 L54.7133 332.791 Q57.9598 334.796 59.5194 337.788 Q61.0472 340.78 61.0472 345.109 Q61.0472 350.583 57.9916 353.83 Q54.9043 357.045 49.7481 357.045 Q43.7325 357.045 40.6769 353.034 Q37.6214 348.992 37.6214 341.003 L37.6214 332.791 L37.0485 332.791 Q33.0062 332.791 30.8101 335.465 Q28.5821 338.107 28.5821 342.913 Q28.5821 345.968 29.3141 348.865 Q30.0462 351.761 31.5103 354.435 L26.0995 354.435 Q24.8581 351.22 24.2534 348.196 Q23.6168 345.172 23.6168 342.308 Q23.6168 334.574 27.6272 330.754 Q31.6376 326.935 39.7857 326.935 Z" fill="#000000" fill-rule="evenodd" fill-opacity="1" /><path clip-path="url(#clip410)" d="M14.3547 309.079 L24.4762 309.079 L24.4762 297.016 L29.0277 297.016 L29.0277 309.079 L48.3794 309.079 Q52.7399 309.079 53.9813 307.901 Q55.2226 306.692 55.2226 303.031 L55.2226 297.016 L60.1242 297.016 L60.1242 303.031 Q60.1242 309.811 57.6097 312.389 Q55.0634 314.967 48.3794 314.967 L29.0277 314.967 L29.0277 319.264 L24.4762 319.264 L24.4762 314.967 L14.3547 314.967 L14.3547 309.079 Z" fill="#000000" fill-rule="evenodd" fill-opacity="1" /><path clip-path="url(#clip410)" d="M24.4762 289.313 L24.4762 283.457 L60.1242 283.457 L60.1242 289.313 L24.4762 289.313 M10.599 289.313 L10.599 283.457 L18.015 283.457 L18.015 289.313 L10.599 289.313 Z" fill="#000000" fill-rule="evenodd" fill-opacity="1" /><path clip-path="url(#clip410)" d="M28.5821 257.389 Q28.5821 262.1 32.2742 264.837 Q35.9345 267.575 42.332 267.575 Q48.7295 267.575 52.4217 264.869 Q56.0819 262.132 56.0819 257.389 Q56.0819 252.711 52.3898 249.973 Q48.6977 247.236 42.332 247.236 Q35.9981 247.236 32.306 249.973 Q28.5821 252.711 28.5821 257.389 M23.6168 257.389 Q23.6168 249.751 28.5821 245.39 Q33.5473 241.03 42.332 241.03 Q51.0849 241.03 56.0819 245.39 Q61.0472 249.751 61.0472 257.389 Q61.0472 265.06 56.0819 269.421 Q51.0849 273.749 42.332 273.749 Q33.5473 273.749 28.5821 269.421 Q23.6168 265.06 23.6168 257.389 Z" fill="#000000" fill-rule="evenodd" fill-opacity="1" /><path clip-path="url(#clip410)" d="M38.6081 201.689 L60.1242 201.689 L60.1242 207.546 L38.799 207.546 Q33.7383 207.546 31.2238 209.519 Q28.7094 211.493 28.7094 215.439 Q28.7094 220.182 31.7331 222.919 Q34.7568 225.656 39.9767 225.656 L60.1242 225.656 L60.1242 231.545 L24.4762 231.545 L24.4762 225.656 L30.0144 225.656 Q26.7997 223.556 25.2083 220.723 Q23.6168 217.858 23.6168 214.134 Q23.6168 207.991 27.4363 204.84 Q31.2238 201.689 38.6081 201.689 Z" fill="#000000" fill-rule="evenodd" fill-opacity="1" /><path clip-path="url(#clip410)" d="M25.5265 146.562 L31.0647 146.562 Q29.7916 149.045 29.155 151.719 Q28.5184 154.392 28.5184 157.257 Q28.5184 161.617 29.8552 163.813 Q31.192 165.978 33.8656 165.978 Q35.9026 165.978 37.0803 164.418 Q38.2261 162.859 39.2765 158.148 L39.7221 156.143 Q41.0589 149.904 43.5097 147.294 Q45.9286 144.653 50.2891 144.653 Q55.2544 144.653 58.1508 148.599 Q61.0472 152.514 61.0472 159.389 Q61.0472 162.254 60.4743 165.373 Q59.9332 168.46 58.8192 171.898 L52.7718 171.898 Q54.4587 168.651 55.318 165.5 Q56.1456 162.349 56.1456 159.262 Q56.1456 155.124 54.7451 152.896 Q53.3129 150.668 50.7347 150.668 Q48.3476 150.668 47.0745 152.292 Q45.8013 153.883 44.6237 159.326 L44.1462 161.363 Q43.0004 166.805 40.6451 169.224 Q38.258 171.643 34.1202 171.643 Q29.0913 171.643 26.3541 168.079 Q23.6168 164.514 23.6168 157.957 Q23.6168 154.711 24.0943 151.846 Q24.5717 148.981 25.5265 146.562 Z" fill="#000000" fill-rule="evenodd" fill-opacity="1" /><path clip-path="url(#clip410)" d="M24.4762 135.327 L24.4762 129.47 L60.1242 129.47 L60.1242 135.327 L24.4762 135.327 M10.599 135.327 L10.599 129.47 L18.015 129.47 L18.015 135.327 L10.599 135.327 Z" fill="#000000" fill-rule="evenodd" fill-opacity="1" /><path clip-path="url(#clip410)" d="M24.4762 119.763 L24.4762 91.9447 L29.8234 91.9447 L55.4454 113.97 L55.4454 91.9447 L60.1242 91.9447 L60.1242 120.559 L54.777 120.559 L29.155 98.5332 L29.155 119.763 L24.4762 119.763 Z" fill="#000000" fill-rule="evenodd" fill-opacity="1" /><path clip-path="url(#clip410)" d="M40.8361 52.5091 L43.7006 52.5091 L43.7006 79.436 Q49.7481 79.0541 52.9309 75.8076 Q56.0819 72.5292 56.0819 66.7046 Q56.0819 63.3308 55.2544 60.1798 Q54.4269 56.9969 52.7718 53.8777 L58.3099 53.8777 Q59.6467 57.0288 60.347 60.3389 Q61.0472 63.6491 61.0472 67.0547 Q61.0472 75.5848 56.0819 80.5819 Q51.1167 85.5471 42.6503 85.5471 Q33.8974 85.5471 28.7731 80.8365 Q23.6168 76.094 23.6168 68.0733 Q23.6168 60.88 28.2638 56.7105 Q32.8789 52.5091 40.8361 52.5091 M39.1173 58.3656 Q34.3112 58.4292 31.4466 61.071 Q28.5821 63.6809 28.5821 68.0096 Q28.5821 72.9112 31.3512 75.8712 Q34.1202 78.7995 39.1492 79.2451 L39.1173 58.3656 Z" fill="#000000" fill-rule="evenodd" fill-opacity="1" /><polyline clip-path="url(#clip412)" style="stroke:#009af9; stroke-linecap:butt; stroke-linejoin:round; stroke-width:4; stroke-opacity:1; fill:none" points="
  1905.32,69.9551 1897.5,69.9587 1889.67,69.9627 1881.84,69.9671 1874.02,69.972 1866.19,69.9774 1858.36,69.9834 1850.53,69.9899 1842.71,69.9972 1834.88,70.0053 
  1827.05,70.0142 1819.23,70.024 1811.4,70.0348 1803.57,70.0468 1795.75,70.0601 1787.92,70.0747 1780.09,70.0909 1772.26,70.1088 1764.44,70.1286 1756.61,70.1505 
  1748.78,70.1746 1740.96,70.2013 1733.13,70.2308 1725.3,70.2634 1717.48,70.2994 1709.65,70.3392 1701.82,70.3832 1693.99,70.4318 1686.17,70.4856 1678.34,70.5449 
  1670.51,70.6105 1662.69,70.683 1654.86,70.763 1647.03,70.8515 1639.21,70.9493 1631.38,71.0573 1623.55,71.1766 1615.72,71.3084 1607.9,71.4541 1600.07,71.615 
  1592.24,71.7927 1584.42,71.9891 1576.59,72.206 1568.76,72.4455 1560.93,72.7101 1553.11,73.0022 1545.28,73.3248 1537.45,73.6811 1529.63,74.0744 1521.8,74.5086 
  1513.97,74.9879 1506.15,75.5168 1498.32,76.1006 1490.49,76.7447 1482.66,77.4552 1474.84,78.2389 1467.01,79.1031 1459.18,80.0559 1451.36,81.1061 1443.53,82.2633 
  1435.7,83.538 1427.88,84.9418 1420.05,86.487 1412.22,88.1872 1404.39,90.0572 1396.57,92.1129 1388.74,94.3715 1380.91,96.8515 1373.09,99.573 1365.26,102.557 
  1357.43,105.827 1349.61,109.406 1341.78,113.321 1333.95,117.598 1326.12,122.265 1318.3,127.353 1310.47,132.89 1302.64,138.91 1294.82,145.441 1286.99,152.518 
  1279.16,160.169 1271.34,168.425 1263.51,177.316 1255.68,186.866 1247.85,197.099 1240.03,208.034 1232.2,219.687 1224.37,232.064 1216.55,245.17 1208.72,258.998 
  1200.89,273.535 1193.06,288.76 1185.24,304.64 1177.41,321.135 1169.58,338.193 1161.76,355.755 1153.93,373.753 1146.1,392.109 1138.28,410.74 1130.45,429.557 
  1122.62,448.469 1114.79,467.381 1106.97,486.198 1099.14,504.829 1091.31,523.185 1083.49,541.182 1075.66,558.745 1067.83,575.803 1060.01,592.298 1052.18,608.178 
  1044.35,623.402 1036.52,637.94 1028.7,651.768 1020.87,664.873 1013.04,677.251 1005.22,688.903 997.389,699.839 989.562,710.072 981.735,719.622 973.908,728.512 
  966.081,736.769 958.254,744.42 950.427,751.496 942.6,758.028 934.773,764.047 926.946,769.585 919.119,774.673 911.292,779.34 903.465,783.617 895.638,787.532 
  887.811,791.111 879.984,794.381 872.157,797.365 864.33,800.086 856.503,802.566 848.676,804.825 840.849,806.88 833.022,808.75 825.195,810.451 817.368,811.996 
  809.54,813.4 801.713,814.674 793.886,815.832 786.059,816.882 778.232,817.835 770.405,818.699 762.578,819.482 754.751,820.193 746.924,820.837 739.097,821.421 
  731.27,821.95 723.443,822.429 715.616,822.863 707.789,823.257 699.962,823.613 692.135,823.935 684.308,824.228 676.481,824.492 668.654,824.732 660.827,824.949 
  653,825.145 645.173,825.323 637.346,825.484 629.519,825.629 621.692,825.761 613.865,825.88 606.038,825.988 598.211,826.086 590.384,826.175 582.557,826.255 
  574.73,826.327 566.903,826.393 559.076,826.452 551.249,826.506 543.422,826.554 535.595,826.598 527.768,826.638 519.941,826.674 512.113,826.707 504.286,826.736 
  496.459,826.763 488.632,826.787 480.805,826.809 472.978,826.829 465.151,826.847 457.324,826.863 449.497,826.878 441.67,826.891 433.843,826.903 426.016,826.914 
  418.189,826.924 410.362,826.932 402.535,826.94 394.708,826.948 386.881,826.954 379.054,826.96 371.227,826.966 363.4,826.971 355.573,826.975 347.746,826.979 
  339.919,826.983 332.092,826.986 324.265,826.989 
  "/>
</svg>
